<?xml version="1.0" encoding="utf-8"?>
<!-- Generator: Adobe Illustrator 27.4.1, SVG Export Plug-In . SVG Version: 6.00 Build 0)  -->
<svg version="1.1" id="Layer_1" xmlns="http://www.w3.org/2000/svg" xmlns:xlink="http://www.w3.org/1999/xlink" x="0px" y="0px"
	 viewBox="0 0 73 68" style="enable-background:new 0 0 73 68;" xml:space="preserve">
<style type="text/css">
	.st0{clip-path:url(#SVGID_00000098903369383065495350000004284028076895668921_);}
	.st1{clip-path:url(#SVGID_00000145756071132088457880000002796907041758439843_);}
</style>
<g>
	<defs>
		<polygon id="SVGID_1_" points="1,1 2,1 1,2 		"/>
	</defs>
	<defs>
		<polygon id="SVGID_00000124859262269227006480000012116755225407674771_" points="-1,-1 -2,-1 -1,-2 		"/>
	</defs>
	<clipPath id="SVGID_00000173141351998776443850000011341564274940777600_">
		<use xlink:href="#SVGID_1_"  style="overflow:visible;"/>
	</clipPath>
	
		<clipPath id="SVGID_00000119804433430410164310000001310395475182347422_" style="clip-path:url(#SVGID_00000173141351998776443850000011341564274940777600_);">
		<use xlink:href="#SVGID_00000124859262269227006480000012116755225407674771_"  style="overflow:visible;"/>
	</clipPath>
	<path style="clip-path:url(#SVGID_00000119804433430410164310000001310395475182347422_);" d="M73,67H0v2h73V67z"/>
</g>
<g>
	<path d="M23,59.3c-4.1,0-7.6-1-10.5-3s-5.2-4.9-6.8-8.6c-1.6-3.8-2.3-8.3-2.3-13.6c0-5.3,0.8-9.8,2.4-13.5c1.6-3.7,3.8-6.6,6.8-8.5
		c2.9-2,6.4-2.9,10.5-2.9c4.1,0,7.6,1,10.5,2.9c2.9,2,5.2,4.8,6.8,8.5c1.6,3.7,2.4,8.2,2.3,13.5c0,5.3-0.8,9.9-2.4,13.6
		c-1.6,3.8-3.8,6.7-6.7,8.6C30.5,58.4,27,59.3,23,59.3z M23,50.8c2.8,0,5-1.4,6.7-4.2c1.7-2.8,2.5-7,2.5-12.6c0-3.7-0.4-6.7-1.1-9.2
		c-0.8-2.4-1.8-4.3-3.2-5.5c-1.4-1.2-3-1.8-4.8-1.8c-2.8,0-5,1.4-6.6,4.1s-2.5,6.9-2.5,12.4c0,3.7,0.4,6.8,1.1,9.3s1.8,4.4,3.2,5.6
		C19.5,50.2,21.1,50.8,23,50.8z"/>
	<path d="M68.3,9.8v48.5H58V19.5h-0.3l-11.1,7v-9.1l12-7.6H68.3z"/>
</g>
</svg>
