<?xml version="1.0" encoding="utf-8"?>
<!-- Generator: Adobe Illustrator 27.4.1, SVG Export Plug-In . SVG Version: 6.00 Build 0)  -->
<svg version="1.1" id="Layer_1" xmlns="http://www.w3.org/2000/svg" xmlns:xlink="http://www.w3.org/1999/xlink" x="0px" y="0px"
	 viewBox="0 0 80 68" style="enable-background:new 0 0 80 68;" xml:space="preserve">
<style type="text/css">
	.st0{clip-path:url(#SVGID_00000124875411396880936210000001187340503764651932_);}
	.st1{clip-path:url(#SVGID_00000049203797712072639180000013216892835394678691_);}
</style>
<g>
	<defs>
		<polygon id="SVGID_1_" points="1,1 2,1 1,2 		"/>
	</defs>
	<defs>
		<polygon id="SVGID_00000179628978403479998950000002235294044968932232_" points="-1,-1 -2,-1 -1,-2 		"/>
	</defs>
	<clipPath id="SVGID_00000008111840684828000980000013898844187033525634_">
		<use xlink:href="#SVGID_1_"  style="overflow:visible;"/>
	</clipPath>
	
		<clipPath id="SVGID_00000149345599371585396010000018026283913787292347_" style="clip-path:url(#SVGID_00000008111840684828000980000013898844187033525634_);">
		<use xlink:href="#SVGID_00000179628978403479998950000002235294044968932232_"  style="overflow:visible;"/>
	</clipPath>
	<path style="clip-path:url(#SVGID_00000149345599371585396010000018026283913787292347_);" d="M80,67H0v2h80V67z"/>
</g>
<g>
	<path d="M20,58.8c-4.1,0-7.6-1-10.5-3s-5.2-4.9-6.8-8.6c-1.6-3.8-2.3-8.3-2.3-13.6c0-5.3,0.8-9.8,2.4-13.5c1.6-3.7,3.8-6.6,6.8-8.5
		c2.9-2,6.4-2.9,10.5-2.9c4.1,0,7.6,1,10.5,2.9c2.9,2,5.2,4.8,6.8,8.5c1.6,3.7,2.4,8.2,2.3,13.5c0,5.3-0.8,9.9-2.4,13.6
		c-1.6,3.8-3.8,6.7-6.7,8.6C27.6,57.8,24.1,58.8,20,58.8z M20,50.3c2.8,0,5-1.4,6.7-4.2c1.7-2.8,2.5-7,2.5-12.6
		c0-3.7-0.4-6.7-1.1-9.2c-0.8-2.4-1.8-4.3-3.2-5.5c-1.4-1.2-3-1.8-4.8-1.8c-2.8,0-5,1.4-6.6,4.1s-2.5,6.9-2.5,12.4
		c0,3.7,0.4,6.8,1.1,9.3s1.8,4.4,3.2,5.6C16.6,49.7,18.2,50.3,20,50.3z"/>
	<path d="M44.2,57.7v-7.4l17.3-16c1.5-1.4,2.7-2.7,3.7-3.8c1-1.1,1.8-2.3,2.3-3.4c0.5-1.1,0.8-2.3,0.8-3.6c0-1.4-0.3-2.6-1-3.7
		c-0.6-1-1.5-1.8-2.7-2.4c-1.1-0.6-2.4-0.8-3.8-0.8c-1.5,0-2.8,0.3-3.9,0.9c-1.1,0.6-2,1.5-2.6,2.6c-0.6,1.1-0.9,2.5-0.9,4h-9.7
		c0-3.2,0.7-5.9,2.2-8.3c1.4-2.3,3.5-4.1,6-5.4s5.6-1.9,9-1.9c3.5,0,6.5,0.6,9.1,1.8c2.6,1.2,4.6,2.9,6,5.1c1.4,2.2,2.2,4.6,2.2,7.4
		c0,1.8-0.4,3.6-1.1,5.4c-0.7,1.8-2,3.8-3.8,5.9c-1.8,2.2-4.4,4.8-7.7,7.8L58.4,49v0.3h20.4v8.4H44.2z"/>
</g>
</svg>
