<?xml version="1.0" encoding="utf-8"?>
<!-- Generator: Adobe Illustrator 27.4.1, SVG Export Plug-In . SVG Version: 6.00 Build 0)  -->
<svg version="1.1" id="Layer_1" xmlns="http://www.w3.org/2000/svg" xmlns:xlink="http://www.w3.org/1999/xlink" x="0px" y="0px"
	 viewBox="0 0 82 68" style="enable-background:new 0 0 82 68;" xml:space="preserve">
<style type="text/css">
	.st0{clip-path:url(#SVGID_00000103943574800324279400000008119153954951546278_);}
	.st1{clip-path:url(#SVGID_00000031209746500500091570000002345246639299951546_);}
</style>
<g>
	<defs>
		<polygon id="SVGID_1_" points="1,1 2,1 1,2 		"/>
	</defs>
	<defs>
		<polygon id="SVGID_00000181052652661419216480000000418701176174186135_" points="-1,-1 -2,-1 -1,-2 		"/>
	</defs>
	<clipPath id="SVGID_00000037651788879602987950000016919693191115042192_">
		<use xlink:href="#SVGID_1_"  style="overflow:visible;"/>
	</clipPath>
	
		<clipPath id="SVGID_00000021836313492952069270000001378911116523643051_" style="clip-path:url(#SVGID_00000037651788879602987950000016919693191115042192_);">
		<use xlink:href="#SVGID_00000181052652661419216480000000418701176174186135_"  style="overflow:visible;"/>
	</clipPath>
	<path style="clip-path:url(#SVGID_00000021836313492952069270000001378911116523643051_);" d="M82,67H0v2h82V67z"/>
</g>
<g>
	<path d="M20.1,60.1c-4.1,0-7.6-1-10.5-3s-5.2-4.9-6.8-8.6c-1.6-3.8-2.3-8.3-2.3-13.6c0-5.3,0.8-9.8,2.4-13.5s3.8-6.6,6.8-8.5
		c2.9-2,6.4-2.9,10.5-2.9c4.1,0,7.6,1,10.5,2.9c2.9,2,5.2,4.8,6.8,8.5c1.6,3.7,2.4,8.2,2.3,13.5c0,5.3-0.8,9.9-2.4,13.6
		c-1.6,3.8-3.8,6.7-6.7,8.6C27.7,59.1,24.2,60.1,20.1,60.1z M20.1,51.6c2.8,0,5-1.4,6.7-4.2c1.7-2.8,2.5-7,2.5-12.6
		c0-3.7-0.4-6.7-1.1-9.2c-0.8-2.4-1.8-4.3-3.2-5.5s-3-1.8-4.8-1.8c-2.8,0-5,1.4-6.6,4.1S11,29.3,11,34.9c0,3.7,0.4,6.8,1.1,9.3
		s1.8,4.4,3.2,5.6C16.7,51,18.3,51.6,20.1,51.6z"/>
	<path d="M62.3,59.7c-3.5,0-6.7-0.6-9.4-1.8c-2.8-1.2-4.9-2.9-6.5-5.1c-1.6-2.2-2.4-4.6-2.5-7.5h10.3c0.1,1.2,0.5,2.2,1.2,3.1
		c0.7,0.9,1.7,1.6,2.9,2.1c1.2,0.5,2.6,0.7,4.1,0.7c1.6,0,2.9-0.3,4.1-0.8c1.2-0.6,2.1-1.3,2.8-2.3c0.7-1,1-2.1,1-3.4
		c0-1.3-0.4-2.4-1.1-3.4s-1.7-1.8-3.1-2.4c-1.3-0.6-2.9-0.9-4.8-0.9h-4.5v-7.5h4.5c1.5,0,2.9-0.3,4.1-0.8c1.2-0.5,2.1-1.3,2.8-2.2
		s1-2.1,1-3.4c0-1.2-0.3-2.3-0.9-3.2C67.8,20,67,19.3,66,18.8c-1-0.5-2.2-0.8-3.6-0.8c-1.4,0-2.7,0.2-3.8,0.7
		c-1.2,0.5-2.1,1.2-2.8,2.1s-1.1,2-1.1,3.2h-9.8c0-2.8,0.8-5.3,2.4-7.4c1.5-2.1,3.6-3.8,6.3-5c2.6-1.2,5.6-1.8,8.9-1.8
		c3.3,0,6.3,0.6,8.8,1.8c2.5,1.2,4.5,2.9,5.9,4.9s2.1,4.4,2.1,6.9c0,2.7-0.8,5-2.5,6.8c-1.7,1.8-3.9,3-6.6,3.5v0.4
		c3.6,0.5,6.3,1.7,8.2,3.7s2.8,4.5,2.8,7.5c0,2.8-0.8,5.2-2.4,7.4C77,55,74.8,56.6,72,57.9C69.1,59.1,65.9,59.7,62.3,59.7z"/>
</g>
</svg>
