<?xml version="1.0" encoding="utf-8"?>
<!-- Generator: Adobe Illustrator 27.4.1, SVG Export Plug-In . SVG Version: 6.00 Build 0)  -->
<svg version="1.1" id="Layer_1" xmlns="http://www.w3.org/2000/svg" xmlns:xlink="http://www.w3.org/1999/xlink" x="0px" y="0px"
	 viewBox="0 0 82 68" style="enable-background:new 0 0 82 68;" xml:space="preserve">
<style type="text/css">
	.st0{clip-path:url(#SVGID_00000165940207601711082760000010410002818531433370_);}
	.st1{clip-path:url(#SVGID_00000080884804949258454930000016601965059346496188_);}
</style>
<g>
	<defs>
		<polygon id="SVGID_1_" points="1,1 2,1 1,2 		"/>
	</defs>
	<defs>
		<polygon id="SVGID_00000064312396476279776960000004800035354576461749_" points="-1,-1 -2,-1 -1,-2 		"/>
	</defs>
	<clipPath id="SVGID_00000134213596995696227340000010719956647172219067_">
		<use xlink:href="#SVGID_1_"  style="overflow:visible;"/>
	</clipPath>
	
		<clipPath id="SVGID_00000116927482431170695830000008145010638935535744_" style="clip-path:url(#SVGID_00000134213596995696227340000010719956647172219067_);">
		<use xlink:href="#SVGID_00000064312396476279776960000004800035354576461749_"  style="overflow:visible;"/>
	</clipPath>
	<path style="clip-path:url(#SVGID_00000116927482431170695830000008145010638935535744_);" d="M82,67H0v2h82V67z"/>
</g>
<g>
	<path d="M20,59.1c-4.1,0-7.6-1-10.5-3c-2.9-2-5.2-4.9-6.8-8.6c-1.6-3.8-2.3-8.3-2.3-13.6c0-5.3,0.8-9.8,2.4-13.5
		c1.6-3.7,3.8-6.6,6.8-8.5c2.9-2,6.4-2.9,10.5-2.9c4.1,0,7.6,1,10.5,2.9c2.9,2,5.2,4.8,6.8,8.5c1.6,3.7,2.4,8.2,2.3,13.5
		c0,5.3-0.8,9.9-2.4,13.6c-1.6,3.8-3.8,6.7-6.7,8.6C27.6,58.1,24.1,59.1,20,59.1z M20,50.6c2.8,0,5-1.4,6.7-4.2s2.5-7,2.5-12.6
		c0-3.7-0.4-6.7-1.1-9.2c-0.8-2.4-1.8-4.3-3.2-5.5c-1.4-1.2-3-1.8-4.8-1.8c-2.8,0-5,1.4-6.6,4.1s-2.5,6.9-2.5,12.4
		c0,3.7,0.4,6.8,1.1,9.3c0.8,2.5,1.8,4.4,3.2,5.6C16.6,50,18.2,50.6,20,50.6z"/>
	<path d="M41.5,49.5v-8.1L61.8,9.5h7v11.2h-4.1L51.9,40.9v0.4h28.8v8.2H41.5z M64.8,58.1v-11l0.2-3.6V9.5h9.6v48.5H64.8z"/>
</g>
</svg>
