<?xml version="1.0" encoding="utf-8"?>
<!-- Generator: Adobe Illustrator 27.4.1, SVG Export Plug-In . SVG Version: 6.00 Build 0)  -->
<svg version="1.1" id="Layer_1" xmlns="http://www.w3.org/2000/svg" xmlns:xlink="http://www.w3.org/1999/xlink" x="0px" y="0px"
	 viewBox="0 0 210 128" enable-background="new 0 0 210 128" xml:space="preserve">
<g>
	<g>
		<path fill="#232020" d="M184.88,107.03H18.3V21.84h166.58V107.03z M19.3,106.03h164.58V22.84H19.3V106.03z"/>
	</g>
	<g>
		
			<rect x="30.99" y="28.36" transform="matrix(0.646 -0.7634 0.7634 0.646 -12.3356 34.9297)" fill="#232020" width="1" height="4.81"/>
	</g>
	<g>
		
			<rect x="37.48" y="39.71" transform="matrix(0.5914 -0.8064 0.8064 0.5914 -18.6218 47.933)" fill="#232020" width="1" height="5.25"/>
	</g>
	<g>
		
			<rect x="44.33" y="59.91" transform="matrix(0.9986 -0.0527 0.0527 0.9986 -3.119 2.5625)" fill="#232020" width="5.37" height="1"/>
	</g>
	<g>
		
			<rect x="54.02" y="54.83" transform="matrix(0.8242 -0.5664 0.5664 0.8242 -21.3549 41.8762)" fill="#232020" width="5.48" height="1"/>
	</g>
	<g>
		
			<rect x="52.23" y="99.02" transform="matrix(0.6808 -0.7325 0.7325 0.6808 -55.3626 72.004)" fill="#232020" width="5.39" height="1"/>
	</g>
	<g>
		<path fill="#232020" d="M78.83,84.07L64.85,80.9l11.43-12.71L78.83,84.07z M66.74,80.3l10.87,2.47l-1.98-12.35L66.74,80.3z"/>
	</g>
	<g>
		<path fill="#232020" d="M31.99,107.03h-9.88l9.88-8.61V107.03z M24.78,106.03h6.21v-5.41L24.78,106.03z"/>
	</g>
	<g>
		
			<rect x="118.83" y="89.98" transform="matrix(0.7283 -0.6853 0.6853 0.7283 -28.8207 108.2804)" fill="#232020" width="6.59" height="1"/>
	</g>
	<g>
		
			<rect x="144.78" y="92.74" transform="matrix(0.0587 -0.9983 0.9983 0.0587 41.7742 234.5829)" fill="#232020" width="1" height="4.81"/>
	</g>
	<g>
		<rect x="176.2" y="89.98" fill="#232020" width="5.65" height="1"/>
	</g>
	<g>
		
			<rect x="137.01" y="59.18" transform="matrix(0.679 -0.7341 0.7341 0.679 -2.1272 121.1802)" fill="#232020" width="1" height="7.69"/>
	</g>
	<g>
		
			<rect x="139.41" y="44.06" transform="matrix(0.5767 -0.817 0.817 0.5767 20.8297 134.1987)" fill="#232020" width="1" height="5.88"/>
	</g>
	<g>
		
			<rect x="178.52" y="45.4" transform="matrix(0.5145 -0.8575 0.8575 0.5145 45.1654 177.1534)" fill="#232020" width="1" height="6.59"/>
	</g>
	<g>
		
			<rect x="180.35" y="39.39" transform="matrix(0.1771 -0.9842 0.9842 0.1771 106.527 213.3596)" fill="#232020" width="1" height="7.17"/>
	</g>
	<g>
		
			<rect x="121.83" y="45.37" transform="matrix(0.8755 -0.4832 0.4832 0.8755 -6.707 65.7035)" fill="#232020" width="4.68" height="1"/>
	</g>
	<g>
		
			<rect x="107.23" y="41.86" transform="matrix(0.5642 -0.8257 0.8257 0.5642 10.2715 108.3042)" fill="#232020" width="1" height="5.13"/>
	</g>
	<g>
		<rect x="94.31" y="52.99" fill="#232020" width="4.8" height="1"/>
	</g>
	<g>
		
			<rect x="64.73" y="56.65" transform="matrix(0.4692 -0.8831 0.8831 0.4692 -17.6648 89.0322)" fill="#232020" width="1" height="5.12"/>
	</g>
	<g>
		
			<rect x="61.91" y="58.1" transform="matrix(0.7474 -0.6644 0.6644 0.7474 -24.3401 56.7088)" fill="#232020" width="1" height="4.53"/>
	</g>
	<g>
		
			<rect x="107.55" y="20.44" transform="matrix(0.5935 -0.8048 0.8048 0.5935 23.7086 97.1749)" fill="#232020" width="1" height="9.36"/>
	</g>
	<g>
		
			<rect x="109.35" y="24.62" transform="matrix(0.1181 -0.993 0.993 0.1181 73.9582 133.5126)" fill="#232020" width="5.59" height="1"/>
	</g>
</g>
</svg>
