<svg	viewBox="0 0 144 144" fill="currentColor" xmlns="http://www.w3.org/2000/svg">
								<path
									d="M128.25 81C125.135 81 122.09 80.0763 119.5 78.3457C116.91 76.615 114.891 74.1552 113.699 71.2773C112.507 68.3993 112.195 65.2325 112.803 62.1773C113.41 59.1221 114.91 56.3158 117.113 54.1131C119.316 51.9104 122.122 50.4104 125.177 49.8026C128.233 49.1949 131.399 49.5068 134.277 50.6989C137.155 51.891 139.615 53.9097 141.346 56.4998C143.076 59.0898 144 62.135 144 65.25C144 69.4272 142.341 73.4332 139.387 76.3869C136.433 79.3406 132.427 81 128.25 81V81ZM128.25 54C126.025 54 123.85 54.6598 122 55.896C120.15 57.1321 118.708 58.8891 117.856 60.9448C117.005 63.0005 116.782 65.2625 117.216 67.4448C117.65 69.6271 118.722 71.6316 120.295 73.205C121.868 74.7783 123.873 75.8498 126.055 76.2838C128.238 76.7179 130.5 76.4951 132.555 75.6437C134.611 74.7922 136.368 73.3502 137.604 71.5002C138.84 69.6501 139.5 67.475 139.5 65.25C139.5 62.2663 138.315 59.4048 136.205 57.2951C134.095 55.1853 131.234 54 128.25 54V54Z"
									fill="inherit"
								/>
								<path
									d="M128.25 72C126.915 72 125.61 71.6041 124.5 70.8624C123.39 70.1207 122.525 69.0665 122.014 67.8331C121.503 66.5997 121.369 65.2425 121.63 63.9331C121.89 62.6238 122.533 61.421 123.477 60.477C124.421 59.533 125.624 58.8902 126.933 58.6297C128.243 58.3693 129.6 58.5029 130.833 59.0138C132.067 59.5247 133.121 60.3899 133.862 61.4999C134.604 62.6099 135 63.915 135 65.25C135 67.0402 134.289 68.7571 133.023 70.023C131.757 71.2888 130.04 72 128.25 72ZM128.25 63C127.805 63 127.37 63.132 127 63.3792C126.63 63.6264 126.342 63.9778 126.171 64.389C126.001 64.8001 125.956 65.2525 126.043 65.689C126.13 66.1254 126.344 66.5263 126.659 66.841C126.974 67.1557 127.375 67.37 127.811 67.4568C128.248 67.5436 128.7 67.499 129.111 67.3287C129.522 67.1584 129.874 66.87 130.121 66.5C130.368 66.13 130.5 65.695 130.5 65.25C130.5 64.6533 130.263 64.081 129.841 63.659C129.419 63.2371 128.847 63 128.25 63Z"
									fill="inherit"
								/>
								<path d="M130.5 78.75H126V110.25H130.5V78.75Z" fill="inherit" />
								<path
									d="M15.75 81C12.635 81 9.58985 80.0763 6.99978 78.3457C4.4097 76.615 2.39098 74.1552 1.1989 71.2773C0.00682434 68.3993 -0.305078 65.2325 0.302639 62.1773C0.910356 59.1221 2.4104 56.3158 4.61307 54.1131C6.81575 51.9104 9.62213 50.4104 12.6773 49.8026C15.7325 49.1949 18.8993 49.5068 21.7773 50.6989C24.6552 51.891 27.115 53.9097 28.8457 56.4998C30.5763 59.0898 31.5 62.135 31.5 65.25C31.5 69.4272 29.8406 73.4332 26.8869 76.3869C23.9332 79.3406 19.9272 81 15.75 81V81ZM15.75 54C13.525 54 11.3499 54.6598 9.49984 55.896C7.64979 57.1321 6.20785 58.8891 5.35636 60.9448C4.50488 63.0005 4.28209 65.2625 4.71617 67.4448C5.15026 69.6271 6.22171 71.6316 7.79506 73.205C9.3684 74.7783 11.373 75.8498 13.5552 76.2838C15.7375 76.7179 17.9995 76.4951 20.0552 75.6437C22.1109 74.7922 23.8679 73.3502 25.104 71.5002C26.3402 69.6501 27 67.475 27 65.25C27 63.7726 26.709 62.3097 26.1437 60.9448C25.5783 59.5799 24.7496 58.3397 23.705 57.2951C22.6603 56.2504 21.4201 55.4217 20.0552 54.8564C18.6903 54.291 17.2274 54 15.75 54V54Z"
									fill="inherit"
								/>
								<path
									d="M15.75 72C14.415 72 13.1099 71.6041 11.9999 70.8624C10.8899 70.1207 10.0247 69.0665 9.51382 67.8331C9.00292 66.5997 8.86925 65.2425 9.1297 63.9331C9.39015 62.6238 10.033 61.421 10.977 60.477C11.921 59.533 13.1238 58.8902 14.4331 58.6297C15.7425 58.3693 17.0997 58.5029 18.3331 59.0138C19.5665 59.5247 20.6207 60.3899 21.3624 61.4999C22.1041 62.6099 22.5 63.915 22.5 65.25C22.5 67.0402 21.7888 68.7571 20.523 70.023C19.2571 71.2888 17.5402 72 15.75 72ZM15.75 63C15.305 63 14.87 63.132 14.5 63.3792C14.13 63.6264 13.8416 63.9778 13.6713 64.389C13.501 64.8001 13.4564 65.2525 13.5432 65.689C13.6301 66.1254 13.8443 66.5263 14.159 66.841C14.4737 67.1557 14.8746 67.37 15.311 67.4568C15.7475 67.5436 16.1999 67.499 16.611 67.3287C17.0222 67.1584 17.3736 66.87 17.6208 66.5C17.868 66.13 18 65.695 18 65.25C18 64.6533 17.7629 64.081 17.341 63.659C16.919 63.2371 16.3467 63 15.75 63Z"
									fill="inherit"
								/>
								<path d="M18 78.75H13.5V110.25H18V78.75Z" fill="inherit" />
								<path
									d="M101.25 99H42.75V67.5H65.25V72H47.25V94.5H96.75V72H78.75V67.5H101.25V99Z"
									fill="inherit"
								/>
								<path d="M65.25 81H60.75V85.5H65.25V81Z" fill="inherit" />
								<path d="M74.25 81H69.75V85.5H74.25V81Z" fill="inherit" />
								<path d="M83.25 81H78.75V85.5H83.25V81Z" fill="inherit" />
								<path
									d="M72 144C68.885 144 65.8398 143.076 63.2498 141.346C60.6597 139.615 58.641 137.155 57.4489 134.277C56.2568 131.399 55.9449 128.233 56.5526 125.177C57.1604 122.122 58.6604 119.316 60.8631 117.113C63.0658 114.91 65.8721 113.41 68.9273 112.803C71.9825 112.195 75.1493 112.507 78.0273 113.699C80.9052 114.891 83.365 116.91 85.0957 119.5C86.8263 122.09 87.75 125.135 87.75 128.25C87.75 132.427 86.0906 136.433 83.1369 139.387C80.1832 142.341 76.1772 144 72 144ZM72 117C69.775 117 67.5999 117.66 65.7498 118.896C63.8998 120.132 62.4578 121.889 61.6064 123.945C60.7549 126 60.5321 128.262 60.9662 130.445C61.4003 132.627 62.4717 134.632 64.0451 136.205C65.6184 137.778 67.623 138.85 69.8052 139.284C71.9875 139.718 74.2495 139.495 76.3052 138.644C78.3609 137.792 80.1179 136.35 81.354 134.5C82.5902 132.65 83.25 130.475 83.25 128.25C83.25 125.266 82.0647 122.405 79.955 120.295C77.8452 118.185 74.9837 117 72 117Z"
									fill="inherit"
								/>
								<path
									d="M72 137.25C70.22 137.25 68.4799 136.722 66.9999 135.733C65.5198 134.744 64.3663 133.339 63.6851 131.694C63.0039 130.05 62.8257 128.24 63.1729 126.494C63.5202 124.748 64.3774 123.145 65.636 121.886C66.8947 120.627 68.4984 119.77 70.2442 119.423C71.99 119.076 73.7996 119.254 75.4442 119.935C77.0887 120.616 78.4943 121.77 79.4832 123.25C80.4722 124.73 81 126.47 81 128.25C81 130.637 80.0518 132.926 78.364 134.614C76.6761 136.302 74.387 137.25 72 137.25V137.25ZM72 123.75C71.11 123.75 70.24 124.014 69.4999 124.508C68.7599 125.003 68.1831 125.706 67.8425 126.528C67.502 127.35 67.4128 128.255 67.5865 129.128C67.7601 130.001 68.1887 130.803 68.818 131.432C69.4474 132.061 70.2492 132.49 71.1221 132.664C71.995 132.837 72.8998 132.748 73.7221 132.407C74.5443 132.067 75.2472 131.49 75.7416 130.75C76.2361 130.01 76.5 129.14 76.5 128.25C76.5 127.057 76.0259 125.912 75.182 125.068C74.3381 124.224 73.1935 123.75 72 123.75Z"
									fill="inherit"
								/>
								<path d="M74.25 99H69.75V114.75H74.25V99Z" fill="inherit" />
								<path
									d="M49.5 144H0V108H49.5V144ZM4.5 139.5H45V112.5H4.5V139.5Z"
									fill="inherit"
								/>
								<path
									d="M40.5 135H9V117H40.5V135ZM13.5 130.5H36V121.5H13.5V130.5Z"
									fill="inherit"
								/>
								<path d="M27 92.25H22.5V108H27V92.25Z" fill="inherit" />
								<path d="M42.75 90H22.5V94.5H42.75V90Z" fill="inherit" />
								<path d="M22.5 123.75H18V128.25H22.5V123.75Z" fill="inherit" />
								<path d="M31.5 123.75H27V128.25H31.5V123.75Z" fill="inherit" />
								<path d="M121.5 92.25H117V108H121.5V92.25Z" fill="inherit" />
								<path d="M121.5 90H101.25V94.5H121.5V90Z" fill="inherit" />
								<path
									d="M144 144H94.5V108H144V144ZM99 139.5H139.5V112.5H99V139.5Z"
									fill="inherit"
								/>
								<path
									d="M135 135H103.5V117H135V135ZM108 130.5H130.5V121.5H108V130.5Z"
									fill="inherit"
								/>
								<path d="M117 123.75H112.5V128.25H117V123.75Z" fill="inherit" />
								<path d="M126 123.75H121.5V128.25H126V123.75Z" fill="inherit" />
								<path
									d="M72 63C68.885 63 65.8398 62.0763 63.2498 60.3457C60.6597 58.615 58.641 56.1552 57.4489 53.2773C56.2568 50.3993 55.9449 47.2325 56.5526 44.1773C57.1604 41.1221 58.6604 38.3158 60.8631 36.1131C63.0658 33.9104 65.8721 32.4104 68.9273 31.8026C71.9825 31.1949 75.1493 31.5068 78.0273 32.6989C80.9052 33.891 83.365 35.9097 85.0957 38.4998C86.8263 41.0898 87.75 44.135 87.75 47.25C87.75 51.4272 86.0906 55.4332 83.1369 58.3869C80.1832 61.3406 76.1772 63 72 63V63ZM72 36C69.775 36 67.5999 36.6598 65.7498 37.896C63.8998 39.1321 62.4578 40.8891 61.6064 42.9448C60.7549 45.0005 60.5321 47.2625 60.9662 49.4448C61.4003 51.6271 62.4717 53.6316 64.0451 55.205C65.6184 56.7783 67.623 57.8498 69.8052 58.2838C71.9875 58.7179 74.2495 58.4951 76.3052 57.6437C78.3609 56.7922 80.1179 55.3502 81.354 53.5002C82.5902 51.6501 83.25 49.475 83.25 47.25C83.25 44.2663 82.0647 41.4048 79.955 39.2951C77.8452 37.1853 74.9837 36 72 36Z"
									fill="inherit"
								/>
								<path
									d="M72 54C70.665 54 69.3599 53.6041 68.2499 52.8624C67.1399 52.1207 66.2747 51.0665 65.7638 49.8331C65.2529 48.5997 65.1193 47.2425 65.3797 45.9331C65.6402 44.6238 66.283 43.421 67.227 42.477C68.171 41.533 69.3738 40.8902 70.6831 40.6297C71.9925 40.3693 73.3497 40.5029 74.5831 41.0138C75.8165 41.5247 76.8707 42.3899 77.6124 43.4999C78.3541 44.6099 78.75 45.915 78.75 47.25C78.75 49.0402 78.0388 50.7571 76.773 52.023C75.5071 53.2888 73.7902 54 72 54ZM72 45C71.555 45 71.12 45.132 70.75 45.3792C70.38 45.6264 70.0916 45.9778 69.9213 46.389C69.751 46.8001 69.7064 47.2525 69.7932 47.689C69.8801 48.1254 70.0943 48.5263 70.409 48.841C70.7237 49.1557 71.1246 49.37 71.561 49.4568C71.9975 49.5436 72.4499 49.499 72.861 49.3287C73.2722 49.1584 73.6236 48.87 73.8708 48.5C74.118 48.13 74.25 47.695 74.25 47.25C74.25 46.6533 74.013 46.081 73.591 45.659C73.169 45.2371 72.5967 45 72 45Z"
									fill="inherit"
								/>
								<path d="M74.25 58.5H69.75V72H74.25V58.5Z" fill="inherit" />
								<path
									d="M54 36H18V0H54V36ZM22.5 31.5H49.5V4.5H22.5V31.5Z"
									fill="inherit"
								/>
								<path
									d="M45 27H27V9H45V27ZM31.5 22.5H40.5V13.5H31.5V22.5Z"
									fill="inherit"
								/>
								<path
									d="M45 76.5H33.75V33.75H38.25V72H45V76.5Z"
									fill="inherit"
								/>
								<path
									d="M38.25 15.75H33.75V20.25H38.25V15.75Z"
									fill="inherit"
								/>
								<path
									d="M126 36H90V0H126V36ZM94.5 31.5H121.5V4.5H94.5V31.5Z"
									fill="inherit"
								/>
								<path
									d="M117 27H99V9H117V27ZM103.5 22.5H112.5V13.5H103.5V22.5Z"
									fill="inherit"
								/>
								<path
									d="M110.25 76.5H99V72H105.75V36H110.25V76.5Z"
									fill="inherit"
								/>
								<path
									d="M110.25 15.75H105.75V20.25H110.25V15.75Z"
									fill="inherit"
								/>
							</svg>