<svg
								
								viewBox="0 0 173 173"
								fill="currentColor"
								xmlns="http://www.w3.org/2000/svg"
							>
								<g clip-path="url(#clip0_267_4407)">
									<path
										d="M27.0895 78.3096H0.0810547V83.878H27.0895V78.3096Z"
										fill="inherit"
									/>
									<path
										d="M16.3835 75.6875H10.8142V56.8737H5.56931V75.6875H0V51.3053H16.3835V75.6875Z"
										fill="inherit"
									/>
									<path
										d="M27.1706 75.6876H21.6013V29.7074H37.9848V40.601H32.4155V35.2758H27.1706V75.6876Z"
										fill="inherit"
									/>
									<path
										d="M59.5861 37.8979H54.0168V21.7872H48.799V37.8979H43.2026V16.1918H59.5861V37.8979Z"
										fill="inherit"
									/>
									<path
										d="M81.1875 37.8978H75.6182V5.56844H70.4004V37.8978H64.8311V0H81.1875V37.8978Z"
										fill="inherit"
									/>
									<path
										d="M172.946 167.432H78.1865V173H172.946V167.432Z"
										fill="inherit"
									/>
									<path
										d="M167.485 165.215L161.564 125.722L154.832 154.835L146.154 134.589L135.177 164.756L126.85 142.59L119.47 159.836L113.657 151.132L105.979 163.918L100.464 158.376L96.9221 163.647L92.2991 160.566L99.5987 149.645L104.871 154.916L113.387 140.698L118.388 148.185L127.202 127.642L135.096 148.672L145.721 119.424L153.237 136.967L162.726 95.8799L173 164.404L167.485 165.215Z"
										fill="inherit"
									/>
									<path
										d="M141.801 84.0131L139.908 78.7691C146.248 76.5044 151.868 72.5903 156.19 67.4303C160.513 62.2703 163.38 56.051 164.498 49.4138C165.615 42.7765 164.942 35.9613 162.547 29.6709C160.153 23.3804 156.124 17.8422 150.876 13.6273C145.627 9.41239 139.35 6.67323 132.69 5.69222C126.03 4.7112 119.229 5.52382 112.988 8.04631C106.747 10.5688 101.292 14.7099 97.1844 20.0426C93.0773 25.3754 90.4669 31.7069 89.6224 38.3844L84.2153 37.6545C85.2241 30.0467 88.2393 22.8442 92.9515 16.7863C97.6638 10.7284 103.903 6.03324 111.03 3.18269C118.156 0.332137 125.913 -0.571139 133.504 0.565565C141.095 1.70227 148.247 4.83801 154.225 9.65097C160.204 14.4639 164.794 20.7808 167.524 27.9532C170.255 35.1256 171.027 42.8952 169.762 50.4648C168.498 58.0343 165.241 65.131 160.328 71.0266C155.414 76.9222 149.019 81.4044 141.801 84.0131Z"
										fill="inherit"
									/>
									<path
										d="M144.505 50.7647L139.368 48.6562C140.234 46.9202 140.716 45.018 140.782 43.079C140.847 41.14 140.494 39.2096 139.747 37.4191C139 35.6285 137.876 34.0198 136.452 32.7022C135.028 31.3846 133.336 30.389 131.493 29.7832C129.65 29.1773 127.697 28.9753 125.769 29.191C123.841 29.4067 121.981 30.0349 120.317 31.033C118.653 32.0311 117.224 33.3757 116.126 34.9753C115.028 36.575 114.287 38.3923 113.954 40.3036L108.547 39.0331C109.308 36.6538 110.532 34.4485 112.149 32.5445C113.766 30.6405 115.744 29.0755 117.969 27.9397C120.194 26.804 122.622 26.1199 125.113 25.9271C127.604 25.7342 130.108 26.0364 132.482 26.8161C134.855 27.5958 137.051 28.8377 138.942 30.47C140.833 32.1024 142.382 34.093 143.499 36.3269C144.617 38.5608 145.281 40.9939 145.454 43.4859C145.626 45.9778 145.304 48.4792 144.505 50.8458V50.7647Z"
										fill="inherit"
									/>
									<path
										d="M118.351 3.85148L113.005 5.41064L119.81 28.7397L125.157 27.1805L118.351 3.85148Z"
										fill="inherit"
									/>
									<path
										d="M91.141 29.1374L89.8276 34.5488L110.531 39.572L111.844 34.1606L91.141 29.1374Z"
										fill="inherit"
									/>
									<path
										d="M144.222 61.9788L139.736 65.2793L148.806 77.6018L153.291 74.3013L144.222 61.9788Z"
										fill="inherit"
									/>
									<path
										d="M162.078 22.7979L140.304 33.5955L142.779 38.584L164.553 27.7865L162.078 22.7979Z"
										fill="inherit"
									/>
									<path
										d="M127.751 0.771419L116.286 10.8634L119.967 15.0429L131.432 4.95094L127.751 0.771419Z"
										fill="inherit"
									/>
									<path
										d="M138.352 4.17318L118.283 21.8386L121.964 26.0181L142.032 8.3527L138.352 4.17318Z"
										fill="inherit"
									/>
									<path
										d="M148.966 7.52865L128.897 25.1941L132.577 29.3736L152.646 11.7082L148.966 7.52865Z"
										fill="inherit"
									/>
									<path
										d="M156.69 13.4388L136.621 31.1042L140.301 35.2838L160.37 17.6183L156.69 13.4388Z"
										fill="inherit"
									/>
									<path
										d="M29.7389 173C24.5079 173 19.3695 171.62 14.8423 168.999L12.4902 167.594L28.7115 139.4L56.9095 155.619L55.5037 158.025C52.9064 162.566 49.1566 166.343 44.6328 168.972C40.109 171.601 34.9715 172.991 29.7389 173ZM20.1953 165.431C25.2046 167.566 30.7854 167.96 36.0447 166.548C41.3039 165.137 45.9377 162.002 49.2044 157.646L30.8203 147.023L20.1953 165.431Z"
										fill="inherit"
									/>
									<path
										d="M53.1787 159.484C52.6934 159.484 52.2172 159.353 51.7998 159.106L28.4142 145.59C27.8308 145.33 27.3582 144.872 27.0803 144.298C26.8023 143.723 26.7369 143.068 26.8956 142.449C27.0543 141.831 27.4269 141.288 27.9473 140.918C28.4678 140.548 29.1024 140.374 29.7389 140.427H56.7744C57.4914 140.427 58.1791 140.712 58.6861 141.219C59.1931 141.726 59.4779 142.414 59.4779 143.13C59.4775 148.361 58.0973 153.498 55.4767 158.025C55.257 158.449 54.9286 158.808 54.5248 159.065C54.1211 159.321 53.6566 159.466 53.1787 159.484ZM40.2016 145.969L52.0161 152.781C52.9567 150.611 53.5761 148.317 53.8545 145.969H40.2016Z"
										fill="inherit"
									/>
									<path
										d="M59.4779 145.969H28.1978L12.4902 118.938L14.8964 117.532C18.5375 115.358 22.6038 113.994 26.819 113.531L27.3868 119.073C24.9055 119.324 22.4789 119.962 20.1953 120.965L31.4151 140.4H53.8545C53.46 137.122 52.4022 133.958 50.7454 131.102L55.5848 128.398C58.1631 132.927 59.5056 138.054 59.4779 143.266V145.969Z"
										fill="inherit"
									/>
									<path
										d="M17.3296 170.297L14.9234 168.891C10.3851 166.287 6.61449 162.531 3.99238 158.003C1.37027 153.475 -0.010498 148.336 -0.010498 143.103C-0.010498 137.871 1.37027 132.732 3.99238 128.204C6.61449 123.676 10.3851 119.92 14.9234 117.316L17.3296 115.91L33.0102 143.266L17.3296 170.297ZM15.356 123.803C12.3251 126.054 9.86295 128.983 8.1666 132.355C6.47026 135.728 5.58676 139.45 5.58676 143.225C5.58676 147 6.47026 150.723 8.1666 154.095C9.86295 157.467 12.3251 160.396 15.356 162.647L26.5757 143.266L15.356 123.803Z"
										fill="inherit"
									/>
									<path
										d="M21.6824 126.912H8.19165V132.48H21.6824V126.912Z"
										fill="inherit"
									/>
									<path
										d="M27.0896 135.021H2.78467V140.59H27.0896V135.021Z"
										fill="inherit"
									/>
									<path
										d="M29.7931 143.13H2.78467V148.699H29.7931V143.13Z"
										fill="inherit"
									/>
									<path
										d="M24.3861 151.213H5.48828V156.781H24.3861V151.213Z"
										fill="inherit"
									/>
									<path
										d="M137.908 43.3041H132.339V124.317H137.908V43.3041Z"
										fill="inherit"
									/>
									<path
										d="M35.2812 43.3041H29.7119V124.317H35.2812V43.3041Z"
										fill="inherit"
									/>
									<path
										d="M43.3107 45.899H37.9036V51.4675H43.3107V45.899Z"
										fill="inherit"
									/>
									<path
										d="M51.4215 45.899H46.0144V51.4675H51.4215V45.899Z"
										fill="inherit"
									/>
									<path
										d="M59.505 45.899H54.0979V51.4675H59.505V45.899Z"
										fill="inherit"
									/>
									<path
										d="M129.743 45.899H64.9121V51.4675H129.743V45.899Z"
										fill="inherit"
									/>
									<path
										d="M129.743 54.0084H37.9036V59.5769H129.743V54.0084Z"
										fill="inherit"
									/>
									<path
										d="M64.8851 81.0938H37.8496V64.875H64.8851V81.0938ZM43.2567 75.6875H59.478V70.2812H43.2567V75.6875Z"
										fill="inherit"
									/>
									<path
										d="M97.3277 81.0938H70.2922V64.875H97.3277V81.0938ZM75.6993 75.6875H91.9206V70.2812H75.6993V75.6875Z"
										fill="inherit"
									/>
									<path
										d="M129.77 81.0938H102.735V64.875H129.77V81.0938ZM108.142 75.6875H124.363V70.2812H108.142V75.6875Z"
										fill="inherit"
									/>
									<path
										d="M64.912 83.7158H37.9036V89.2843H64.912V83.7158Z"
										fill="inherit"
									/>
									<path
										d="M64.912 91.8252H37.9036V97.3936H64.912V91.8252Z"
										fill="inherit"
									/>
									<path
										d="M64.912 99.9076H37.9036V105.476H64.912V99.9076Z"
										fill="inherit"
									/>
									<path
										d="M64.912 108.017H37.9036V113.585H64.912V108.017Z"
										fill="inherit"
									/>
									<path
										d="M97.3278 83.7158H70.3193V89.2843H97.3278V83.7158Z"
										fill="inherit"
									/>
									<path
										d="M97.3278 91.8252H70.3193V97.3936H97.3278V91.8252Z"
										fill="inherit"
									/>
									<path
										d="M97.3278 99.9076H70.3193V105.476H97.3278V99.9076Z"
										fill="inherit"
									/>
									<path
										d="M97.3278 108.017H70.3193V113.585H97.3278V108.017Z"
										fill="inherit"
									/>
									<path
										d="M129.716 83.7158H102.708V89.2843H129.716V83.7158Z"
										fill="inherit"
									/>
									<path
										d="M129.716 91.8252H102.708V97.3936H129.716V91.8252Z"
										fill="inherit"
									/>
									<path
										d="M129.716 99.9076H102.708V105.476H129.716V99.9076Z"
										fill="inherit"
									/>
									<path
										d="M129.716 108.017H102.708V113.585H129.716V108.017Z"
										fill="inherit"
									/>
									<path
										d="M64.912 116.126H37.9036V121.695H64.912V116.126Z"
										fill="inherit"
									/>
									<path
										d="M97.3275 116.126H70.3191V121.695H97.3275V116.126Z"
										fill="inherit"
									/>
									<path
										d="M129.716 116.126H102.708V121.695H129.716V116.126Z"
										fill="inherit"
									/>
								</g>
								<defs>
									<clipPath id="clip0_267_4407">
										<rect width="173" height="173" fill="white" />
									</clipPath>
								</defs>
							</svg>