<svg viewBox="0 0 156 156"
								fill="currentColor"
								xmlns="http://www.w3.org/2000/svg"
							>
								<g clip-path="url(#clip0_267_4391)">
									<path
										d="M156 156H0V0H156V156ZM5.02125 150.979H150.979V5.02125H5.02125V150.979Z"
										fill="inherit"
									/>
									<path
										d="M15.0881 10.0669H10.0669V15.0881H15.0881V10.0669Z"
										fill="inherit"
									/>
									<path
										d="M25.155 10.0669H20.1338V15.0881H25.155V10.0669Z"
										fill="inherit"
									/>
									<path
										d="M35.2219 10.0669H30.2007V15.0881H35.2219V10.0669Z"
										fill="inherit"
									/>
									<path
										d="M153.49 20.1338H2.51074V25.155H153.49V20.1338Z"
										fill="inherit"
									/>
									<path
										d="M145.933 145.933H10.0669V30.2007H145.933V145.933ZM15.0881 140.912H140.912V35.2219H15.0881V140.912Z"
										fill="inherit"
									/>
									<path
										d="M109.986 56.0959L106.436 59.6465L124.051 77.2614L127.601 73.7108L109.986 56.0959Z"
										fill="inherit"
									/>
									<path
										d="M124.033 56.0787L106.418 73.6936L109.969 77.2442L127.584 59.6292L124.033 56.0787Z"
										fill="inherit"
									/>
									<path
										d="M25.1306 133.746L20.2556 132.99C20.2556 132.307 31.4437 65.4468 100.693 65.4468V70.4437C35.6119 70.4437 25.2281 133.112 25.1306 133.746Z"
										fill="inherit"
									/>
									<path
										d="M92.3568 79.7794L88.7981 76.2207L97.0856 67.9332L88.7981 59.6457L92.3568 56.0869L104.203 67.9332L92.3568 79.7794Z"
										fill="inherit"
									/>
									<path
										d="M42.7781 60.3769C40.787 60.3769 38.8407 59.7865 37.1852 58.6803C35.5297 57.5742 34.2394 56.0019 33.4775 54.1625C32.7155 52.323 32.5162 50.2989 32.9046 48.3461C33.2931 46.3933 34.2518 44.5996 35.6597 43.1917C37.0676 41.7838 38.8613 40.825 40.8141 40.4366C42.7669 40.0482 44.791 40.2475 46.6305 41.0095C48.47 41.7714 50.0422 43.0617 51.1484 44.7172C52.2545 46.3727 52.8449 48.319 52.8449 50.31C52.8449 52.9799 51.7843 55.5405 49.8964 57.4284C48.0085 59.3163 45.448 60.3769 42.7781 60.3769ZM42.7781 45.2888C41.7849 45.2888 40.8141 45.5833 39.9884 46.135C39.1627 46.6868 38.5191 47.471 38.139 48.3885C37.759 49.306 37.6595 50.3156 37.8533 51.2896C38.047 52.2637 38.5253 53.1584 39.2275 53.8606C39.9297 54.5628 40.8244 55.0411 41.7985 55.2348C42.7725 55.4286 43.7821 55.3291 44.6996 54.9491C45.6171 54.569 46.4013 53.9254 46.9531 53.0997C47.5048 52.274 47.7993 51.3032 47.7993 50.31C47.7929 48.9803 47.2618 47.7068 46.3215 46.7666C45.3813 45.8263 44.1078 45.2952 42.7781 45.2888Z"
										fill="inherit"
									/>
									<path
										d="M103.155 113.222C101.164 113.222 99.2176 112.631 97.5622 111.525C95.9067 110.419 94.6164 108.847 93.8544 107.007C93.0925 105.168 92.8931 103.144 93.2816 101.191C93.67 99.2383 94.6288 97.4445 96.0367 96.0367C97.4445 94.6288 99.2383 93.67 101.191 93.2816C103.144 92.8931 105.168 93.0925 107.007 93.8544C108.847 94.6164 110.419 95.9067 111.525 97.5622C112.631 99.2176 113.222 101.164 113.222 103.155C113.222 105.825 112.161 108.385 110.273 110.273C108.385 112.161 105.825 113.222 103.155 113.222ZM103.155 98.1338C102.162 98.1338 101.191 98.4283 100.365 98.98C99.5396 99.5317 98.896 100.316 98.516 101.233C98.1359 102.151 98.0365 103.161 98.2302 104.135C98.424 105.109 98.9022 106.003 99.6045 106.706C100.307 107.408 101.201 107.886 102.175 108.08C103.149 108.274 104.159 108.174 105.077 107.794C105.994 107.414 106.778 106.77 107.33 105.945C107.882 105.119 108.176 104.148 108.176 103.155C108.17 101.825 107.639 100.552 106.698 99.6115C105.758 98.6713 104.485 98.1402 103.155 98.1338Z"
										fill="inherit"
									/>
									<path
										d="M60.3769 135.866C58.3859 135.866 56.4396 135.276 54.7841 134.17C53.1286 133.063 51.8383 131.491 51.0764 129.652C50.3144 127.812 50.1151 125.788 50.5035 123.835C50.8919 121.883 51.8507 120.089 53.2586 118.681C54.6665 117.273 56.4602 116.314 58.413 115.926C60.3658 115.537 62.3899 115.737 64.2294 116.499C66.0688 117.261 67.6411 118.551 68.7472 120.206C69.8534 121.862 70.4438 123.808 70.4438 125.799C70.4438 128.469 69.3832 131.03 67.4953 132.918C65.6074 134.806 63.0468 135.866 60.3769 135.866ZM60.3769 120.778C59.3838 120.778 58.413 121.073 57.5873 121.624C56.7615 122.176 56.118 122.96 55.7379 123.878C55.3579 124.795 55.2584 125.805 55.4522 126.779C55.6459 127.753 56.1241 128.648 56.8264 129.35C57.5286 130.052 58.4233 130.53 59.3973 130.724C60.3714 130.918 61.381 130.818 62.2985 130.438C63.216 130.058 64.0002 129.415 64.552 128.589C65.1037 127.763 65.3982 126.792 65.3982 125.799C65.3918 124.47 64.8607 123.196 63.9204 122.256C62.9801 121.316 61.7067 120.784 60.3769 120.778Z"
										fill="inherit"
									/>
								</g>
								<defs>
									<clipPath id="clip0_267_4391">
										<rect width="156" height="156" fill="white" />
									</clipPath>
								</defs>
							</svg>