<?xml version="1.0" encoding="utf-8"?>
<!-- Generator: Adobe Illustrator 27.1.1, SVG Export Plug-In . SVG Version: 6.00 Build 0)  -->
<svg version="1.1" id="Layer_1" xmlns="http://www.w3.org/2000/svg" xmlns:xlink="http://www.w3.org/1999/xlink" x="0px" y="0px"
	 viewBox="0 0 31.9 32" style="enable-background:new 0 0 31.9 32;" xml:space="preserve">
<style type="text/css">
	.st0{fill:#000;}
</style>
<g id="Group_671" transform="translate(-426 -1269)">
	<path id="Union_49" class="st0" d="M448.1,1301H426v-31.9h28.1c0.1,0,0.1,0,0.2,0c0.1,0,0.2,0,0.3,0h3.3v31.9H448.1z M457,1300.1
		v-8.9h-8.9v8.9H457z M447.1,1300.1v-8.9h-9.6v8.9H447.1z M431.1,1291.7c-2.5,1.1-4.2,3.5-4.2,6.3v2.1h9.6v-8.9h-2.8
		c-0.1,0-0.2,0-0.4,0c-0.3,0.1-0.5,0.4-0.6,0.7c-0.2,0.5-0.3,1.1-0.4,1.6c-0.1,0.8-0.1,1.6,0,2.4l0.1,0.5h-3.9
		c-0.3,0-0.5-0.2-0.5-0.5c0-0.3,0.2-0.5,0.5-0.5l0,0h2.9c0-0.7,0-1.4,0-2c0-0.7,0.2-1.3,0.5-1.9l0,0
		C431.7,1291.4,431.4,1291.5,431.1,1291.7z M426.9,1294.2c1.3-2.3,3.6-3.8,6.2-4c0.1,0,0.2-0.1,0.2-0.1c0.1,0,0.2,0,0.3,0h2.8v-2.8
		c0-4.3,3.5-7.8,7.8-7.8h2.8v-2.8c0-2.8,1.6-5.5,4-6.8h-24.2V1294.2z M457,1290.2v-9.6h-8.9v9.6H457z M441.7,1281.1
		c-2.5,1.1-4.2,3.5-4.2,6.3v2.8h9.6v-9.6h-2.8c0,0-0.1,0-0.1,0.1c-0.4,0.1-0.7,0.4-0.8,0.7c-0.2,0.5-0.3,1.1-0.4,1.6
		c-0.1,0.8-0.1,1.6,0,2.4l0.1,0.5h-3.9c-0.3,0-0.5-0.2-0.5-0.5c0-0.3,0.2-0.5,0.5-0.5h2.9c0-0.7,0-1.4,0-2c0-0.7,0.2-1.3,0.5-1.9
		c0-0.1,0.1-0.1,0.1-0.2C442.3,1280.9,442,1281,441.7,1281.1z M457,1279.6v-9.6h-2.1c-0.2,0-0.5,0-0.7,0c-0.2,0.2-0.4,0.4-0.5,0.6
		c-0.2,0.5-0.3,1.1-0.4,1.6c-0.1,0.8-0.1,1.6,0,2.4l0.1,0.5h-3.9c-0.3,0-0.5-0.2-0.5-0.5c0-0.3,0.2-0.5,0.5-0.5h2.9c0-0.7,0-1.4,0-2
		c0-0.6,0.2-1.3,0.4-1.9c-0.2,0.1-0.4,0.1-0.6,0.2c-2.5,1.1-4.2,3.5-4.2,6.3v2.8L457,1279.6L457,1279.6z M429.3,1289.1
		c-0.2-0.2-0.4-0.5-0.6-0.8c-0.3-0.6-0.5-0.8-0.8-0.8c-0.3,0-0.5-0.2-0.5-0.5c0-0.3,0.2-0.5,0.5-0.5c0.4,0,0.8,0.2,1.1,0.5
		c0.2,0.2,0.4,0.5,0.6,0.8c0.3,0.6,0.5,0.8,0.8,0.8c0.3,0,0.5-0.2,0.8-0.8c0.2-0.3,0.3-0.6,0.6-0.8c0.3-0.3,0.7-0.5,1.1-0.5l0,0
		c0.4,0,0.8,0.2,1.1,0.5c0.2,0.2,0.4,0.5,0.6,0.8c0.1,0.2,0.2,0.4,0.4,0.6c0.2,0.2,0.1,0.5-0.1,0.7c-0.2,0.1-0.5,0.1-0.6-0.1
		c-0.2-0.2-0.3-0.4-0.5-0.7c-0.3-0.6-0.5-0.8-0.8-0.8l0,0c-0.3,0-0.5,0.2-0.8,0.8c-0.2,0.3-0.3,0.6-0.6,0.8
		C430.9,1289.7,429.9,1289.7,429.3,1289.1C429.3,1289.1,429.3,1289.1,429.3,1289.1L429.3,1289.1z M429.3,1286.5
		c-0.2-0.2-0.4-0.5-0.6-0.8c-0.3-0.6-0.5-0.8-0.8-0.8c-0.3,0-0.5-0.2-0.5-0.5c0-0.3,0.2-0.5,0.5-0.5c0,0,0,0,0,0
		c0.4,0,0.8,0.2,1.1,0.5c0.2,0.2,0.4,0.5,0.6,0.8c0.3,0.6,0.5,0.8,0.8,0.8c0.3,0,0.5-0.2,0.8-0.8c0.2-0.3,0.3-0.6,0.6-0.8
		c0.3-0.3,0.7-0.5,1.1-0.5l0,0c0.4,0,0.8,0.2,1.1,0.5c0.2,0.2,0.4,0.5,0.6,0.8c0.1,0.3,0.4,0.6,0.6,0.8c0.2,0.1,0.3,0.4,0.2,0.6
		c-0.1,0.2-0.4,0.3-0.6,0.2c0,0,0,0,0,0c-0.4-0.3-0.7-0.7-0.9-1.1c-0.3-0.6-0.5-0.8-0.8-0.8l0,0c-0.3,0-0.5,0.2-0.8,0.8
		c-0.2,0.3-0.3,0.6-0.6,0.8C430.9,1287.1,429.9,1287.1,429.3,1286.5C429.3,1286.5,429.3,1286.5,429.3,1286.5L429.3,1286.5z
		 M434.2,1283.9c-0.2-0.2-0.4-0.5-0.6-0.8c-0.3-0.6-0.5-0.8-0.8-0.8l0,0c-0.3,0-0.5,0.2-0.8,0.8c-0.2,0.3-0.3,0.6-0.6,0.8
		c-0.6,0.6-1.5,0.6-2.1,0.1c0,0,0,0-0.1-0.1c-0.2-0.2-0.4-0.5-0.6-0.8c-0.3-0.6-0.5-0.8-0.8-0.8c-0.3,0-0.5-0.2-0.5-0.5
		s0.2-0.5,0.5-0.5c0,0,0,0,0,0c0.4,0,0.8,0.2,1.1,0.5c0.2,0.2,0.4,0.5,0.6,0.8c0.3,0.6,0.5,0.8,0.8,0.8c0.3,0,0.5-0.2,0.8-0.8
		c0.2-0.3,0.3-0.6,0.6-0.8c0.3-0.3,0.7-0.5,1.1-0.5l0,0c0.4,0,0.8,0.2,1.1,0.5c0.2,0.2,0.4,0.5,0.6,0.8c0.3,0.6,0.5,0.8,0.8,0.8
		c0.3,0,0.5-0.2,0.8-0.8c0.2-0.3,0.3-0.5,0.5-0.8c0.2-0.2,0.5-0.2,0.7-0.1c0.2,0.2,0.2,0.5,0.1,0.7c0,0,0,0,0,0
		c-0.2,0.2-0.3,0.4-0.4,0.6c-0.2,0.3-0.4,0.6-0.6,0.8C435.8,1284.5,434.9,1284.5,434.2,1283.9C434.3,1284,434.2,1284,434.2,1283.9
		L434.2,1283.9z M434.2,1281.4c-0.2-0.2-0.4-0.5-0.6-0.8c-0.3-0.6-0.5-0.8-0.8-0.8l0,0c-0.3,0-0.5,0.2-0.8,0.8
		c-0.2,0.3-0.3,0.6-0.6,0.8c-0.6,0.6-1.5,0.6-2.1,0.1c0,0,0,0-0.1-0.1c-0.2-0.2-0.4-0.5-0.6-0.8c-0.3-0.6-0.5-0.8-0.8-0.8
		c-0.3,0-0.5-0.2-0.5-0.5c0-0.3,0.2-0.5,0.5-0.5c0,0,0,0,0,0c0.4,0,0.8,0.2,1.1,0.5c0.2,0.2,0.4,0.5,0.6,0.8
		c0.3,0.6,0.5,0.8,0.8,0.8c0.3,0,0.5-0.2,0.8-0.8c0.2-0.3,0.3-0.6,0.6-0.8c0.3-0.3,0.7-0.5,1.1-0.5l0,0c0.4,0,0.8,0.2,1.1,0.5
		c0.2,0.2,0.4,0.5,0.6,0.8c0.3,0.6,0.5,0.8,0.8,0.8c0.3,0,0.5-0.2,0.8-0.8c0.2-0.3,0.3-0.6,0.6-0.8c0.3-0.3,0.7-0.5,1.1-0.5
		c0.5,0,0.9,0.2,1.2,0.6c0.2,0.2,0.2,0.5,0,0.7s-0.5,0.2-0.7,0c0,0,0,0,0,0c-0.2-0.2-0.3-0.3-0.5-0.3c-0.2,0-0.3,0.1-0.4,0.2
		c-0.2,0.2-0.3,0.4-0.4,0.6c-0.2,0.3-0.3,0.6-0.6,0.8C435.8,1281.9,434.9,1282,434.2,1281.4C434.3,1281.4,434.2,1281.4,434.2,1281.4
		L434.2,1281.4z M439.1,1278.5c-0.2-0.2-0.4-0.5-0.6-0.8c-0.3-0.6-0.5-0.8-0.8-0.8c-0.3,0-0.5,0.2-0.8,0.8c-0.2,0.3-0.3,0.6-0.6,0.8
		c-0.6,0.6-1.5,0.6-2.1,0.1c0,0,0,0-0.1-0.1c-0.2-0.2-0.4-0.5-0.6-0.8c-0.3-0.6-0.5-0.8-0.8-0.8l0,0c-0.3,0-0.5,0.2-0.8,0.8
		c-0.2,0.3-0.3,0.6-0.6,0.8c-0.6,0.6-1.5,0.6-2.1,0.1c0,0,0,0-0.1-0.1c-0.2-0.2-0.4-0.5-0.6-0.8c-0.3-0.6-0.5-0.8-0.8-0.8
		c-0.3,0-0.5-0.2-0.5-0.5c0-0.3,0.2-0.5,0.5-0.5c0.4,0,0.8,0.2,1.1,0.5c0.2,0.2,0.4,0.5,0.6,0.8c0.3,0.6,0.5,0.8,0.8,0.8
		c0.3,0,0.5-0.2,0.8-0.8c0.2-0.3,0.3-0.6,0.6-0.8c0.3-0.3,0.7-0.5,1.1-0.5l0,0c0.4,0,0.8,0.2,1.1,0.5c0.2,0.2,0.4,0.5,0.6,0.8
		c0.3,0.6,0.5,0.8,0.8,0.8c0.3,0,0.5-0.2,0.8-0.8c0.2-0.3,0.3-0.6,0.6-0.8c0.3-0.3,0.7-0.5,1.1-0.5c0.4,0,0.8,0.2,1.1,0.5
		c0.2,0.2,0.4,0.5,0.6,0.8c0.3,0.6,0.5,0.8,0.8,0.8c0.3,0,0.5-0.3,0.9-0.8c0.2-0.3,0.3-0.6,0.6-0.8c0.3-0.3,0.6-0.5,1-0.5
		c0.4,0,0.8,0.2,1.1,0.5c0.2,0.3,0.4,0.5,0.6,0.8c0.1,0.1,0.1,0.2,0.2,0.3c0.1,0.2,0.1,0.5-0.2,0.6c-0.2,0.1-0.5,0.1-0.6-0.1
		c-0.1-0.1-0.1-0.2-0.2-0.3c-0.4-0.6-0.5-0.8-0.8-0.8c-0.3,0-0.5,0.2-0.8,0.8c-0.2,0.3-0.4,0.6-0.6,0.8c-0.3,0.3-0.7,0.5-1.1,0.5
		C439.8,1279,439.4,1278.8,439.1,1278.5z M444.1,1275.9c-0.2-0.2-0.4-0.5-0.6-0.8c-0.3-0.5-0.5-0.8-0.8-0.8c-0.3,0-0.5,0.2-0.8,0.8
		c-0.2,0.3-0.4,0.6-0.6,0.8c-0.3,0.3-0.7,0.5-1.1,0.5c-0.4,0-0.8-0.2-1.1-0.5c-0.2-0.2-0.4-0.5-0.6-0.8c-0.3-0.6-0.5-0.8-0.8-0.8
		c-0.3,0-0.5,0.2-0.8,0.8c-0.2,0.3-0.3,0.6-0.6,0.8c-0.6,0.6-1.5,0.6-2.1,0.1c0,0,0,0-0.1-0.1c-0.2-0.2-0.4-0.5-0.6-0.8
		c-0.3-0.6-0.5-0.8-0.8-0.8l0,0c-0.3,0-0.5,0.2-0.8,0.8c-0.2,0.3-0.3,0.6-0.6,0.8c-0.6,0.6-1.5,0.6-2.1,0.1c0,0,0,0-0.1-0.1
		c-0.2-0.2-0.4-0.5-0.6-0.8c-0.3-0.6-0.5-0.8-0.8-0.8c-0.3,0-0.5-0.2-0.5-0.5c0-0.3,0.2-0.5,0.5-0.5c0.4,0,0.8,0.2,1.1,0.5
		c0.2,0.2,0.4,0.5,0.6,0.8c0.3,0.6,0.5,0.8,0.8,0.8c0.3,0,0.5-0.2,0.8-0.8c0.2-0.3,0.3-0.6,0.6-0.8c0.3-0.3,0.7-0.5,1.1-0.5l0,0
		c0.4,0,0.8,0.2,1.1,0.5c0.2,0.2,0.4,0.5,0.6,0.8c0.3,0.6,0.5,0.8,0.8,0.8c0.3,0,0.5-0.2,0.8-0.8c0.2-0.3,0.3-0.6,0.6-0.8
		c0.3-0.3,0.7-0.5,1.1-0.5c0.4,0,0.8,0.2,1.1,0.5c0.2,0.2,0.4,0.5,0.6,0.8c0.3,0.6,0.5,0.8,0.8,0.8s0.5-0.3,0.9-0.8
		c0.2-0.3,0.3-0.6,0.6-0.8c0.3-0.3,0.6-0.5,1-0.5c0.4,0,0.8,0.2,1.1,0.5c0.2,0.2,0.4,0.5,0.6,0.8c0.3,0.6,0.5,0.8,0.8,0.8
		c0.3,0,0.5,0.2,0.5,0.5s-0.2,0.5-0.5,0.5C444.7,1276.4,444.4,1276.2,444.1,1275.9z M444.1,1273.1c-0.2-0.2-0.4-0.5-0.6-0.8
		c-0.3-0.5-0.5-0.8-0.8-0.8c-0.3,0-0.5,0.2-0.8,0.8c-0.2,0.3-0.4,0.6-0.6,0.8c-0.3,0.3-0.7,0.5-1.1,0.5c-0.4,0-0.8-0.2-1.1-0.5
		c-0.2-0.2-0.4-0.5-0.6-0.8c-0.3-0.6-0.5-0.8-0.8-0.8c-0.3,0-0.5,0.2-0.8,0.8c-0.2,0.3-0.3,0.6-0.6,0.8c-0.6,0.6-1.5,0.6-2.1,0.1
		c0,0,0,0-0.1-0.1c-0.2-0.2-0.4-0.5-0.6-0.8c-0.3-0.6-0.5-0.8-0.8-0.8l0,0c-0.3,0-0.5,0.2-0.8,0.8c-0.2,0.3-0.3,0.6-0.6,0.8
		c-0.6,0.6-1.5,0.6-2.1,0.1c0,0,0,0-0.1-0.1c-0.2-0.2-0.4-0.5-0.6-0.8c-0.3-0.6-0.5-0.8-0.8-0.8c-0.3,0-0.5-0.2-0.5-0.4
		s0.2-0.5,0.4-0.5c0,0,0,0,0,0c0.4,0,0.8,0.2,1.1,0.5c0.2,0.2,0.4,0.5,0.6,0.8c0.3,0.6,0.5,0.8,0.8,0.8c0.3,0,0.5-0.2,0.8-0.8
		c0.2-0.3,0.3-0.6,0.6-0.8c0.3-0.3,0.7-0.5,1.1-0.5l0,0c0.4,0,0.8,0.2,1.1,0.5c0.2,0.2,0.4,0.5,0.6,0.8c0.3,0.6,0.5,0.8,0.8,0.8
		c0.3,0,0.5-0.2,0.8-0.8c0.2-0.3,0.3-0.6,0.6-0.8c0.3-0.3,0.7-0.5,1.1-0.5c0.4,0,0.8,0.2,1.1,0.5c0.2,0.2,0.4,0.5,0.6,0.8
		c0.3,0.6,0.5,0.8,0.8,0.8c0.3,0,0.5-0.3,0.9-0.8c0.2-0.3,0.3-0.6,0.6-0.8c0.3-0.3,0.6-0.5,1-0.5c0.4,0,0.8,0.2,1.1,0.5
		c0.2,0.2,0.4,0.5,0.6,0.8c0.3,0.6,0.5,0.8,0.8,0.8s0.5-0.3,0.8-0.8c0.2-0.3,0.4-0.6,0.6-0.8c0.3-0.3,0.7-0.5,1.1-0.5h0
		c0.3,0,0.5,0.2,0.4,0.5c0,0.2-0.2,0.4-0.5,0.4h0c-0.3,0-0.5,0.2-0.8,0.8c-0.2,0.3-0.3,0.6-0.6,0.8c-0.3,0.3-0.7,0.5-1.1,0.5
		C444.7,1273.6,444.4,1273.4,444.1,1273.1z"/>
</g>
</svg>
