<?xml version="1.0" encoding="utf-8"?>
<!-- Generator: Adobe Illustrator 27.1.1, SVG Export Plug-In . SVG Version: 6.00 Build 0)  -->
<svg version="1.1" id="Layer_1" xmlns="http://www.w3.org/2000/svg" xmlns:xlink="http://www.w3.org/1999/xlink" x="0px" y="0px"
	 viewBox="0 0 32 32" style="enable-background:new 0 0 32 32;" xml:space="preserve">
<style type="text/css">
	.st0{fill:#000;}
</style>
<g id="Group_683" transform="translate(-463 -1053.979)">
	<g id="Group_769" transform="translate(388 -1170.021)">
		<path id="Rectangle_631" class="st0" d="M76.5,2225.5v29h29v-29H76.5 M75,2224h32v32H75V2224z"/>
		<path id="Path_250" class="st0" d="M76.4,2241.2l-1.1-1c0,0,3.1-3.4,4.8-5.4c2.5-2.8,6.2-4.3,10-4l0.3,0c4.2,0.3,7.2,0.5,10.5-1.8
			c1.8-1.2,3.3-2.7,4.5-4.4l1.3,0.7c-1.3,2-3,3.7-5,4.9c-3.7,2.6-7.1,2.3-11.5,2l-0.3,0c-0.3,0-0.6,0-0.8,0c-3,0-5.9,1.3-8,3.5
			C79.4,2237.8,76.4,2241.1,76.4,2241.2z"/>
		<path id="Path_251" class="st0" d="M83.2,2233.1c-0.9-1.7-2-3.4-3.2-4.9c-1.1-1.4-2.7-2.3-4.4-2.6l0.2-1.5c2.1,0.4,4,1.5,5.4,3.2
			c1.3,1.6,2.4,3.3,3.4,5.2L83.2,2233.1z"/>
		<path id="Path_252" class="st0" d="M106.1,2240.7c-1.1-0.2-2.1-0.6-3.1-1c-1.1-0.5-1.8-1.6-1.9-2.7c-0.1-0.5-0.2-1-0.4-1.4
			c-0.3-0.8-2.5-2.4-4.1-3.6c-1.2-0.8-2.4-1.8-3.4-2.8c-0.9-1.4-1.6-3-2-4.7l1.5-0.4c0.4,1.5,1,2.9,1.8,4.2c0.9,0.9,2,1.8,3.1,2.5
			c2.5,1.8,4.1,3.1,4.6,4.3c0.2,0.5,0.4,1.1,0.5,1.6c0.2,1,0.3,1.4,1,1.7c0.9,0.4,1.9,0.7,2.8,0.9L106.1,2240.7z"/>
		<path id="Path_253" class="st0" d="M79.9,2246.9c-1.5,0-3-0.4-4.3-1.1l0.7-1.3c1.1,0.6,2.3,0.9,3.5,0.9c0.1,0,0.1,0,0.2,0
			c1.4,0,2.7-0.5,3.9-1.3c2.1-1.7,3.4-4.2,3.4-6.9c0.1-2.2-1.7-4.8-1.7-4.8l1.2-0.9c0.1,0.1,2.1,3,2,5.7c0,1.5-0.4,2.9-1,4.3
			c-0.7,1.5-1.7,2.9-3.1,3.8c-1.4,1-3,1.5-4.7,1.6C80.1,2246.9,80,2246.9,79.9,2246.9z"/>
		<path id="Path_254" class="st0" d="M85.1,2255.6l-1.4-0.6v0c0.3-0.8,0.3-1.7,0-2.5c-0.6-1.2-1.3-2.3-2.2-3.4
			c-0.7-0.9-1.3-1.8-1.8-2.8l1.4-0.5c0.5,0.8,1,1.7,1.6,2.4c0.9,1.2,1.7,2.4,2.4,3.7C85.6,2253.1,85.6,2254.5,85.1,2255.6z"/>
		<path id="Path_255" class="st0" d="M93.6,2243.2c-2.3-0.2-4.6-0.9-6.5-2.2l0.9-1.2c1.7,1.1,3.6,1.8,5.7,2h0.2
			c2.4-0.1,6.9-2.7,8.4-3.7l0.8,1.2c-0.2,0.2-5.9,3.9-9.2,4C93.8,2243.2,93.7,2243.2,93.6,2243.2z"/>
		<path id="Path_256" class="st0" d="M93.3,2256c0.1-0.7,0.2-1.3,0.4-2c0.3-0.9,0.5-1.8,0.6-2.7c-0.2-1-0.5-1.9-1.1-2.8
			c-0.2-0.4-0.4-0.8-0.6-1.3c-0.1-1.6-0.1-3.3,0-4.9l1.5,0.1c-0.1,1.5-0.1,3,0,4.4c0.1,0.3,0.3,0.6,0.5,0.9c0.7,1.1,1.1,2.3,1.3,3.5
			c-0.1,1-0.3,2.1-0.6,3.1c-0.2,0.5-0.3,1-0.3,1.5L93.3,2256z"/>
		<path id="Path_257" class="st0" d="M95.4,2252l-0.7-1.3c1.1-0.6,2.4-0.9,3.7-1c0.3,0,0.5,0,0.8,0c1.2,0.1,2.5,0,3.7-0.5
			c1.4-0.8,2.9-1.7,2.9-1.7l0.8,1.3c0,0-1.6,1-3,1.8c-1.4,0.6-2.9,0.9-4.4,0.7c-0.3,0-0.5,0-0.8,0
			C97.4,2251.2,96.3,2251.5,95.4,2252z"/>
	</g>
</g>
</svg>
