<?xml version="1.0" encoding="utf-8"?>
<!-- Generator: Adobe Illustrator 27.1.1, SVG Export Plug-In . SVG Version: 6.00 Build 0)  -->
<svg version="1.1" id="Layer_1" xmlns="http://www.w3.org/2000/svg" xmlns:xlink="http://www.w3.org/1999/xlink" x="0px" y="0px"
	 viewBox="0 0 32 32" style="enable-background:new 0 0 32 32;" xml:space="preserve">
<style type="text/css">
	.st0{fill:#000;}
</style>
<path id="Union_76" class="st0" d="M27.5,32H0.7C0.3,32,0,31.7,0,31.3l0,0V0.7C0,0.3,0.3,0,0.7,0l0,0h30.6C31.7,0,32,0.3,32,0.7l0,0
	v30.6c0,0.4-0.3,0.7-0.7,0.7l0,0L27.5,32z M30.6,30.6v-4.3h-2.4v4.3H30.6z M26.7,30.6v-7.2h-2.4v7.2L26.7,30.6z M22.9,30.6v-11h-2.4
	v11L22.9,30.6z M19.1,30.6V15.8h-2.4v14.8H19.1z M1.4,30.6h13.9v-2.4H1.4V30.6z M12.9,26.7h2.4V11.9h-2.4V26.7z M1.4,26.7h10v-2.4
	h-10V26.7z M30.6,24.8v-1.4h-2.4v1.4L30.6,24.8z M11.5,22.9V9.1H9.1v13.8H11.5z M1.4,22.9h6.2v-1.4H1.4V22.9z M30.6,22v-2.4h-6.2V22
	H30.6z M7.6,20.1V5.3H5.3v14.8L7.6,20.1z M1.4,20.1h2.4v-2.4H1.4V20.1z M30.6,18.1v-2.4h-10v2.4H30.6z M1.4,16.2h2.4V1.4H1.4V16.2z
	 M30.6,14.3v-2.4H16.7v2.4L30.6,14.3z M30.6,10.5V1.4h-1.4v9.1H30.6z M27.7,10.5V9.1H12.9v1.4H27.7z M27.7,7.6V1.4h-2.4v6.2H27.7z
	 M23.9,7.6V5.3H9.1v2.4H23.9z M23.9,3.8V1.4h-2.4v2.4H23.9z M5.3,3.8h14.8V1.4H5.3V3.8z"/>
</svg>
