<?xml version="1.0" encoding="utf-8"?>
<!-- Generator: Adobe Illustrator 27.1.1, SVG Export Plug-In . SVG Version: 6.00 Build 0)  -->
<svg version="1.1" id="Layer_1" xmlns="http://www.w3.org/2000/svg" xmlns:xlink="http://www.w3.org/1999/xlink" x="0px" y="0px"
	 viewBox="0 0 32 32" style="enable-background:new 0 0 32 32;" xml:space="preserve">
<style type="text/css">
	.st0{fill:#000;}
</style>
<g id="Group_674" transform="translate(-519.25 -1311.25)">
	<g id="Group_754" transform="translate(519.25 1311.25)">
		<g id="Group_747" transform="translate(0)">
			<path id="Rectangle_575" class="st0" d="M0,0h4.2v11.3H0V0z M3.2,1H1v9.4h2.3V1z"/>
			<path id="Rectangle_576" class="st0" d="M3.2,0h4.8v11.3H3.2V0z M7.1,1H4.2v9.4h2.9V1z"/>
			<path id="Rectangle_577" class="st0" d="M7.1,0h4.2v11.3H7.1V0z M10.3,1H8.1v9.4h2.3V1z"/>
		</g>
		<g id="Group_748" transform="translate(10.343 10.343)">
			<path id="Rectangle_575-2" class="st0" d="M0,0h4.2v11.3H0V0z M3.2,1H1v9.4h2.3V1z"/>
			<path id="Rectangle_576-2" class="st0" d="M3.2,0h4.9v11.3H3.2V0z M7.1,1H4.2v9.4h2.9V1z"/>
			<path id="Rectangle_577-2" class="st0" d="M7.1,0h4.2v11.3H7.1V0z M10.3,1H8.1v9.4h2.3V1z"/>
		</g>
		<g id="Group_746" transform="translate(0 10.343)">
			<path id="Rectangle_578" class="st0" d="M0,11.3V7.1h11.3v4.2H0z M1,8.1v2.3h9.4V8.1H1z"/>
			<path id="Rectangle_579" class="st0" d="M0,8.1V3.2h11.3v4.8H0z M1,4.2v2.9h9.4V4.2H1z"/>
			<path id="Rectangle_580" class="st0" d="M0,4.2V0h11.3v4.2H0z M1,1v2.3h9.4V1H1z"/>
		</g>
		<g id="Group_750" transform="translate(10.343)">
			<path id="Rectangle_578-2" class="st0" d="M0,11.3V7.1h11.3v4.2H0z M1,8.1v2.3h9.4V8.1H1z"/>
			<path id="Rectangle_579-2" class="st0" d="M0,8.1V3.2h11.3v4.8H0z M1,4.2v2.9h9.4V4.2H1z"/>
			<path id="Rectangle_580-2" class="st0" d="M0,4.2V0h11.3v4.2H0z M1,1v2.3h9.4V1H1z"/>
		</g>
		<g id="Group_751" transform="translate(10.343 20.687)">
			<path id="Rectangle_578-3" class="st0" d="M0,11.3V7.1h11.3v4.2H0z M1,8.1v2.3h9.4V8.1H1z"/>
			<path id="Rectangle_579-3" class="st0" d="M0,8.1V3.2h11.3v4.8H0z M1,4.2v2.9h9.4V4.2H1z"/>
			<path id="Rectangle_580-3" class="st0" d="M0,4.2V0h11.3v4.2H0z M1,1v2.3h9.4V1H1z"/>
		</g>
		<g id="Group_749" transform="translate(20.687 10.343)">
			<path id="Rectangle_578-4" class="st0" d="M0,11.3V7.1h11.3v4.2H0z M1,8.1v2.3h9.4V8.1H1z"/>
			<path id="Rectangle_579-4" class="st0" d="M0,8.1V3.2h11.3v4.8H0z M1,4.2v2.9h9.4V4.2H1z"/>
			<path id="Rectangle_580-4" class="st0" d="M0,4.2V0h11.3v4.2H0z M1,1v2.3h9.4V1H1z"/>
		</g>
		<g id="Group_745" transform="translate(0 20.687)">
			<path id="Rectangle_581" class="st0" d="M0,0h4.2v11.3H0V0z M3.2,1H1v9.4h2.3V1z"/>
			<path id="Rectangle_582" class="st0" d="M3.2,0h4.8v11.3H3.2V0z M7.1,1H4.2v9.4h2.9V1z"/>
			<path id="Rectangle_583" class="st0" d="M7.1,0h4.2v11.3H7.1V0z M10.3,1H8.1v9.4h2.3V1z"/>
		</g>
		<g id="Group_752" transform="translate(20.687 20.687)">
			<path id="Rectangle_581-2" class="st0" d="M0,0h4.2v11.3H0V0z M3.2,1H1v9.4h2.3V1z"/>
			<path id="Rectangle_582-2" class="st0" d="M3.2,0h4.9v11.3H3.2V0z M7.1,1H4.2v9.4h2.9V1z"/>
			<path id="Rectangle_583-2" class="st0" d="M7.1,0h4.2v11.3H7.1V0z M10.3,1H8.1v9.4h2.3V1z"/>
		</g>
		<g id="Group_753" transform="translate(20.687)">
			<path id="Rectangle_581-3" class="st0" d="M0,0h4.2v11.3H0V0z M3.2,1H1v9.4h2.3V1z"/>
			<path id="Rectangle_582-3" class="st0" d="M3.2,0h4.9v11.3H3.2V0z M7.1,1H4.2v9.4h2.9V1z"/>
			<path id="Rectangle_583-3" class="st0" d="M7.1,0h4.2v11.3H7.1V0z M10.3,1H8.1v9.4h2.3V1z"/>
		</g>
	</g>
</g>
</svg>
