<?xml version="1.0" encoding="utf-8"?>
<!-- Generator: Adobe Illustrator 27.4.1, SVG Export Plug-In . SVG Version: 6.00 Build 0)  -->
<svg version="1.1" id="Layer_1" xmlns="http://www.w3.org/2000/svg" xmlns:xlink="http://www.w3.org/1999/xlink" x="0px" y="0px"
	 viewBox="0 0 210 128" enable-background="new 0 0 210 128" xml:space="preserve">
<g>
	<path fill="#232020" d="M192.88,111.03H26.3V25.84h166.58V111.03z M27.3,110.03h164.58V26.84H27.3V110.03z"/>
</g>
<g>
	<rect x="26.8" y="38.88" fill="#232020" width="165.58" height="1"/>
</g>
<g>
	<rect x="26.8" y="71.63" fill="#232020" width="165.58" height="1"/>
</g>
<g>
	<rect x="26.8" y="101.56" fill="#232020" width="165.58" height="1"/>
</g>
<g>
	
		<rect x="55.14" y="48.88" transform="matrix(0.7039 -0.7103 0.7103 0.7039 -34.0561 60.5827)" fill="#232020" width="1" height="44.52"/>
</g>
<g>
	
		<rect x="62.51" y="48.88" transform="matrix(0.7039 -0.7103 0.7103 0.7039 -31.875 65.8151)" fill="#232020" width="1" height="44.52"/>
</g>
<g>
	
		<rect x="69.87" y="48.88" transform="matrix(0.7039 -0.7103 0.7103 0.7039 -29.6941 71.0471)" fill="#232020" width="1" height="44.52"/>
</g>
<g>
	
		<rect x="177.59" y="49.47" transform="matrix(0.7036 -0.7106 0.7106 0.7036 3.2543 147.2107)" fill="#232020" width="1" height="40.46"/>
</g>
<g>
	
		<rect x="181.22" y="51.02" transform="matrix(0.7024 -0.7118 0.7118 0.7024 7.1306 148.9906)" fill="#232020" width="1" height="29.89"/>
</g>
<g>
	
		<rect x="184.89" y="52.55" transform="matrix(0.6998 -0.7143 0.7143 0.6998 11.1693 151.1263)" fill="#232020" width="1" height="19.44"/>
</g>
</svg>
