<?xml version="1.0" encoding="utf-8"?>
<!-- Generator: Adobe Illustrator 27.1.1, SVG Export Plug-In . SVG Version: 6.00 Build 0)  -->
<svg version="1.1" id="Layer_1" xmlns="http://www.w3.org/2000/svg" xmlns:xlink="http://www.w3.org/1999/xlink" x="0px" y="0px"
	 viewBox="0 0 32 32" style="enable-background:new 0 0 32 32;" xml:space="preserve">
<style type="text/css">
	.st0{fill:#000;}
</style>
<g id="Group_692" transform="translate(-593.5 -1793.5)">
	<path id="Union_65" class="st0" d="M609,1825.5h-15.5v-32h32v32H609z M610,1824.5h14.5V1810H610V1824.5z M594.5,1824.5H609V1810
		h-14.5V1824.5z M610,1809h14.5v-14.5H610V1809z M594.5,1809H609v-14.5h-14.5V1809z M621.6,1823c-0.3,0-0.6-0.3-0.6-0.6
		s0.3-0.6,0.6-0.6h1c0.3,0,0.6,0.3,0.6,0.6c0,0.3-0.3,0.6-0.6,0.6H621.6z M618.2,1823c-0.3,0-0.6-0.3-0.6-0.6s0.3-0.6,0.6-0.6h1
		c0.3,0,0.6,0.3,0.6,0.6c0,0.3-0.3,0.6-0.6,0.6H618.2z M614.8,1823c-0.3,0-0.6-0.3-0.6-0.6s0.3-0.6,0.6-0.6h1c0.3,0,0.6,0.3,0.6,0.6
		c0,0.3-0.3,0.6-0.6,0.6H614.8z M611.4,1823c-0.3,0-0.6-0.3-0.6-0.6s0.3-0.6,0.6-0.6h1c0.3,0,0.6,0.3,0.6,0.6s-0.3,0.6-0.6,0.6
		H611.4z M606.1,1823c-0.3,0-0.6-0.3-0.6-0.6s0.3-0.6,0.6-0.6h1c0.3,0,0.6,0.3,0.6,0.6s-0.3,0.6-0.6,0.6H606.1z M602.7,1823
		c-0.3,0-0.6-0.3-0.6-0.6s0.3-0.6,0.6-0.6h1c0.3,0,0.6,0.3,0.6,0.6s-0.3,0.6-0.6,0.6H602.7z M599.3,1823c-0.3,0-0.6-0.3-0.6-0.6
		s0.3-0.6,0.6-0.6h1c0.3,0,0.6,0.3,0.6,0.6c0,0.3-0.3,0.6-0.6,0.6H599.3z M595.9,1823c-0.3,0-0.6-0.3-0.6-0.6s0.3-0.6,0.6-0.6h1
		c0.3,0,0.6,0.3,0.6,0.6s-0.3,0.6-0.6,0.6H595.9z M621.6,1820.8c-0.3,0-0.6-0.3-0.6-0.6c0-0.3,0.3-0.6,0.6-0.6h1
		c0.3,0,0.6,0.3,0.6,0.6c0,0.3-0.3,0.6-0.6,0.6H621.6z M618.2,1820.8c-0.3,0-0.6-0.3-0.6-0.6c0-0.3,0.3-0.6,0.6-0.6h1
		c0.3,0,0.6,0.3,0.6,0.6c0,0.3-0.3,0.6-0.6,0.6H618.2z M614.8,1820.8c-0.3,0-0.6-0.3-0.6-0.6c0-0.3,0.3-0.6,0.6-0.6h1
		c0.3,0,0.6,0.3,0.6,0.6c0,0.3-0.3,0.6-0.6,0.6H614.8z M611.4,1820.8c-0.3,0-0.6-0.3-0.6-0.6c0-0.3,0.3-0.6,0.6-0.6h1
		c0.3,0,0.6,0.3,0.6,0.6c0,0.3-0.3,0.6-0.6,0.6H611.4z M606.1,1820.8c-0.3,0-0.6-0.3-0.6-0.6c0-0.3,0.3-0.6,0.6-0.6h1
		c0.3,0,0.6,0.3,0.6,0.6c0,0.3-0.3,0.6-0.6,0.6H606.1z M602.7,1820.8c-0.3,0-0.6-0.3-0.6-0.6c0-0.3,0.3-0.6,0.6-0.6h1
		c0.3,0,0.6,0.3,0.6,0.6c0,0.3-0.3,0.6-0.6,0.6H602.7z M599.3,1820.8c-0.3,0-0.6-0.3-0.6-0.6c0-0.3,0.3-0.6,0.6-0.6h1
		c0.3,0,0.6,0.3,0.6,0.6c0,0.3-0.3,0.6-0.6,0.6H599.3z M595.9,1820.8c-0.3,0-0.6-0.3-0.6-0.6c0-0.3,0.3-0.6,0.6-0.6h1
		c0.3,0,0.6,0.3,0.6,0.6c0,0.3-0.3,0.6-0.6,0.6H595.9z M621.6,1818.6c-0.3,0-0.6-0.3-0.6-0.6c0-0.3,0.3-0.6,0.6-0.6h1
		c0.3,0,0.6,0.3,0.6,0.6c0,0.3-0.3,0.6-0.6,0.6H621.6z M618.2,1818.6c-0.3,0-0.6-0.3-0.6-0.6c0-0.3,0.3-0.6,0.6-0.6h1
		c0.3,0,0.6,0.3,0.6,0.6c0,0.3-0.3,0.6-0.6,0.6H618.2z M614.8,1818.6c-0.3,0-0.6-0.3-0.6-0.6c0-0.3,0.3-0.6,0.6-0.6h1
		c0.3,0,0.6,0.3,0.6,0.6c0,0.3-0.3,0.6-0.6,0.6H614.8z M611.4,1818.6c-0.3,0-0.6-0.3-0.6-0.6c0-0.3,0.3-0.6,0.6-0.6h1
		c0.3,0,0.6,0.3,0.6,0.6c0,0.3-0.3,0.6-0.6,0.6H611.4z M606.1,1818.6c-0.3,0-0.6-0.3-0.6-0.6c0-0.3,0.3-0.6,0.6-0.6h1
		c0.3,0,0.6,0.3,0.6,0.6c0,0.3-0.3,0.6-0.6,0.6H606.1z M602.7,1818.6c-0.3,0-0.6-0.3-0.6-0.6c0-0.3,0.3-0.6,0.6-0.6h1
		c0.3,0,0.6,0.3,0.6,0.6c0,0.3-0.3,0.6-0.6,0.6H602.7z M599.3,1818.6c-0.3,0-0.6-0.3-0.6-0.6c0-0.3,0.3-0.6,0.6-0.6h1
		c0.3,0,0.6,0.3,0.6,0.6c0,0.3-0.3,0.6-0.6,0.6H599.3z M595.9,1818.6c-0.3,0-0.6-0.3-0.6-0.6c0-0.3,0.3-0.6,0.6-0.6h1
		c0.3,0,0.6,0.3,0.6,0.6c0,0.3-0.3,0.6-0.6,0.6H595.9z M621.6,1816.4c-0.3,0-0.6-0.3-0.6-0.6s0.3-0.6,0.6-0.6h1
		c0.3,0,0.6,0.3,0.6,0.6c0,0.3-0.3,0.6-0.6,0.6H621.6z M618.2,1816.4c-0.3,0-0.6-0.3-0.6-0.6s0.3-0.6,0.6-0.6h1
		c0.3,0,0.6,0.3,0.6,0.6c0,0.3-0.3,0.6-0.6,0.6H618.2z M614.8,1816.4c-0.3,0-0.6-0.3-0.6-0.6s0.3-0.6,0.6-0.6h1
		c0.3,0,0.6,0.3,0.6,0.6c0,0.3-0.3,0.6-0.6,0.6H614.8z M611.4,1816.4c-0.3,0-0.6-0.3-0.6-0.6s0.3-0.6,0.6-0.6h1
		c0.3,0,0.6,0.3,0.6,0.6s-0.3,0.6-0.6,0.6H611.4z M606.1,1816.4c-0.3,0-0.6-0.3-0.6-0.6s0.3-0.6,0.6-0.6h1c0.3,0,0.6,0.3,0.6,0.6
		s-0.3,0.6-0.6,0.6H606.1z M602.7,1816.4c-0.3,0-0.6-0.3-0.6-0.6s0.3-0.6,0.6-0.6h1c0.3,0,0.6,0.3,0.6,0.6s-0.3,0.6-0.6,0.6H602.7z
		 M599.3,1816.4c-0.3,0-0.6-0.3-0.6-0.6s0.3-0.6,0.6-0.6h1c0.3,0,0.6,0.3,0.6,0.6c0,0.3-0.3,0.6-0.6,0.6H599.3z M595.9,1816.4
		c-0.3,0-0.6-0.3-0.6-0.6s0.3-0.6,0.6-0.6h1c0.3,0,0.6,0.3,0.6,0.6s-0.3,0.6-0.6,0.6H595.9z M621.6,1814.2c-0.3,0-0.6-0.3-0.6-0.6
		c0-0.3,0.3-0.6,0.6-0.6h1c0.3,0,0.6,0.3,0.6,0.6c0,0.3-0.3,0.6-0.6,0.6H621.6z M618.2,1814.2c-0.3,0-0.6-0.3-0.6-0.6
		c0-0.3,0.3-0.6,0.6-0.6h1c0.3,0,0.6,0.3,0.6,0.6c0,0.3-0.3,0.6-0.6,0.6H618.2z M614.8,1814.2c-0.3,0-0.6-0.3-0.6-0.6
		c0-0.3,0.3-0.6,0.6-0.6h1c0.3,0,0.6,0.3,0.6,0.6c0,0.3-0.3,0.6-0.6,0.6H614.8z M611.5,1814.2c-0.3,0-0.6-0.3-0.6-0.6
		c0-0.3,0.3-0.6,0.6-0.6h1c0.3,0,0.6,0.3,0.6,0.6c0,0.3-0.3,0.6-0.6,0.6H611.5z M606.1,1814.2c-0.3,0-0.6-0.3-0.6-0.6
		c0-0.3,0.3-0.6,0.6-0.6h1c0.3,0,0.6,0.3,0.6,0.6c0,0.3-0.3,0.6-0.6,0.6H606.1z M602.7,1814.2c-0.3,0-0.6-0.3-0.6-0.6
		c0-0.3,0.3-0.6,0.6-0.6h1c0.3,0,0.6,0.3,0.6,0.6c0,0.3-0.3,0.6-0.6,0.6H602.7z M599.3,1814.2c-0.3,0-0.6-0.3-0.6-0.6
		c0-0.3,0.3-0.6,0.6-0.6h1c0.3,0,0.6,0.3,0.6,0.6c0,0.3-0.3,0.6-0.6,0.6H599.3z M595.9,1814.2c-0.3,0-0.6-0.3-0.6-0.6
		c0-0.3,0.3-0.6,0.6-0.6h1c0.3,0,0.6,0.3,0.6,0.6c0,0.3-0.3,0.6-0.6,0.6H595.9z M621.6,1812c-0.3,0-0.6-0.3-0.6-0.6
		c0-0.3,0.3-0.6,0.6-0.6h1c0.3,0,0.6,0.3,0.6,0.6c0,0.3-0.3,0.6-0.6,0.6H621.6z M618.2,1812c-0.3,0-0.6-0.3-0.6-0.6
		c0-0.3,0.3-0.6,0.6-0.6h1c0.3,0,0.6,0.3,0.6,0.6c0,0.3-0.3,0.6-0.6,0.6H618.2z M614.8,1812c-0.3,0-0.6-0.3-0.6-0.6
		c0-0.3,0.3-0.6,0.6-0.6h1c0.3,0,0.6,0.3,0.6,0.6c0,0.3-0.3,0.6-0.6,0.6H614.8z M611.5,1812c-0.3,0-0.6-0.3-0.6-0.6
		c0-0.3,0.3-0.6,0.6-0.6h1c0.3,0,0.6,0.3,0.6,0.6c0,0.3-0.3,0.6-0.6,0.6H611.5z M606.1,1812c-0.3,0-0.6-0.3-0.6-0.6
		c0-0.3,0.3-0.6,0.6-0.6h1c0.3,0,0.6,0.3,0.6,0.6c0,0.3-0.3,0.6-0.6,0.6H606.1z M602.7,1812c-0.3,0-0.6-0.3-0.6-0.6
		c0-0.3,0.3-0.6,0.6-0.6h1c0.3,0,0.6,0.3,0.6,0.6c0,0.3-0.3,0.6-0.6,0.6H602.7z M599.3,1812c-0.3,0-0.6-0.3-0.6-0.6
		c0-0.3,0.3-0.6,0.6-0.6h1c0.3,0,0.6,0.3,0.6,0.6c0,0.3-0.3,0.6-0.6,0.6H599.3z M595.9,1812c-0.3,0-0.6-0.3-0.6-0.6
		c0-0.3,0.3-0.6,0.6-0.6h1c0.3,0,0.6,0.3,0.6,0.6c0,0.3-0.3,0.6-0.6,0.6H595.9z M621.6,1807.4c-0.3,0-0.6-0.3-0.6-0.6
		s0.3-0.6,0.6-0.6h1c0.3,0,0.6,0.3,0.6,0.6c0,0.3-0.3,0.6-0.6,0.6H621.6z M618.2,1807.4c-0.3,0-0.6-0.3-0.6-0.6s0.3-0.6,0.6-0.6h1
		c0.3,0,0.6,0.3,0.6,0.6c0,0.3-0.3,0.6-0.6,0.6H618.2z M614.9,1807.4c-0.3,0-0.6-0.3-0.6-0.6s0.3-0.6,0.6-0.6h1
		c0.3,0,0.6,0.3,0.6,0.6c0,0.3-0.3,0.6-0.6,0.6H614.9z M611.5,1807.4c-0.3,0-0.6-0.3-0.6-0.6s0.3-0.6,0.6-0.6h1
		c0.3,0,0.6,0.3,0.6,0.6s-0.3,0.6-0.6,0.6H611.5z M606.1,1807.4c-0.3,0-0.6-0.3-0.6-0.6s0.3-0.6,0.6-0.6h1c0.3,0,0.6,0.3,0.6,0.6
		s-0.3,0.6-0.6,0.6H606.1z M602.7,1807.4c-0.3,0-0.6-0.3-0.6-0.6s0.3-0.6,0.6-0.6h1c0.3,0,0.6,0.3,0.6,0.6s-0.3,0.6-0.6,0.6H602.7z
		 M599.3,1807.4c-0.3,0-0.6-0.3-0.6-0.6s0.3-0.6,0.6-0.6h1c0.3,0,0.6,0.3,0.6,0.6c0,0.3-0.3,0.6-0.6,0.6H599.3z M595.9,1807.4
		c-0.3,0-0.6-0.3-0.6-0.6s0.3-0.6,0.6-0.6h1c0.3,0,0.6,0.3,0.6,0.6s-0.3,0.6-0.6,0.6H595.9z M621.6,1805.3c-0.3,0-0.6-0.3-0.6-0.6
		c0-0.3,0.3-0.6,0.6-0.6h1c0.3,0,0.6,0.3,0.6,0.6c0,0.3-0.3,0.6-0.6,0.6H621.6z M618.2,1805.3c-0.3,0-0.6-0.3-0.6-0.6
		c0-0.3,0.3-0.6,0.6-0.6h1c0.3,0,0.6,0.3,0.6,0.6c0,0.3-0.3,0.6-0.6,0.6H618.2z M614.9,1805.3c-0.3,0-0.6-0.3-0.6-0.6
		c0-0.3,0.3-0.6,0.6-0.6h1c0.3,0,0.6,0.3,0.6,0.6c0,0.3-0.3,0.6-0.6,0.6H614.9z M611.5,1805.3c-0.3,0-0.6-0.3-0.6-0.6
		c0-0.3,0.3-0.6,0.6-0.6h1c0.3,0,0.6,0.3,0.6,0.6c0,0.3-0.3,0.6-0.6,0.6H611.5z M606.1,1805.3c-0.3,0-0.6-0.3-0.6-0.6
		c0-0.3,0.3-0.6,0.6-0.6h1c0.3,0,0.6,0.3,0.6,0.6c0,0.3-0.3,0.6-0.6,0.6H606.1z M602.7,1805.3c-0.3,0-0.6-0.3-0.6-0.6
		c0-0.3,0.3-0.6,0.6-0.6h1c0.3,0,0.6,0.3,0.6,0.6c0,0.3-0.3,0.6-0.6,0.6H602.7z M599.3,1805.3c-0.3,0-0.6-0.3-0.6-0.6
		c0-0.3,0.3-0.6,0.6-0.6h1c0.3,0,0.6,0.3,0.6,0.6c0,0.3-0.3,0.6-0.6,0.6H599.3z M595.9,1805.3c-0.3,0-0.6-0.3-0.6-0.6
		c0-0.3,0.3-0.6,0.6-0.6h1c0.3,0,0.6,0.3,0.6,0.6c0,0.3-0.3,0.6-0.6,0.6H595.9z M621.6,1803.1c-0.3,0-0.6-0.3-0.6-0.6
		c0-0.3,0.3-0.6,0.6-0.6h1c0.3,0,0.6,0.3,0.6,0.6c0,0.3-0.3,0.6-0.6,0.6H621.6z M618.2,1803.1c-0.3,0-0.6-0.3-0.6-0.6
		c0-0.3,0.3-0.6,0.6-0.6h1c0.3,0,0.6,0.3,0.6,0.6c0,0.3-0.3,0.6-0.6,0.6H618.2z M614.9,1803.1c-0.3,0-0.6-0.3-0.6-0.6
		c0-0.3,0.3-0.6,0.6-0.6h1c0.3,0,0.6,0.3,0.6,0.6c0,0.3-0.3,0.6-0.6,0.6H614.9z M611.5,1803.1c-0.3,0-0.6-0.3-0.6-0.6
		s0.3-0.6,0.6-0.6h1c0.3,0,0.6,0.3,0.6,0.6c0,0.3-0.3,0.6-0.6,0.6H611.5z M606.1,1803.1c-0.3,0-0.6-0.3-0.6-0.6
		c0-0.3,0.3-0.6,0.6-0.6h1c0.3,0,0.6,0.3,0.6,0.6c0,0.3-0.3,0.6-0.6,0.6H606.1z M602.7,1803.1c-0.3,0-0.6-0.3-0.6-0.6
		c0-0.3,0.3-0.6,0.6-0.6h1c0.3,0,0.6,0.3,0.6,0.6s-0.3,0.6-0.6,0.6H602.7z M599.3,1803.1c-0.3,0-0.6-0.3-0.6-0.6
		c0-0.3,0.3-0.6,0.6-0.6h1c0.3,0,0.6,0.3,0.6,0.6c0,0.3-0.3,0.6-0.6,0.6H599.3z M595.9,1803.1c-0.3,0-0.6-0.3-0.6-0.6
		c0-0.3,0.3-0.6,0.6-0.6h1c0.3,0,0.6,0.3,0.6,0.6c0,0.3-0.3,0.6-0.6,0.6H595.9z M621.6,1800.9c-0.3,0-0.6-0.3-0.6-0.6
		s0.3-0.6,0.6-0.6h1c0.3,0,0.6,0.3,0.6,0.6c0,0.3-0.3,0.6-0.6,0.6H621.6z M618.3,1800.9c-0.3,0-0.6-0.3-0.6-0.6s0.3-0.6,0.6-0.6h1
		c0.3,0,0.6,0.3,0.6,0.6c0,0.3-0.3,0.6-0.6,0.6H618.3z M614.9,1800.9c-0.3,0-0.6-0.3-0.6-0.6s0.3-0.6,0.6-0.6h1
		c0.3,0,0.6,0.3,0.6,0.6c0,0.3-0.3,0.6-0.6,0.6H614.9z M611.5,1800.9c-0.3,0-0.6-0.3-0.6-0.6s0.3-0.6,0.6-0.6h1
		c0.3,0,0.6,0.3,0.6,0.6s-0.3,0.6-0.6,0.6H611.5z M606.1,1800.9c-0.3,0-0.6-0.3-0.6-0.6s0.3-0.6,0.6-0.6h1c0.3,0,0.6,0.3,0.6,0.6
		s-0.3,0.6-0.6,0.6H606.1z M602.7,1800.9c-0.3,0-0.6-0.3-0.6-0.6s0.3-0.6,0.6-0.6h1c0.3,0,0.6,0.3,0.6,0.6s-0.3,0.6-0.6,0.6H602.7z
		 M599.3,1800.9c-0.3,0-0.6-0.3-0.6-0.6s0.3-0.6,0.6-0.6h1c0.3,0,0.6,0.3,0.6,0.6c0,0.3-0.3,0.6-0.6,0.6H599.3z M595.9,1800.9
		c-0.3,0-0.6-0.3-0.6-0.6s0.3-0.6,0.6-0.6h1c0.3,0,0.6,0.3,0.6,0.6s-0.3,0.6-0.6,0.6H595.9z M621.6,1798.7c-0.3,0-0.6-0.3-0.6-0.6
		c0-0.3,0.3-0.6,0.6-0.6h1c0.3,0,0.6,0.3,0.6,0.6c0,0.3-0.3,0.6-0.6,0.6H621.6z M618.3,1798.7c-0.3,0-0.6-0.3-0.6-0.6
		c0-0.3,0.3-0.6,0.6-0.6h1c0.3,0,0.6,0.3,0.6,0.6c0,0.3-0.3,0.6-0.6,0.6H618.3z M614.9,1798.7c-0.3,0-0.6-0.3-0.6-0.6
		c0-0.3,0.3-0.6,0.6-0.6h1c0.3,0,0.6,0.3,0.6,0.6c0,0.3-0.3,0.6-0.6,0.6H614.9z M611.5,1798.7c-0.3,0-0.6-0.3-0.6-0.6
		c0-0.3,0.3-0.6,0.6-0.6h1c0.3,0,0.6,0.3,0.6,0.6c0,0.3-0.3,0.6-0.6,0.6H611.5z M606.1,1798.7c-0.3,0-0.6-0.3-0.6-0.6
		c0-0.3,0.3-0.6,0.6-0.6h1c0.3,0,0.6,0.3,0.6,0.6c0,0.3-0.3,0.6-0.6,0.6H606.1z M602.7,1798.7c-0.3,0-0.6-0.3-0.6-0.6
		c0-0.3,0.3-0.6,0.6-0.6h1c0.3,0,0.6,0.3,0.6,0.6c0,0.3-0.3,0.6-0.6,0.6H602.7z M599.3,1798.7c-0.3,0-0.6-0.3-0.6-0.6
		c0-0.3,0.3-0.6,0.6-0.6h1c0.3,0,0.6,0.3,0.6,0.6c0,0.3-0.3,0.6-0.6,0.6H599.3z M596,1798.7c-0.3,0-0.6-0.3-0.6-0.6
		c0-0.3,0.3-0.6,0.6-0.6h1c0.3,0,0.6,0.3,0.6,0.6c0,0.3-0.3,0.6-0.6,0.6H596z M621.7,1796.5c-0.3,0-0.6-0.3-0.6-0.6
		c0-0.3,0.3-0.6,0.6-0.6h1c0.3,0,0.6,0.3,0.6,0.6c0,0.3-0.3,0.6-0.6,0.6H621.7z M618.3,1796.5c-0.3,0-0.6-0.3-0.6-0.6
		c0-0.3,0.3-0.6,0.6-0.6h1c0.3,0,0.6,0.3,0.6,0.6c0,0.3-0.3,0.6-0.6,0.6H618.3z M614.9,1796.5c-0.3,0-0.6-0.3-0.6-0.6
		c0-0.3,0.3-0.6,0.6-0.6h1c0.3,0,0.6,0.3,0.6,0.6c0,0.3-0.3,0.6-0.6,0.6H614.9z M611.5,1796.5c-0.3,0-0.6-0.3-0.6-0.6
		s0.3-0.6,0.6-0.6h1c0.3,0,0.6,0.3,0.6,0.6c0,0.3-0.3,0.6-0.6,0.6H611.5z M606.1,1796.5c-0.3,0-0.6-0.3-0.6-0.6
		c0-0.3,0.3-0.6,0.6-0.6h1c0.3,0,0.6,0.3,0.6,0.6c0,0.3-0.3,0.6-0.6,0.6H606.1z M602.7,1796.5c-0.3,0-0.6-0.3-0.6-0.6
		c0-0.3,0.3-0.6,0.6-0.6h1c0.3,0,0.6,0.3,0.6,0.6s-0.3,0.6-0.6,0.6H602.7z M599.3,1796.5c-0.3,0-0.6-0.3-0.6-0.6
		c0-0.3,0.3-0.6,0.6-0.6h1c0.3,0,0.6,0.3,0.6,0.6c0,0.3-0.3,0.6-0.6,0.6H599.3z M596,1796.5c-0.3,0-0.6-0.3-0.6-0.6
		c0-0.3,0.3-0.6,0.6-0.6h1c0.3,0,0.6,0.3,0.6,0.6c0,0.3-0.3,0.6-0.6,0.6H596z"/>
</g>
</svg>
