<?xml version="1.0" encoding="utf-8"?>
<!-- Generator: Adobe Illustrator 27.1.1, SVG Export Plug-In . SVG Version: 6.00 Build 0)  -->
<svg version="1.1" id="Layer_1" xmlns="http://www.w3.org/2000/svg" xmlns:xlink="http://www.w3.org/1999/xlink" x="0px" y="0px"
	 viewBox="0 0 32 32" style="enable-background:new 0 0 32 32;" xml:space="preserve">
<style type="text/css">
	.st0{fill:#000;}
</style>
<path id="Union_86" class="st0" d="M0,32V1.4C0,0.6,0.6,0,1.3,0h8.3c0.4,0,0.7,0.2,1,0.4c0.3-0.3,0.6-0.4,1-0.4h8.3
	c0.4,0,0.7,0.2,1,0.4c0.3-0.3,0.6-0.4,1-0.4h8.8C31.4,0,32,0.6,32,1.4V32H0z M2.4,14.5c-0.6,0.2-1.1,0.4-1.7,0.7v16h30.5V15.4
	c-0.7,0.4-1.5,0.8-2.3,1.1c-2.2,1-4.6,1.5-6.9,1.5H22c-2.8,0-5-1.2-7.2-2.3s-4.2-2.2-6.7-2.2C6.2,13.6,4.3,13.9,2.4,14.5z M22,17.3
	L22,17.3c2.4-0.1,4.6-0.5,6.7-1.5c0.9-0.4,1.7-0.8,2.6-1.3V1.4c0-0.3-0.3-0.6-0.6-0.6h-8.8c-0.3,0-0.6,0.3-0.6,0.6v15.9
	C21.5,17.3,21.7,17.3,22,17.3L22,17.3z M15.1,15.1c1.1,0.6,2.1,1.1,3.3,1.5c0.7,0.3,1.4,0.4,2.1,0.6V1.4c0-0.3-0.3-0.6-0.6-0.6h-8.3
	C11.3,0.7,11,1,11,1.4v11.9C12.4,13.8,13.8,14.4,15.1,15.1L15.1,15.1z M0.7,1.4v13c0.5-0.2,0.9-0.4,1.4-0.6c1.9-0.6,3.9-0.9,6-0.9
	c0.7,0,1.4,0.1,2.2,0.2V1.4c0-0.3-0.3-0.6-0.6-0.6l0,0H1.3C1,0.7,0.7,1,0.7,1.4C0.7,1.4,0.7,1.4,0.7,1.4L0.7,1.4z"/>
</svg>
