<?xml version="1.0" encoding="utf-8"?>
<!-- Generator: Adobe Illustrator 27.1.1, SVG Export Plug-In . SVG Version: 6.00 Build 0)  -->
<svg version="1.1" id="Layer_1" xmlns="http://www.w3.org/2000/svg" xmlns:xlink="http://www.w3.org/1999/xlink" x="0px" y="0px"
	 viewBox="0 0 32 32" style="enable-background:new 0 0 32 32;" xml:space="preserve">
<style type="text/css">
	.st0{fill:#000;}
</style>
<g id="Group_677" transform="translate(-1093 -1528)">
	<path id="Union_60" class="st0" d="M1100.4,1560c-4.1,0-7.4-3.8-7.4-8.4V1533c-0.1-1.3,0.2-2.6,1-3.6c0.4-0.8,1.2-1.2,2-1.3h26.6v0
		c1.3,0.2,2.4,2.5,2.4,5.2s-1.1,5-2.4,5.2v0h-2.2v21.6H1100.4z M1118.9,1558.5v-20.1c0,0,0,0,0-0.1l-20.4,0.1l0,0
		c-0.4,0-0.8-0.3-0.8-0.7c0-0.4,0.4-0.7,0.8-0.7l22.5-0.1c0,0,0.1,0,0.1,0h1.2c0.3-0.2,0.5-0.6,0.6-0.9c0.3-0.9,0.5-1.8,0.5-2.8
		c0-0.9-0.2-1.9-0.5-2.8c-0.1-0.4-0.3-0.7-0.6-0.9h-24.2c0.6,1.1,0.9,2.3,0.9,3.5c0,2.8-1.3,5-3,5c-0.6,0-1.1-0.3-1.5-0.7v13.9
		c0.3,0,0.5,0.2,0.6,0.5c0.4,1,2.8,1.1,3.8,1.1c0.7,0,1.1,0,1.3,0.3c0.3,0.3,0.3,0.7,0.3,1.3c0,1-0.1,3,1,4c0,0,0,0,0.1,0.1
		L1118.9,1558.5z M1099.7,1558.5c-0.5-1.3-0.8-2.7-0.6-4.1c0,0,0-0.1,0-0.1h-0.1c-1.4,0.1-2.9-0.2-4.2-0.8
		C1095.2,1556,1097.2,1558,1099.7,1558.5L1099.7,1558.5z M1094.5,1533c0,2.2,1,3.5,1.5,3.5s1.5-1.3,1.5-3.5c0.1-1.3-0.3-2.5-1.2-3.4
		c-0.4,0.1-0.8,0.3-1.1,0.6C1094.7,1531.1,1094.5,1532,1094.5,1533z"/>
</g>
</svg>
