<?xml version="1.0" encoding="utf-8"?>
<!-- Generator: Adobe Illustrator 27.4.1, SVG Export Plug-In . SVG Version: 6.00 Build 0)  -->
<svg version="1.1" id="Layer_1" xmlns="http://www.w3.org/2000/svg" xmlns:xlink="http://www.w3.org/1999/xlink" x="0px" y="0px"
	 viewBox="0 0 210 128" enable-background="new 0 0 210 128" xml:space="preserve">
<g>
	<g>
		<path fill="#232020" d="M186.88,109.03H20.3V23.84h166.58V109.03z M21.3,108.03h164.58V24.84H21.3V108.03z"/>
	</g>
	<g>
		<rect x="26.68" y="34.47" fill="#232020" width="6.43" height="1"/>
	</g>
	<g>
		
			<rect x="31.91" y="30.66" transform="matrix(0.9487 -0.3162 0.3162 0.9487 -8.7315 11.9361)" fill="#232020" width="1" height="4.42"/>
	</g>
	<g>
		<rect x="35.86" y="25.66" transform="matrix(0.4189 -0.908 0.908 0.4189 -1.7484 49.585)" fill="#232020" width="4" height="1"/>
	</g>
	<g>
		<rect x="54.37" y="34.47" fill="#232020" width="4.2" height="1"/>
	</g>
	<g>
		
			<rect x="61.56" y="28.2" transform="matrix(0.8648 -0.5021 0.5021 0.8648 -7.0264 35.3104)" fill="#232020" width="1" height="5.01"/>
	</g>
	<g>
		
			<rect x="65.72" y="25.66" transform="matrix(0.5693 -0.8222 0.8222 0.5693 7.755 67.1189)" fill="#232020" width="4.42" height="1"/>
	</g>
	<g>
		
			<rect x="80.3" y="34.68" transform="matrix(0.8436 -0.5369 0.5369 0.8436 -6.9674 49.0891)" fill="#232020" width="1" height="3.65"/>
	</g>
	<g>
		
			<rect x="69.97" y="45.1" transform="matrix(0.5664 -0.8242 0.8242 0.5664 -6.0593 79.6788)" fill="#232020" width="5.43" height="1"/>
	</g>
	<g>
		
			<rect x="67.93" y="47.47" transform="matrix(0.9962 -0.0869 0.0869 0.9962 -3.907 6.2264)" fill="#232020" width="3.23" height="1"/>
	</g>
	<g>
		
			<rect x="55.97" y="46.82" transform="matrix(0.5351 -0.8448 0.8448 0.5351 -15.3996 70.624)" fill="#232020" width="1" height="4.97"/>
	</g>
	<g>
		
			<rect x="55.97" y="58.46" transform="matrix(0.0665 -0.9978 0.9978 0.0665 -7.719 112.8716)" fill="#232020" width="1" height="4.2"/>
	</g>
	<g>
		
			<rect x="45.48" y="61.39" transform="matrix(0.757 -0.6534 0.6534 0.757 -28.8941 46.0888)" fill="#232020" width="4.07" height="1"/>
	</g>
	<g>
		
			<rect x="52.61" y="64.58" transform="matrix(0.8838 -0.4679 0.4679 0.8838 -25.3064 32.6707)" fill="#232020" width="1" height="5.38"/>
	</g>
	<g>
		
			<rect x="50.21" y="78.52" transform="matrix(0.5067 -0.8621 0.8621 0.5067 -41.9963 84.6445)" fill="#232020" width="5.52" height="1"/>
	</g>
	<g>
		<rect x="37.87" y="74.75" fill="#232020" width="7.83" height="1"/>
	</g>
	<g>
		
			<rect x="21.07" y="76.63" transform="matrix(0.6644 -0.7474 0.7474 0.6644 -49.7287 43.5281)" fill="#232020" width="5.05" height="1"/>
	</g>
	<g>
		
			<rect x="35.83" y="88.98" transform="matrix(0.7863 -0.6178 0.6178 0.7863 -48.7467 41.9857)" fill="#232020" width="1" height="4.98"/>
	</g>
	<g>
		
			<rect x="54.29" y="94.04" transform="matrix(0.8321 -0.5547 0.5547 0.8321 -44.6387 46.6919)" fill="#232020" width="1" height="6.05"/>
	</g>
	<g>
		
			<rect x="54.53" y="96.28" transform="matrix(0.3514 -0.9362 0.9362 0.3514 -53.307 116.6138)" fill="#232020" width="5.97" height="1"/>
	</g>
	<g>
		
			<rect x="53.09" y="100.34" transform="matrix(0.9937 -0.1123 0.1123 0.9937 -10.9653 7.0187)" fill="#232020" width="7.46" height="1"/>
	</g>
	<g>
		
			<rect x="69.81" y="85.44" transform="matrix(0.1169 -0.9931 0.9931 0.1169 -25.1371 147.3943)" fill="#232020" width="1" height="4.79"/>
	</g>
	<g>
		
			<rect x="73.1" y="91.39" transform="matrix(0.5547 -0.8321 0.8321 0.5547 -42.7792 103.8408)" fill="#232020" width="5.04" height="1"/>
	</g>
	<g>
		
			<rect x="70.61" y="69.24" transform="matrix(0.8716 -0.4902 0.4902 0.8716 -26.3839 44.1622)" fill="#232020" width="1" height="6.42"/>
	</g>
	<g>
		<rect x="79.26" y="100.34" fill="#232020" width="5.03" height="1"/>
	</g>
	<g>
		
			<rect x="89.67" y="103.65" transform="matrix(0.848 -0.5301 0.5301 0.848 -42.6316 63.955)" fill="#232020" width="1" height="5.28"/>
	</g>
	<g>
		
			<rect x="92.24" y="87.33" transform="matrix(0.5733 -0.8194 0.8194 0.5733 -31.877 114.4563)" fill="#232020" width="3.41" height="1"/>
	</g>
	<g>
		
			<rect x="95.54" y="86.14" transform="matrix(0.8683 -0.4961 0.4961 0.8683 -31.1977 59.2863)" fill="#232020" width="1" height="4.51"/>
	</g>
	<g>
		
			<rect x="86.23" y="69.36" transform="matrix(0.3965 -0.918 0.918 0.3965 -10.3938 123.911)" fill="#232020" width="5.64" height="1"/>
	</g>
	<g>
		<rect x="92.41" y="60.06" fill="#232020" width="6.71" height="1"/>
	</g>
	<g>
		
			<rect x="99.74" y="66.99" transform="matrix(0.8756 -0.483 0.483 0.8756 -21.0056 57.0383)" fill="#232020" width="1" height="4.63"/>
	</g>
	<g>
		<rect x="105.55" y="87.33" fill="#232020" width="5.59" height="1"/>
	</g>
	<g>
		
			<rect x="118.76" y="71.91" transform="matrix(0.8129 -0.5824 0.5824 0.8129 -21.2456 83.4458)" fill="#232020" width="1" height="5.76"/>
	</g>
	<g>
		
			<rect x="116.17" y="69.36" transform="matrix(0.5441 -0.839 0.839 0.5441 -4.2426 131.9147)" fill="#232020" width="6.17" height="1"/>
	</g>
	<g>
		
			<rect x="118.13" y="74.52" transform="matrix(0.9977 -0.0674 0.0674 0.9977 -4.7773 8.3544)" fill="#232020" width="6.73" height="1"/>
	</g>
	<g>
		<rect x="131.56" y="87.33" fill="#232020" width="5.31" height="1"/>
	</g>
	<g>
		
			<rect x="135.05" y="76.73" transform="matrix(0.8321 -0.5547 0.5547 0.8321 -21.1259 88.4741)" fill="#232020" width="1" height="4.79"/>
	</g>
	<g>
		
			<rect x="120.49" y="89.36" transform="matrix(0.6044 -0.7967 0.7967 0.6044 -22.9155 133.5728)" fill="#232020" width="5.09" height="1"/>
	</g>
	<g>
		
			<rect x="143.04" y="103.06" transform="matrix(0.4562 -0.8899 0.8899 0.4562 -12.704 186.3406)" fill="#232020" width="6.13" height="1"/>
	</g>
	<g>
		
			<rect x="161.88" y="98.31" transform="matrix(0.6044 -0.7967 0.7967 0.6044 -13.6687 170.0939)" fill="#232020" width="5.09" height="1"/>
	</g>
	<g>
		
			<rect x="172.32" y="87.47" transform="matrix(0.8497 -0.5273 0.5273 0.8497 -21.404 104.642)" fill="#232020" width="1" height="4.77"/>
	</g>
	<g>
		
			<rect x="155.23" y="79.74" transform="matrix(0.5048 -0.8632 0.8632 0.5048 9.3797 176.8414)" fill="#232020" width="7.21" height="1"/>
	</g>
	<g>
		<rect x="156.74" y="74.52" fill="#232020" width="7.69" height="1"/>
	</g>
	<g>
		
			<rect x="177.07" y="69.56" transform="matrix(0.8906 -0.4547 0.4547 0.8906 -13.4669 88.6626)" fill="#232020" width="1" height="5.54"/>
	</g>
	<g>
		<rect x="171.56" y="60.06" fill="#232020" width="6.01" height="1"/>
	</g>
	<g>
		
			<rect x="182.25" y="50.99" transform="matrix(0.8455 -0.534 0.534 0.8455 -0.6656 105.9562)" fill="#232020" width="1" height="6.29"/>
	</g>
	<g>
		
			<rect x="176.19" y="45.03" transform="matrix(0.5146 -0.8574 0.8574 0.5146 47.8647 175.6094)" fill="#232020" width="5.71" height="1"/>
	</g>
	<g>
		<rect x="158.83" y="34.47" fill="#232020" width="6.85" height="1"/>
	</g>
	<g>
		
			<rect x="87.95" y="39.15" transform="matrix(0.3349 -0.9422 0.9422 0.3349 23.3504 112.3889)" fill="#232020" width="6.68" height="1"/>
	</g>
	<g>
		<rect x="98.34" y="37.92" transform="matrix(0.848 -0.53 0.53 0.848 -6.4746 58.5493)" fill="#232020" width="1" height="5.28"/>
	</g>
	<g>
		
			<rect x="106.27" y="34.19" transform="matrix(0.7556 -0.655 0.655 0.7556 3.9293 79.9096)" fill="#232020" width="5.55" height="1"/>
	</g>
	<g>
		<rect x="119.26" y="34.19" fill="#232020" width="5.31" height="1"/>
	</g>
	<g>
		
			<rect x="139.45" y="30.09" transform="matrix(0.7649 -0.6441 0.6441 0.7649 11.8397 97.834)" fill="#232020" width="1" height="5.21"/>
	</g>
	<g>
		
			<rect x="135.82" y="36.67" transform="matrix(0.6913 -0.7226 0.7226 0.6913 16.1281 112.0943)" fill="#232020" width="6.87" height="1"/>
	</g>
	<g>
		
			<rect x="133.76" y="47.6" transform="matrix(0.843 -0.5378 0.5378 0.843 -5.8214 80.0564)" fill="#232020" width="1" height="4.81"/>
	</g>
	<g>
		
			<rect x="140.86" y="53.91" transform="matrix(0.4228 -0.9062 0.9062 0.4228 33.3292 161.1455)" fill="#232020" width="4.63" height="1"/>
	</g>
	<g>
		<rect x="146.11" y="47.47" fill="#232020" width="4.75" height="1"/>
	</g>
	<g>
		
			<rect x="151.62" y="53.66" transform="matrix(0.7592 -0.6508 0.6508 0.7592 0.4421 112.388)" fill="#232020" width="1" height="3.87"/>
	</g>
	<g>
		
			<rect x="158.1" y="48.31" transform="matrix(0.2519 -0.9677 0.9677 0.2519 73.5132 192.7298)" fill="#232020" width="6.65" height="1"/>
	</g>
	<g>
		<rect x="105.55" y="47.47" fill="#232020" width="5.59" height="1"/>
	</g>
	<g>
		
			<rect x="126.84" y="106.21" transform="matrix(0.4736 -0.8808 0.8808 0.4736 -26.1266 169.7104)" fill="#232020" width="4.13" height="1"/>
	</g>
	<g>
		
			<rect x="171.73" y="26.08" transform="matrix(0.6154 -0.7882 0.7882 0.6154 46.1957 147.825)" fill="#232020" width="5.68" height="1"/>
	</g>
	<g>
		<rect x="20.8" y="53.63" fill="#232020" width="163.62" height="1"/>
	</g>
	<g>
		<rect x="20.8" y="91.39" fill="#232020" width="165.58" height="1"/>
	</g>
</g>
</svg>
