<svg width="80" height="68" viewBox="0 0 80 68" fill="none" xmlns="http://www.w3.org/2000/svg">
<path d="M25 51.4773C22.4318 51.4773 20.2443 50.7784 18.4375 49.3807C16.6307 47.9716 15.25 45.9318 14.2955 43.2614C13.3409 40.5795 12.8636 37.3409 12.8636 33.5455C12.8636 29.7727 13.3409 26.5511 14.2955 23.8807C15.2614 21.1989 16.6477 19.1534 18.4545 17.7443C20.2727 16.3239 22.4545 15.6136 25 15.6136C27.5455 15.6136 29.7216 16.3239 31.5284 17.7443C33.3466 19.1534 34.733 21.1989 35.6875 23.8807C36.6534 26.5511 37.1364 29.7727 37.1364 33.5455C37.1364 37.3409 36.6591 40.5795 35.7045 43.2614C34.75 45.9318 33.3693 47.9716 31.5625 49.3807C29.7557 50.7784 27.5682 51.4773 25 51.4773ZM25 47.7273C27.5455 47.7273 29.5227 46.5 30.9318 44.0455C32.3409 41.5909 33.0455 38.0909 33.0455 33.5455C33.0455 30.5227 32.7216 27.9489 32.0739 25.8239C31.4375 23.6989 30.517 22.0795 29.3125 20.9659C28.1193 19.8523 26.6818 19.2955 25 19.2955C22.4773 19.2955 20.5057 20.5398 19.0852 23.0284C17.6648 25.5057 16.9545 29.0114 16.9545 33.5455C16.9545 36.5682 17.2727 39.1364 17.9091 41.25C18.5455 43.3636 19.4602 44.9716 20.6534 46.0739C21.858 47.1761 23.3068 47.7273 25 47.7273ZM44.0936 51V47.9318L55.6164 35.3182C56.9686 33.8409 58.0823 32.5568 58.9573 31.4659C59.8323 30.3636 60.48 29.3295 60.9005 28.3636C61.3323 27.3864 61.5482 26.3636 61.5482 25.2955C61.5482 24.0682 61.2527 23.0057 60.6618 22.108C60.0823 21.2102 59.2868 20.517 58.2755 20.0284C57.2641 19.5398 56.1277 19.2955 54.8664 19.2955C53.5255 19.2955 52.355 19.5739 51.355 20.1307C50.3664 20.6761 49.5993 21.4432 49.0539 22.4318C48.5198 23.4205 48.2527 24.5795 48.2527 25.9091H44.23C44.23 23.8636 44.7016 22.0682 45.6448 20.5227C46.588 18.9773 47.872 17.7727 49.497 16.9091C51.1334 16.0455 52.9686 15.6136 55.0027 15.6136C57.0482 15.6136 58.8607 16.0455 60.4402 16.9091C62.0198 17.7727 63.2584 18.9375 64.1561 20.4034C65.0539 21.8693 65.5027 23.5 65.5027 25.2955C65.5027 26.5795 65.2698 27.8352 64.8039 29.0625C64.3493 30.2784 63.5539 31.6364 62.4175 33.1364C61.2925 34.625 59.73 36.4432 57.73 38.5909L49.8891 46.9773V47.25H66.1164V51H44.0936Z" fill="#CCCCCC"/>
<path d="M80 67H0V69H80V67Z" fill="#CCCCCC" mask="url(#path-1-inside-1_257_4728)"/>
</svg>
