<svg width="82" height="68" viewBox="0 0 82 68" fill="none" xmlns="http://www.w3.org/2000/svg">
<path d="M25 51.4773C22.4318 51.4773 20.2443 50.7784 18.4375 49.3807C16.6307 47.9716 15.25 45.9318 14.2955 43.2614C13.3409 40.5795 12.8636 37.3409 12.8636 33.5455C12.8636 29.7727 13.3409 26.5511 14.2955 23.8807C15.2614 21.1989 16.6477 19.1534 18.4545 17.7443C20.2727 16.3239 22.4545 15.6136 25 15.6136C27.5455 15.6136 29.7216 16.3239 31.5284 17.7443C33.3466 19.1534 34.733 21.1989 35.6875 23.8807C36.6534 26.5511 37.1364 29.7727 37.1364 33.5455C37.1364 37.3409 36.6591 40.5795 35.7045 43.2614C34.75 45.9318 33.3693 47.9716 31.5625 49.3807C29.7557 50.7784 27.5682 51.4773 25 51.4773ZM25 47.7273C27.5455 47.7273 29.5227 46.5 30.9318 44.0455C32.3409 41.5909 33.0455 38.0909 33.0455 33.5455C33.0455 30.5227 32.7216 27.9489 32.0739 25.8239C31.4375 23.6989 30.517 22.0795 29.3125 20.9659C28.1193 19.8523 26.6818 19.2955 25 19.2955C22.4773 19.2955 20.5057 20.5398 19.0852 23.0284C17.6648 25.5057 16.9545 29.0114 16.9545 33.5455C16.9545 36.5682 17.2727 39.1364 17.9091 41.25C18.5455 43.3636 19.4602 44.9716 20.6534 46.0739C21.858 47.1761 23.3068 47.7273 25 47.7273ZM55.8891 51.4773C53.6391 51.4773 51.6334 51.0909 49.872 50.3182C48.122 49.5455 46.73 48.4716 45.6959 47.0966C44.6732 45.7102 44.1164 44.1023 44.0255 42.2727H48.3209C48.4118 43.3977 48.7982 44.3693 49.48 45.1875C50.1618 45.9943 51.0539 46.6193 52.1561 47.0625C53.2584 47.5057 54.48 47.7273 55.8209 47.7273C57.3209 47.7273 58.6505 47.4659 59.8095 46.9432C60.9686 46.4205 61.8777 45.6932 62.5368 44.7614C63.1959 43.8295 63.5255 42.75 63.5255 41.5227C63.5255 40.2386 63.2073 39.108 62.5709 38.1307C61.9345 37.142 61.0027 36.3693 59.7755 35.8125C58.5482 35.2557 57.0482 34.9773 55.2755 34.9773H52.48V31.2273H55.2755C56.6618 31.2273 57.8777 30.9773 58.9232 30.4773C59.98 29.9773 60.8039 29.2727 61.3948 28.3636C61.997 27.4545 62.2982 26.3864 62.2982 25.1591C62.2982 23.9773 62.0368 22.9489 61.5141 22.0739C60.9914 21.1989 60.2527 20.517 59.2982 20.0284C58.355 19.5398 57.2414 19.2955 55.9573 19.2955C54.7527 19.2955 53.6164 19.517 52.5482 19.9602C51.4914 20.392 50.6277 21.0227 49.9573 21.8523C49.2868 22.6705 48.9232 23.6591 48.8664 24.8182H44.7755C44.8436 22.9886 45.3948 21.3864 46.4289 20.0114C47.463 18.625 48.8152 17.5455 50.4857 16.7727C52.1675 16 54.0141 15.6136 56.0255 15.6136C58.1845 15.6136 60.0368 16.0511 61.5823 16.9261C63.1277 17.7898 64.3152 18.9318 65.1448 20.3523C65.9743 21.7727 66.3891 23.3068 66.3891 24.9545C66.3891 26.9205 65.872 28.5966 64.838 29.983C63.8152 31.3693 62.4232 32.3295 60.6618 32.8636V33.1364C62.8664 33.5 64.588 34.4375 65.8266 35.9489C67.0652 37.4489 67.6845 39.3068 67.6845 41.5227C67.6845 43.4205 67.1675 45.125 66.1334 46.6364C65.1107 48.1364 63.713 49.3182 61.9402 50.1818C60.1675 51.0455 58.1505 51.4773 55.8891 51.4773Z" fill="#CCCCCC"/>
<path d="M82 67H0V69H82V67Z" fill="#CCCCCC" mask="url(#path-1-inside-1_257_4732)"/>
</svg>
