<svg width="52" height="52" viewBox="0 0 52 52" fill="none" xmlns="http://www.w3.org/2000/svg">
<g clip-path="url(#clip0_257_4337)">
<path d="M47.125 39.8125H4.875V41.4375H47.125V39.8125Z" fill="#808080"/>
<path d="M52 52H0V43.875H52V52ZM1.625 50.375H50.375V45.5H1.625V50.375Z" fill="#808080"/>
<path d="M9.75 45.5H8.125V48.75H9.75V45.5Z" fill="#808080"/>
<path d="M16.25 45.5H14.625V48.75H16.25V45.5Z" fill="#808080"/>
<path d="M22.75 45.5H21.125V48.75H22.75V45.5Z" fill="#808080"/>
<path d="M29.25 45.5H27.625V48.75H29.25V45.5Z" fill="#808080"/>
<path d="M35.75 45.5H34.125V48.75H35.75V45.5Z" fill="#808080"/>
<path d="M42.25 45.5H40.625V48.75H42.25V45.5Z" fill="#808080"/>
<path d="M48.75 45.5H47.125V48.75H48.75V45.5Z" fill="#808080"/>
<path d="M13 45.5H11.375V47.125H13V45.5Z" fill="#808080"/>
<path d="M19.5 45.5H17.875V47.125H19.5V45.5Z" fill="#808080"/>
<path d="M26 45.5H24.375V47.125H26V45.5Z" fill="#808080"/>
<path d="M32.5 45.5H30.875V47.125H32.5V45.5Z" fill="#808080"/>
<path d="M39 45.5H37.375V47.125H39V45.5Z" fill="#808080"/>
<path d="M45.5 45.5H43.875V47.125H45.5V45.5Z" fill="#808080"/>
<path d="M4.875 41.4375C3.58207 41.4375 2.34209 40.9239 1.42785 40.0096C0.513615 39.0954 0 37.8554 0 36.5625L0 4.875C0 3.58207 0.513615 2.34209 1.42785 1.42785C2.34209 0.513615 3.58207 0 4.875 0C6.16793 0 7.40791 0.513615 8.32215 1.42785C9.23639 2.34209 9.75 3.58207 9.75 4.875V36.5625H8.125C8.125 35.9197 7.93439 35.2914 7.57728 34.7569C7.22016 34.2224 6.71258 33.8059 6.11872 33.5599C5.52486 33.3139 4.87139 33.2495 4.24096 33.3749C3.61052 33.5004 3.03142 33.8099 2.5769 34.2644C2.12238 34.7189 1.81285 35.298 1.68745 35.9285C1.56205 36.5589 1.62641 37.2124 1.87239 37.8062C2.11838 38.4001 2.53494 38.9077 3.0694 39.2648C3.60386 39.6219 4.23221 39.8125 4.875 39.8125V41.4375ZM4.875 31.6875C6.07437 31.688 7.23147 32.1306 8.125 32.9306V4.875C8.125 4.01305 7.78259 3.1864 7.1731 2.5769C6.5636 1.96741 5.73695 1.625 4.875 1.625C4.01305 1.625 3.1864 1.96741 2.5769 2.5769C1.96741 3.1864 1.625 4.01305 1.625 4.875V32.9306C2.51853 32.1306 3.67563 31.688 4.875 31.6875Z" fill="#808080"/>
<path d="M47.125 41.4375V39.8125C47.7678 39.8125 48.3961 39.6219 48.9306 39.2648C49.4651 38.9077 49.8816 38.4001 50.1276 37.8062C50.3736 37.2124 50.438 36.5589 50.3126 35.9285C50.1872 35.298 49.8776 34.7189 49.4231 34.2644C48.9686 33.8099 48.3895 33.5004 47.759 33.3749C47.1286 33.2495 46.4751 33.3139 45.8813 33.5599C45.2874 33.8059 44.7798 34.2224 44.4227 34.7569C44.0656 35.2914 43.875 35.9197 43.875 36.5625H42.25V4.875C42.25 3.58207 42.7636 2.34209 43.6779 1.42785C44.5921 0.513615 45.8321 0 47.125 0C48.4179 0 49.6579 0.513615 50.5721 1.42785C51.4864 2.34209 52 3.58207 52 4.875V36.5625C52 37.8554 51.4864 39.0954 50.5721 40.0096C49.6579 40.9239 48.4179 41.4375 47.125 41.4375ZM47.125 31.6875C48.3244 31.688 49.4815 32.1306 50.375 32.9306V4.875C50.375 4.01305 50.0326 3.1864 49.4231 2.5769C48.8136 1.96741 47.987 1.625 47.125 1.625C46.263 1.625 45.4364 1.96741 44.8269 2.5769C44.2174 3.1864 43.875 4.01305 43.875 4.875V32.9306C44.7685 32.1306 45.9256 31.688 47.125 31.6875Z" fill="#808080"/>
<path d="M41.4375 4.0625H10.5625V5.6875H41.4375V4.0625Z" fill="#808080"/>
<path d="M41.4375 8.9375H10.5625V10.5625H41.4375V8.9375Z" fill="#808080"/>
<path d="M12.1875 6.5H10.5625V8.125H12.1875V6.5Z" fill="#808080"/>
<path d="M15.4375 6.5H13.8125V8.125H15.4375V6.5Z" fill="#808080"/>
<path d="M18.6875 6.5H17.0625V8.125H18.6875V6.5Z" fill="#808080"/>
<path d="M39.8125 6.5H22.75V8.125H39.8125V6.5Z" fill="#808080"/>
<path d="M20.3125 19.5H12.1875V13H20.3125V19.5ZM13.8125 17.875H18.6875V14.625H13.8125V17.875Z" fill="#808080"/>
<path d="M30.0625 19.5H21.9375V13H30.0625V19.5ZM23.5625 17.875H28.4375V14.625H23.5625V17.875Z" fill="#808080"/>
<path d="M39.8125 19.5H31.6875V13H39.8125V19.5ZM33.3125 17.875H38.1875V14.625H33.3125V17.875Z" fill="#808080"/>
<path d="M20.3125 25.1875H12.1875V21.125H20.3125V25.1875ZM13.8125 23.5625H18.6875V22.75H13.8125V23.5625Z" fill="#808080"/>
<path d="M30.0625 25.1875H21.9375V21.125H30.0625V25.1875ZM23.5625 23.5625H28.4375V22.75H23.5625V23.5625Z" fill="#808080"/>
<path d="M39.8125 25.1875H31.6875V21.125H39.8125V25.1875ZM33.3125 23.5625H38.1875V22.75H33.3125V23.5625Z" fill="#808080"/>
<path d="M20.3125 26.8125H12.1875V28.4375H20.3125V26.8125Z" fill="#808080"/>
<path d="M20.3125 30.4688H12.1875V32.0938H20.3125V30.4688Z" fill="#808080"/>
<path d="M17.875 34.125H12.1875V35.75H17.875V34.125Z" fill="#808080"/>
<path d="M20.3125 26.8125H12.1875V28.4375H20.3125V26.8125Z" fill="#808080"/>
<path d="M20.3125 30.4688H12.1875V32.0938H20.3125V30.4688Z" fill="#808080"/>
<path d="M17.875 34.125H12.1875V35.75H17.875V34.125Z" fill="#808080"/>
<path d="M30.0625 26.8125H21.9375V28.4375H30.0625V26.8125Z" fill="#808080"/>
<path d="M30.0625 30.4688H21.9375V32.0938H30.0625V30.4688Z" fill="#808080"/>
<path d="M27.625 34.125H21.9375V35.75H27.625V34.125Z" fill="#808080"/>
<path d="M30.0625 26.8125H21.9375V28.4375H30.0625V26.8125Z" fill="#808080"/>
<path d="M30.0625 30.4688H21.9375V32.0938H30.0625V30.4688Z" fill="#808080"/>
<path d="M27.625 34.125H21.9375V35.75H27.625V34.125Z" fill="#808080"/>
<path d="M39.8125 26.8125H31.6875V28.4375H39.8125V26.8125Z" fill="#808080"/>
<path d="M39.8125 30.4688H31.6875V32.0938H39.8125V30.4688Z" fill="#808080"/>
<path d="M37.375 34.125H31.6875V35.75H37.375V34.125Z" fill="#808080"/>
<path d="M39.8125 26.8125H31.6875V28.4375H39.8125V26.8125Z" fill="#808080"/>
<path d="M39.8125 30.4688H31.6875V32.0938H39.8125V30.4688Z" fill="#808080"/>
<path d="M37.375 34.125H31.6875V35.75H37.375V34.125Z" fill="#808080"/>
</g>
<defs>
<clipPath id="clip0_257_4337">
<rect width="52" height="52" fill="white"/>
</clipPath>
</defs>
</svg>
