<svg width="134" height="38" viewBox="0 0 134 38" fill="none" xmlns="http://www.w3.org/2000/svg">
<path d="M0.776544 31.6622C0.570541 31.6622 0.373224 31.5801 0.227559 31.4341C0.0818929 31.2881 0 31.09 0 30.8835V24.8601C0 24.6536 0.0818929 24.4556 0.227559 24.3096C0.373224 24.1636 0.570541 24.0815 0.776544 24.0815H6.36738L8.92362 21.6182V16.4181L6.48495 13.7699H0.776544C0.674542 13.7699 0.573533 13.7499 0.479295 13.7108C0.385058 13.6716 0.299685 13.6141 0.227559 13.5418C0.155432 13.4695 0.0982946 13.3837 0.0592601 13.2892C0.0202256 13.1948 0 13.0935 0 12.9913V6.96786C0 6.76136 0.0818929 6.56333 0.227559 6.41731C0.373224 6.2713 0.570541 6.18921 0.776544 6.18921H6.8296C6.93161 6.18921 7.03262 6.20948 7.12685 6.24861C7.22109 6.28774 7.30646 6.34501 7.37859 6.41731C7.45072 6.48961 7.50785 6.57543 7.54689 6.66989C7.58592 6.76436 7.60615 6.86561 7.60615 6.96786V12.3568L10.2899 15.2716H15.5048L18.3929 12.4892V6.96786C18.3929 6.76136 18.4748 6.56333 18.6205 6.41731C18.7661 6.2713 18.9639 6.18921 19.1699 6.18921H25.2235C25.4295 6.18921 25.6273 6.2713 25.7729 6.41731C25.9186 6.56333 26 6.76136 26 6.96786V12.9913C26 13.0935 25.9802 13.1948 25.9412 13.2892C25.9022 13.3837 25.845 13.4695 25.7729 13.5418C25.7008 13.6141 25.6149 13.6716 25.5207 13.7108C25.4265 13.7499 25.3255 13.7699 25.2235 13.7699H19.6331L16.526 16.7598V22.0737C16.526 22.2802 16.4441 22.4782 16.2984 22.6242C16.1528 22.7702 15.9554 22.8523 15.7494 22.8523H10.2065L7.6033 25.3612V30.8826C7.6033 30.9848 7.58308 31.0861 7.54404 31.1805C7.50501 31.275 7.44787 31.3608 7.37575 31.4331C7.30362 31.5054 7.21777 31.5627 7.12353 31.6018C7.0293 31.641 6.92829 31.6612 6.82629 31.6612L0.776544 31.6622ZM0.776544 22.7209C0.674542 22.7209 0.573533 22.7009 0.479295 22.6618C0.385058 22.6226 0.299685 22.5651 0.227559 22.4928C0.155432 22.4205 0.0982946 22.3347 0.0592601 22.2402C0.0202256 22.1458 0 22.0445 0 21.9423V15.9189C0 15.7124 0.0818929 15.5143 0.227559 15.3683C0.373224 15.2223 0.570541 15.1402 0.776544 15.1402H6.8296C6.93161 15.1402 7.03262 15.1605 7.12685 15.1996C7.22109 15.2387 7.30646 15.296 7.37859 15.3683C7.45072 15.4406 7.50785 15.5264 7.54689 15.6209C7.58592 15.7154 7.60615 15.8166 7.60615 15.9189V21.9423C7.60615 22.0445 7.58592 22.1458 7.54689 22.2402C7.50785 22.3347 7.45072 22.4205 7.37859 22.4928C7.30646 22.5651 7.22109 22.6226 7.12685 22.6618C7.03262 22.7009 6.93161 22.7209 6.8296 22.7209H0.776544Z" fill="white"/>
<path d="M9.92432 6.18921H16.0749C16.2843 6.18921 16.4852 6.27099 16.6332 6.41657C16.7813 6.56215 16.8645 6.7596 16.8645 6.96548V12.967C16.8645 13.1729 16.7813 13.3703 16.6332 13.5159C16.4852 13.6615 16.2843 13.7433 16.0749 13.7433H9.92432C9.71492 13.7433 9.51409 13.6615 9.36602 13.5159C9.21795 13.3703 9.13477 13.1729 9.13477 12.967V6.96548C9.13477 6.7596 9.21795 6.56215 9.36602 6.41657C9.51409 6.27099 9.71492 6.18921 9.92432 6.18921V6.18921Z" fill="#CCE70B"/>
<path d="M40.784 21.1892V14.7952H48.213V11.9892H40.784V8.65421H48.374V5.84821H37.518V21.1892H40.784ZM54.9816 13.5302C54.9816 18.1532 58.3626 21.4652 62.9856 21.4652C67.6316 21.4652 71.0126 18.1532 71.0126 13.5302C71.0126 8.90721 67.6316 5.59521 62.9856 5.59521C58.3626 5.59521 54.9816 8.90721 54.9816 13.5302ZM67.6546 13.5302C67.6546 16.3822 65.8146 18.5672 62.9856 18.5672C60.1566 18.5672 58.3396 16.3822 58.3396 13.5302C58.3396 10.6552 60.1566 8.49321 62.9856 8.49321C65.8146 8.49321 67.6546 10.6552 67.6546 13.5302ZM85.6786 21.4652C89.1746 21.4652 91.1066 19.6022 92.2106 17.6932L89.4046 16.3362C88.7606 17.6012 87.3806 18.5672 85.6786 18.5672C83.0106 18.5672 80.9866 16.4282 80.9866 13.5302C80.9866 10.6322 83.0106 8.49321 85.6786 8.49321C87.3806 8.49321 88.7606 9.48221 89.4046 10.7242L92.2106 9.34421C91.1296 7.43521 89.1746 5.59521 85.6786 5.59521C81.1936 5.59521 77.6286 8.81521 77.6286 13.5302C77.6286 18.2452 81.1936 21.4652 85.6786 21.4652ZM99.2146 15.0712C99.2146 18.8432 101.4 21.4652 106.092 21.4652C110.738 21.4652 112.923 18.8662 112.923 15.0482V5.84821H109.611V14.9562C109.611 17.0952 108.438 18.5672 106.092 18.5672C103.7 18.5672 102.527 17.0952 102.527 14.9562V5.84821H99.2146V15.0712ZM119.95 19.0272C121.399 20.4762 123.515 21.4652 126.459 21.4652C130.599 21.4652 132.6 19.3492 132.6 16.5432C132.6 13.1392 129.38 12.3802 126.85 11.8052C125.079 11.3912 123.791 11.0692 123.791 10.0342C123.791 9.11421 124.573 8.47021 126.045 8.47021C127.54 8.47021 129.196 8.99921 130.438 10.1492L132.255 7.75721C130.737 6.35421 128.713 5.61821 126.275 5.61821C122.664 5.61821 120.456 7.68821 120.456 10.2412C120.456 13.6682 123.676 14.3582 126.183 14.9332C127.954 15.3472 129.288 15.7382 129.288 16.8882C129.288 17.7622 128.414 18.6132 126.62 18.6132C124.504 18.6132 122.825 17.6702 121.744 16.5432L119.95 19.0272Z" fill="white"/>
<path d="M38.088 33.1892V29.6372H42.18V28.5812H38.088V26.2412H42.264V25.1852H36.888V33.1892H38.088ZM53.912 33.1892V32.1332H50.276V25.1852H49.076V33.1892H53.912ZM60.0256 29.1932C60.0256 31.5692 61.6696 33.3332 64.0576 33.3332C66.4456 33.3332 68.0896 31.5692 68.0896 29.1932C68.0896 26.8172 66.4456 25.0532 64.0576 25.0532C61.6696 25.0532 60.0256 26.8172 60.0256 29.1932ZM66.8536 29.1932C66.8536 30.9452 65.7496 32.2652 64.0576 32.2652C62.3416 32.2652 61.2616 30.9452 61.2616 29.1932C61.2616 27.4292 62.3416 26.1212 64.0576 26.1212C65.7496 26.1212 66.8536 27.4292 66.8536 29.1932ZM74.7214 29.1932C74.7214 31.5692 76.3654 33.3332 78.7534 33.3332C81.1414 33.3332 82.7854 31.5692 82.7854 29.1932C82.7854 26.8172 81.1414 25.0532 78.7534 25.0532C76.3654 25.0532 74.7214 26.8172 74.7214 29.1932ZM81.5494 29.1932C81.5494 30.9452 80.4454 32.2652 78.7534 32.2652C77.0374 32.2652 75.9574 30.9452 75.9574 29.1932C75.9574 27.4292 77.0374 26.1212 78.7534 26.1212C80.4454 26.1212 81.5494 27.4292 81.5494 29.1932ZM95.7532 33.1892L93.7012 29.9852C94.7212 29.8532 95.6932 29.0852 95.6932 27.6452C95.6932 26.1692 94.6492 25.1852 93.1252 25.1852H89.7532V33.1892H90.9532V30.1052H92.4532L94.3612 33.1892H95.7532ZM94.4572 27.6452C94.4572 28.4852 93.8332 29.0492 92.9692 29.0492H90.9532V26.2412H92.9692C93.8332 26.2412 94.4572 26.8052 94.4572 27.6452ZM103.891 33.1892V25.1852H102.691V33.1892H103.891ZM117.991 33.1892V25.1852H116.791V31.1852L112.435 25.1852H111.199V33.1892H112.399V27.0452L116.827 33.1892H117.991ZM124.95 29.1932C124.95 31.6892 126.81 33.3452 129.102 33.3452C130.458 33.3452 131.562 32.7812 132.33 31.9292V28.9892H128.562V30.0452H131.13V31.4852C130.746 31.8452 129.99 32.2772 129.102 32.2772C127.434 32.2772 126.186 30.9812 126.186 29.1932C126.186 27.3932 127.434 26.1212 129.102 26.1212C130.038 26.1212 130.842 26.5892 131.298 27.2012L132.27 26.6372C131.598 25.7372 130.602 25.0532 129.102 25.0532C126.81 25.0532 124.95 26.6972 124.95 29.1932Z" fill="white"/>
</svg>
