<?xml version="1.0" encoding="UTF-8"?>
<svg id="a" data-name="Layer 1" xmlns="http://www.w3.org/2000/svg" viewBox="0 0 430.01 108.78">
  <defs>
    <style>
      .b {
        fill: #fff;
      }

      .c {
        fill: #cce70b;
      }
    </style>
  </defs>
  <g>
    <path class="b" d="m2.16,70.89c-.57,0-1.12-.23-1.53-.63-.41-.41-.63-.96-.63-1.53v-16.76c0-.57.23-1.13.63-1.53.41-.41.95-.63,1.53-.63h15.56l7.11-6.86v-14.47l-6.79-7.37H2.16c-.28,0-.56-.06-.83-.16-.26-.11-.5-.27-.7-.47-.2-.2-.36-.44-.47-.7-.11-.26-.16-.54-.16-.83V2.17c0-.57.23-1.13.63-1.53.41-.41.95-.63,1.53-.63h16.85c.28,0,.57.06.83.17.26.11.5.27.7.47.2.2.36.44.47.7.11.26.16.54.16.83v15l7.47,8.11h14.51l8.04-7.74V2.17c0-.57.23-1.13.63-1.53.41-.41.96-.63,1.53-.63h16.85c.57,0,1.12.23,1.53.63.41.41.63.96.63,1.53v16.76c0,.28-.06.57-.16.83-.11.26-.27.5-.47.7-.2.2-.44.36-.7.47-.26.11-.54.16-.83.16h-15.56l-8.65,8.32v14.79c0,.57-.23,1.13-.63,1.53-.41.41-.95.63-1.53.63h-15.43l-7.24,6.98v15.37c0,.28-.06.57-.16.83-.11.26-.27.5-.47.7-.2.2-.44.36-.7.47-.26.11-.54.17-.83.17H2.16Zm0-24.88c-.28,0-.56-.06-.83-.16-.26-.11-.5-.27-.7-.47-.2-.2-.36-.44-.47-.7-.11-.26-.16-.54-.16-.83v-16.76c0-.57.23-1.13.63-1.53.41-.41.95-.63,1.53-.63h16.85c.28,0,.57.06.83.17.26.11.5.27.7.47.2.2.36.44.47.7.11.26.16.54.16.83v16.76c0,.28-.06.57-.16.83-.11.26-.27.5-.47.7-.2.2-.44.36-.7.47-.26.11-.54.16-.83.16H2.16Z"/>
    <path class="c" d="m27.62,0h17.12c.58,0,1.14.23,1.55.63.41.41.64.95.64,1.53v16.7c0,.57-.23,1.12-.64,1.53-.41.41-.97.63-1.55.63h-17.12c-.58,0-1.14-.23-1.55-.63-.41-.41-.64-.95-.64-1.53V2.16c0-.57.23-1.12.64-1.53.41-.41.97-.63,1.55-.63h0Z"/>
  </g>
  <path class="b" d="m94.85,29.6c0,17.05,14.6,29.26,34.56,29.26s34.66-12.21,34.66-29.26S149.47.34,129.41.34s-34.56,12.21-34.56,29.26Zm54.72,0c0,10.52-7.95,18.57-20.16,18.57s-20.06-8.06-20.06-18.57,7.85-18.57,20.06-18.57,20.16,7.97,20.16,18.57Zm77.83,29.26c15.1,0,23.44-6.87,28.21-13.91l-12.12-5c-2.78,4.66-8.74,8.23-16.09,8.23-11.52,0-20.26-7.89-20.26-18.57s8.74-18.57,20.26-18.57c7.35,0,13.31,3.65,16.09,8.23l12.12-5.09c-4.67-7.04-13.11-13.82-28.21-13.82-19.37,0-34.76,11.87-34.76,29.26s15.39,29.26,34.76,29.26Zm58.45-23.58c0,13.91,9.44,23.58,29.7,23.58s29.5-9.58,29.5-23.66V1.27h-14.3v33.58c0,7.89-5.07,13.32-15.2,13.32s-15.39-5.43-15.39-13.32V1.27h-14.3v34.01Zm89.54,14.59c6.26,5.34,15.39,8.99,28.11,8.99,17.88,0,26.52-7.8,26.52-18.15,0-12.55-13.9-15.35-24.83-17.47-7.65-1.53-13.21-2.71-13.21-6.53,0-3.39,3.38-5.77,9.73-5.77s13.61,1.95,18.97,6.19l7.85-8.82c-6.55-5.17-15.29-7.89-25.82-7.89-15.59,0-25.13,7.63-25.13,17.05,0,12.64,13.9,15.18,24.73,17.3,7.65,1.53,13.41,2.97,13.41,7.21,0,3.22-3.77,6.36-11.52,6.36-9.14,0-16.39-3.48-21.05-7.63l-7.75,9.16Z"/>
  <path class="b" d="m65.19,108.34v-9.98h14.06v-2.97h-14.06v-6.58h14.34v-2.97h-18.47v22.5h4.12Zm54.36,0v-2.97h-12.49v-19.53h-4.12v22.5h16.61Zm21-11.23c0,6.68,5.65,11.64,13.85,11.64s13.85-4.96,13.85-11.64-5.65-11.64-13.85-11.64-13.85,4.96-13.85,11.64Zm23.45,0c0,4.92-3.79,8.64-9.6,8.64s-9.6-3.71-9.6-8.64,3.71-8.64,9.6-8.64,9.6,3.68,9.6,8.64Zm27.03,0c0,6.68,5.65,11.64,13.85,11.64s13.85-4.96,13.85-11.64-5.65-11.64-13.85-11.64-13.85,4.96-13.85,11.64Zm23.45,0c0,4.92-3.79,8.64-9.6,8.64s-9.6-3.71-9.6-8.64,3.71-8.64,9.6-8.64,9.6,3.68,9.6,8.64Zm48.79,11.23l-7.05-9.01c3.5-.37,6.84-2.53,6.84-6.58s-3.59-6.91-8.82-6.91h-11.58v22.5h4.12v-8.67h5.15l6.55,8.67h4.78Zm-4.45-15.58c0,2.36-2.14,3.95-5.11,3.95h-6.92v-7.89h6.92c2.97,0,5.11,1.59,5.11,3.95Zm32.41,15.58v-22.5h-4.12v22.5h4.12Zm48.43,0v-22.5h-4.12v16.87l-14.96-16.87h-4.25v22.5h4.12v-17.27l15.21,17.27h4Zm23.9-11.23c0,7.02,6.39,11.67,14.26,11.67,4.66,0,8.45-1.59,11.09-3.98v-8.26h-12.94v2.97h8.82v4.05c-1.32,1.01-3.92,2.23-6.97,2.23-5.73,0-10.02-3.64-10.02-8.67s4.29-8.64,10.02-8.64c3.22,0,5.98,1.32,7.54,3.04l3.34-1.59c-2.31-2.53-5.73-4.45-10.88-4.45-7.87,0-14.26,4.62-14.26,11.64Z"/>
</svg>