<?xml version="1.0" encoding="utf-8"?>
<!-- Generator: Adobe Illustrator 27.1.1, SVG Export Plug-In . SVG Version: 6.00 Build 0)  -->
<svg version="1.1" id="Layer_1" xmlns="http://www.w3.org/2000/svg" xmlns:xlink="http://www.w3.org/1999/xlink" x="0px" y="0px"
	 viewBox="0 0 32 32" style="enable-background:new 0 0 32 32;" xml:space="preserve">
<style type="text/css">
	.st0{fill:#000;}
</style>
<path id="Union_73" class="st0" d="M20.8,32H0.5C0.2,32,0,31.8,0,31.5c0,0,0,0,0,0v-31C0,0.2,0.2,0,0.5,0l0,0h31
	C31.8,0,32,0.2,32,0.5c0,0,0,0,0,0v31c0,0.3-0.2,0.5-0.5,0.5l0,0L20.8,32z M31,31v-9.7h-9.7V31H31z M20.4,31v-9.7h-8.7V31H20.4z
	 M10.7,31v-9.7H1V31H10.7z M31,20.4v-8.7h-9.7v8.7H31z M20.4,20.4v-8.7h-8.7v8.7H20.4z M10.7,20.4v-9.2c0-0.3,0.2-0.5,0.5-0.5l0,0
	h9.2V1H1v19.4L10.7,20.4z M31,10.7V1h-9.7v9.7H31z M7.3,17.4c-0.2-0.4-0.4-0.9-0.6-0.9S6.3,17,6.1,17.4c-0.3,0.7-0.6,1.5-1.5,1.5
	s-1.2-0.8-1.5-1.5c-0.2-0.4-0.4-0.9-0.6-0.9c-0.3,0-0.5-0.2-0.5-0.5c0,0,0,0,0,0c0-0.3,0.2-0.5,0.5-0.5l0,0c0.8,0,1.2,0.8,1.5,1.5
	c0.2,0.4,0.4,0.9,0.6,0.9s0.4-0.5,0.6-0.9c0.3-0.7,0.6-1.5,1.5-1.5l0,0c0.9,0,1.2,0.8,1.5,1.5c0.2,0.4,0.4,0.9,0.6,0.9
	c0,0,0.1,0,0.2-0.2c0.2-0.2,0.5-0.2,0.7-0.1c0,0,0,0,0,0c0.2,0.2,0.2,0.5,0.1,0.7c-0.2,0.3-0.6,0.5-1,0.5C8,18.9,7.6,18.1,7.3,17.4
	L7.3,17.4z M7.3,13.5c-0.2-0.4-0.4-0.9-0.6-0.9s-0.4,0.5-0.6,0.9C5.8,14.2,5.5,15,4.6,15s-1.2-0.8-1.5-1.5c-0.2-0.4-0.4-0.9-0.6-0.9
	c-0.3,0-0.5-0.2-0.5-0.5c0,0,0,0,0,0c0-0.3,0.2-0.5,0.5-0.5l0,0c0.8,0,1.2,0.8,1.5,1.5C4.2,13.5,4.4,14,4.6,14s0.4-0.5,0.6-0.9
	c0.3-0.7,0.6-1.5,1.5-1.5l0,0c0.9,0,1.2,0.8,1.5,1.5C8.4,13.5,8.6,14,8.8,14c0,0,0.1,0,0.2-0.2c0.2-0.2,0.5-0.2,0.7-0.1c0,0,0,0,0,0
	c0.2,0.2,0.2,0.5,0.1,0.7c-0.2,0.3-0.6,0.5-1,0.5C8,15,7.6,14.2,7.3,13.5L7.3,13.5z M16.6,8.7c-0.3-0.5-0.4-0.9-0.7-0.9
	s-0.4,0.4-0.6,0.9c-0.3,0.7-0.7,1.5-1.6,1.5s-1.3-0.8-1.6-1.5c-0.2-0.5-0.4-0.9-0.7-0.9S11,8.1,10.8,8.7c-0.3,0.7-0.7,1.5-1.6,1.5
	S8,9.3,7.7,8.7C7.4,8.1,7.2,7.8,7,7.8l0,0c-0.2,0-0.4,0.4-0.7,0.9C6,9.3,5.6,10.1,4.7,10.1S3.5,9.3,3.2,8.7C2.9,8.1,2.7,7.8,2.5,7.8
	C2.2,7.8,2,7.5,2,7.3c0,0,0,0,0,0C2,7,2.2,6.8,2.5,6.8l0,0c0.9,0,1.3,0.8,1.6,1.5c0.2,0.5,0.4,0.9,0.7,0.9s0.4-0.4,0.7-0.9
	C5.7,7.6,6.1,6.8,7,6.8l0,0c0.9,0,1.3,0.8,1.6,1.5C8.8,8.8,9,9.2,9.2,9.2s0.4-0.4,0.7-0.9c0.3-0.7,0.7-1.5,1.6-1.5s1.2,0.8,1.5,1.5
	c0.3,0.6,0.4,0.9,0.7,0.9s0.4-0.4,0.7-0.9c0.3-0.6,0.7-1.4,1.5-1.4s1.2,0.8,1.6,1.5c0.2,0.4,0.4,0.9,0.7,0.9c0.1,0,0.1,0,0.3-0.3
	c0.2-0.2,0.5-0.3,0.7-0.1c0,0,0,0,0,0c0.2,0.2,0.3,0.5,0.1,0.7c-0.2,0.4-0.7,0.7-1.1,0.7C17.3,10.1,16.9,9.3,16.6,8.7L16.6,8.7z
	 M16.6,3.9C16.4,3.4,16.2,3,15.9,3s-0.4,0.4-0.6,0.9c-0.3,0.7-0.7,1.5-1.6,1.5s-1.3-0.8-1.6-1.5C11.9,3.4,11.7,3,11.5,3
	S11,3.4,10.8,3.9c-0.3,0.7-0.7,1.5-1.6,1.5S8,4.6,7.7,3.9C7.4,3.4,7.2,3,7,3l0,0C6.7,3,6.6,3.4,6.3,3.9C6,4.6,5.6,5.4,4.7,5.4
	S3.5,4.6,3.2,3.9C2.9,3.4,2.7,3,2.5,3C2.2,3,2,2.8,2,2.5c0,0,0,0,0,0C2,2.3,2.2,2,2.5,2l0,0c0.9,0,1.3,0.8,1.6,1.5
	C4.3,4,4.5,4.4,4.7,4.4S5.2,4,5.4,3.5C5.7,2.9,6.1,2,7,2l0,0c0.9,0,1.3,0.8,1.6,1.5C8.8,4,9,4.4,9.2,4.4S9.7,4,9.9,3.5
	C10.2,2.9,10.6,2,11.5,2s1.2,0.8,1.5,1.5c0.3,0.6,0.4,0.9,0.7,0.9s0.4-0.4,0.7-0.9C14.7,2.8,15.1,2,15.9,2s1.2,0.8,1.6,1.5
	c0.2,0.4,0.4,0.9,0.7,0.9c0.1,0,0.1,0,0.3-0.3C18.7,3.9,19,3.9,19.2,4c0,0,0,0,0,0c0.2,0.2,0.3,0.5,0.1,0.7c0,0,0,0,0,0
	c-0.2,0.4-0.7,0.7-1.1,0.7C17.3,5.4,16.9,4.6,16.6,3.9L16.6,3.9z"/>
</svg>
