<?xml version="1.0" encoding="utf-8"?>
<!-- Generator: Adobe Illustrator 27.1.1, SVG Export Plug-In . SVG Version: 6.00 Build 0)  -->
<svg version="1.1" id="Layer_1" xmlns="http://www.w3.org/2000/svg" xmlns:xlink="http://www.w3.org/1999/xlink" x="0px" y="0px"
	 viewBox="0 0 32 32" style="enable-background:new 0 0 32 32;" xml:space="preserve">
<style type="text/css">
	.st0{fill:#000;}
</style>
<g id="Group_689" transform="translate(-1083 -1571.5)">
	<path id="Intersection_1" class="st0" d="M1110.8,1603.3l1.5-1.5c0.2-0.2,0.4-0.2,0.6,0c0.2,0.2,0.2,0.4,0,0.6c0,0,0,0,0,0l-1,1
		L1110.8,1603.3z M1106.8,1603.3l3.4-3.4c0.2-0.2,0.4-0.2,0.6,0s0.2,0.4,0,0.6c0,0,0,0,0,0l-2.8,2.8L1106.8,1603.3z M1102.8,1603.3
		l5.3-5.3c0.2-0.2,0.4-0.2,0.6,0s0.2,0.4,0,0.6c0,0,0,0,0,0l-4.7,4.7L1102.8,1603.3z M1096,1603.3l1.1-1.1c0.2-0.2,0.4-0.2,0.6,0
		s0.2,0.4,0,0.6c0,0,0,0,0,0l-0.5,0.5L1096,1603.3z M1092,1603.3l2.9-2.9c0.2-0.2,0.4-0.2,0.6,0c0.2,0.2,0.2,0.4,0,0.6c0,0,0,0,0,0
		l-2.4,2.4H1092z M1088,1603.3l4.8-4.8c0.2-0.2,0.4-0.2,0.6,0c0.2,0.2,0.2,0.4,0,0.6c0,0,0,0,0,0l-4.2,4.2H1088z M1085.3,1602.6
		c-0.2-0.2-0.2-0.4,0-0.6l5.4-5.4c0.2-0.2,0.4-0.2,0.6,0c0.2,0.2,0.2,0.4,0,0.6l-5.4,5.4C1085.7,1602.8,1085.5,1602.8,1085.3,1602.6
		L1085.3,1602.6z M1100.6,1602.1c-0.2-0.2-0.2-0.4,0-0.6l5.4-5.4c0.2-0.2,0.4-0.1,0.6,0c0.1,0.2,0.1,0.4,0,0.6l-5.4,5.4
		C1101,1602.3,1100.7,1602.3,1100.6,1602.1C1100.6,1602.1,1100.6,1602.1,1100.6,1602.1L1100.6,1602.1z M1113.3,1601.2l-5.4-5.4
		c-0.2-0.2-0.2-0.4,0-0.6s0.4-0.2,0.6,0c0,0,0,0,0,0l5.4,5.4c0.2,0.2,0.2,0.4,0,0.6C1113.7,1601.4,1113.5,1601.4,1113.3,1601.2
		L1113.3,1601.2z M1098.7,1601.2l-5.4-5.4c-0.2-0.2-0.2-0.4,0-0.6s0.4-0.2,0.6,0c0,0,0,0,0,0l5.4,5.4c0.2,0.2,0.1,0.4,0,0.6
		C1099.1,1601.3,1098.9,1601.3,1098.7,1601.2L1098.7,1601.2z M1083.7,1601l-0.5-0.5v-1.2l1.1,1.1c0.2,0.2,0.2,0.4,0,0.6
		C1084.1,1601.1,1083.8,1601.1,1083.7,1601z M1100.6,1599.1l-5.4-5.4c-0.2-0.2-0.2-0.4,0-0.6c0.2-0.2,0.4-0.2,0.6,0l5.4,5.4
		c0.2,0.2,0.2,0.4,0,0.6C1101,1599.2,1100.8,1599.2,1100.6,1599.1L1100.6,1599.1z M1085.5,1598.9l-2.4-2.4v-1.2l2.9,2.9
		c0.2,0.2,0.2,0.4,0,0.6C1085.9,1599,1085.7,1599,1085.5,1598.9L1085.5,1598.9z M1109.8,1593.7c-0.2-0.2-0.2-0.4,0-0.6
		c0.2-0.2,0.4-0.2,0.6,0c0,0,0,0,0,0l4.5,4.5v1.2L1109.8,1593.7z M1102.5,1597l-5.4-5.4c-0.2-0.2-0.2-0.4,0-0.6
		c0.2-0.2,0.4-0.2,0.6,0l5.4,5.4c0.2,0.2,0.2,0.4,0,0.6S1102.7,1597.1,1102.5,1597C1102.5,1597,1102.5,1597,1102.5,1597z
		 M1087.4,1596.7l-4.2-4.2v-1.2l4.8,4.8c0.2,0.2,0.2,0.4,0,0.6S1087.6,1596.9,1087.4,1596.7
		C1087.4,1596.8,1087.4,1596.7,1087.4,1596.7L1087.4,1596.7z M1104.4,1594.8l-5.4-5.4c-0.2-0.2-0.2-0.4,0-0.6s0.4-0.2,0.6,0
		c0,0,0,0,0,0l5.4,5.4c0.2,0.2,0.2,0.4,0,0.6S1104.6,1595,1104.4,1594.8C1104.4,1594.9,1104.4,1594.9,1104.4,1594.8L1104.4,1594.8z
		 M1089.3,1594.6l-5.4-5.4c-0.2-0.2-0.2-0.4,0-0.6c0.2-0.2,0.4-0.2,0.6,0l5.4,5.4c0.2,0.2,0.2,0.4,0,0.6
		C1089.8,1594.8,1089.5,1594.8,1089.3,1594.6C1089.3,1594.6,1089.3,1594.6,1089.3,1594.6z M1111.7,1591.6c-0.2-0.2-0.2-0.4,0-0.6
		s0.4-0.2,0.6,0c0,0,0,0,0,0l2.6,2.6v1.2L1111.7,1591.6z M1106.5,1593.4c-0.2-0.2-0.2-0.4,0-0.6l5.4-5.4c0.2-0.2,0.4-0.1,0.6,0
		c0.1,0.2,0.1,0.4,0,0.6l-5.4,5.4C1106.9,1593.6,1106.6,1593.6,1106.5,1593.4z M1091.8,1593.3c-0.2-0.2-0.2-0.4,0-0.6l5.4-5.4
		c0.2-0.2,0.4-0.2,0.6,0c0.2,0.2,0.2,0.4,0,0.6c0,0,0,0,0,0l-5.4,5.4C1092.2,1593.5,1091.9,1593.5,1091.8,1593.3L1091.8,1593.3z
		 M1104.4,1591.6c-0.2-0.2-0.2-0.4,0-0.6c0,0,0,0,0,0l5.4-5.4c0.2-0.2,0.4-0.2,0.6,0c0.2,0.2,0.2,0.4,0,0.6c0,0,0,0,0,0l-5.4,5.4
		C1104.8,1591.7,1104.5,1591.7,1104.4,1591.6L1104.4,1591.6z M1089.6,1591.4c-0.2-0.2-0.2-0.4,0-0.6l5.4-5.4c0.2-0.2,0.4-0.1,0.6,0
		c0.1,0.2,0.1,0.4,0,0.6l-5.4,5.4C1090.1,1591.6,1089.8,1591.6,1089.6,1591.4z M1113.5,1589.4c-0.2-0.2-0.1-0.4,0-0.6
		c0.2-0.1,0.4-0.1,0.6,0l0.7,0.7v1.2L1113.5,1589.4z M1102.2,1589.7c-0.2-0.2-0.2-0.4,0-0.6l5.4-5.4c0.2-0.2,0.4-0.2,0.6,0
		s0.2,0.4,0,0.6l-5.4,5.4C1102.7,1589.8,1102.4,1589.8,1102.2,1589.7C1102.2,1589.7,1102.2,1589.7,1102.2,1589.7z M1087.5,1589.6
		c-0.2-0.2-0.2-0.4,0-0.6l5.4-5.4c0.2-0.2,0.4-0.1,0.6,0c0.1,0.2,0.1,0.4,0,0.6l-5.4,5.4C1088,1589.7,1087.7,1589.7,1087.5,1589.6
		C1087.5,1589.6,1087.5,1589.6,1087.5,1589.6L1087.5,1589.6z M1100.1,1587.8c-0.2-0.2-0.2-0.4,0-0.6l5.4-5.4c0.2-0.2,0.4-0.2,0.6,0
		c0.2,0.2,0.2,0.4,0,0.6l-5.4,5.4C1100.5,1588,1100.3,1588,1100.1,1587.8L1100.1,1587.8z M1085.4,1587.7c-0.2-0.2-0.2-0.4,0-0.6
		l5.4-5.4c0.2-0.2,0.4-0.2,0.6,0s0.2,0.4,0,0.6c0,0,0,0,0,0l-5.4,5.4C1085.8,1587.8,1085.6,1587.8,1085.4,1587.7L1085.4,1587.7z
		 M1083.9,1586.6l-0.7-0.7v-1.2l1.3,1.3c0.2,0.2,0.2,0.4,0,0.6C1084.3,1586.8,1084.1,1586.8,1083.9,1586.6
		C1083.9,1586.6,1083.9,1586.6,1083.9,1586.6z M1113.5,1586.6l-5.4-5.4c-0.2-0.2-0.1-0.4,0-0.6c0.2-0.1,0.4-0.1,0.6,0l5.4,5.4
		c0.2,0.2,0.2,0.4,0,0.6S1113.7,1586.8,1113.5,1586.6C1113.6,1586.6,1113.5,1586.6,1113.5,1586.6z M1098.5,1586.4l-5.4-5.4
		c-0.2-0.2-0.1-0.4,0-0.6c0.2-0.1,0.4-0.1,0.6,0l5.4,5.4c0.2,0.2,0.2,0.4,0,0.6S1098.7,1586.6,1098.5,1586.4
		C1098.5,1586.4,1098.5,1586.4,1098.5,1586.4L1098.5,1586.4z M1085.8,1584.5l-2.6-2.6v-1.2l3.2,3.2c0.2,0.2,0.1,0.4,0,0.6
		C1086.2,1584.6,1085.9,1584.6,1085.8,1584.5z M1100.4,1584.3l-5.4-5.4c-0.2-0.2-0.1-0.4,0-0.6c0.2-0.1,0.4-0.1,0.6,0l5.4,5.4
		c0.2,0.2,0.2,0.4,0,0.6S1100.5,1584.4,1100.4,1584.3C1100.4,1584.3,1100.4,1584.3,1100.4,1584.3L1100.4,1584.3z M1110,1579.1
		c-0.2-0.2-0.2-0.4,0-0.6c0.2-0.2,0.4-0.2,0.6,0l4.2,4.2v1.2L1110,1579.1z M1087.7,1582.4l-4.5-4.5v-1.2l5.1,5.1
		c0.2,0.2,0.2,0.4,0,0.6S1087.8,1582.6,1087.7,1582.4C1087.7,1582.4,1087.7,1582.4,1087.7,1582.4z M1102.2,1582.1l-5.4-5.4
		c-0.2-0.2-0.2-0.4,0-0.6c0.2-0.2,0.4-0.2,0.6,0c0,0,0,0,0,0l5.4,5.4c0.2,0.2,0.2,0.4,0,0.6
		C1102.7,1582.3,1102.4,1582.3,1102.2,1582.1L1102.2,1582.1z M1089.5,1580.3l-5.4-5.4c-0.2-0.2-0.2-0.4,0-0.6c0.2-0.2,0.4-0.2,0.6,0
		l5.4,5.4c0.2,0.2,0.1,0.4,0,0.6C1089.9,1580.4,1089.7,1580.4,1089.5,1580.3z M1104.1,1580l-5.4-5.4c-0.2-0.2-0.2-0.4,0-0.6
		s0.4-0.2,0.6,0c0,0,0,0,0,0l5.4,5.4c0.2,0.2,0.2,0.4,0,0.6C1104.5,1580.2,1104.3,1580.2,1104.1,1580L1104.1,1580z M1111.9,1577
		c-0.2-0.2-0.1-0.4,0-0.6c0.2-0.1,0.4-0.1,0.6,0l2.4,2.4v1.2L1111.9,1577z M1091.9,1578.4c-0.2-0.2-0.2-0.4,0-0.6c0,0,0,0,0,0
		l5.4-5.4c0.2-0.2,0.4-0.2,0.6,0c0.2,0.2,0.2,0.4,0,0.6l-5.4,5.4C1092.3,1578.5,1092,1578.5,1091.9,1578.4L1091.9,1578.4z
		 M1106.8,1578.3c-0.2-0.2-0.2-0.4,0-0.6c0,0,0,0,0,0l5.4-5.4c0.2-0.2,0.4-0.2,0.6,0c0.2,0.2,0.2,0.4,0,0.6l-5.4,5.4
		C1107.2,1578.4,1107,1578.4,1106.8,1578.3L1106.8,1578.3z M1089.8,1576.5c-0.2-0.2-0.2-0.4,0-0.6l4.2-4.2h1.2l-4.8,4.8
		C1090.2,1576.7,1089.9,1576.7,1089.8,1576.5L1089.8,1576.5z M1104.7,1576.4c-0.2-0.2-0.2-0.4,0-0.6l4.1-4.1h1.2l-4.7,4.7
		C1105.1,1576.5,1104.9,1576.5,1104.7,1576.4z M1113.8,1574.8c-0.2-0.2-0.2-0.4,0-0.6s0.4-0.2,0.6,0c0,0,0,0,0,0l0.5,0.5v1.2
		L1113.8,1574.8z M1087.6,1574.6c-0.2-0.2-0.2-0.4,0-0.6l2.4-2.4h1.2l-2.9,2.9C1088.1,1574.8,1087.8,1574.8,1087.6,1574.6z
		 M1102.6,1574.5c-0.2-0.2-0.2-0.4,0-0.6l2.2-2.2h1.2l-2.8,2.8C1103,1574.7,1102.8,1574.7,1102.6,1574.5L1102.6,1574.5z
		 M1085.5,1572.7c-0.2-0.2-0.2-0.4,0-0.6l0.5-0.5h1.2l-1.1,1.1C1085.9,1572.9,1085.7,1572.9,1085.5,1572.7
		C1085.5,1572.7,1085.5,1572.7,1085.5,1572.7z M1100.5,1572.6c-0.2-0.2-0.2-0.4,0-0.6l0.4-0.4h1.2l-0.9,0.9
		C1100.9,1572.8,1100.6,1572.8,1100.5,1572.6C1100.5,1572.6,1100.5,1572.6,1100.5,1572.6L1100.5,1572.6z"/>
	<path id="Rectangle_687" class="st0" d="M1083.9,1572.4v30.3h30.3v-30.3H1083.9 M1083,1571.5h32v32h-32V1571.5z"/>
</g>
</svg>
