<?xml version="1.0" encoding="utf-8"?>
<!-- Generator: Adobe Illustrator 27.1.1, SVG Export Plug-In . SVG Version: 6.00 Build 0)  -->
<svg version="1.1" id="Layer_1" xmlns="http://www.w3.org/2000/svg" xmlns:xlink="http://www.w3.org/1999/xlink" x="0px" y="0px"
	 viewBox="0 0 33 33" style="enable-background:new 0 0 33 33;" xml:space="preserve">
<style type="text/css">
	.st0{fill:#000;}
</style>
<path id="Union_79" class="st0" d="M28.5,33h-28C0.2,33,0,32.8,0,32.5v-32C0,0.2,0.2,0,0.5,0h32C32.8,0,33,0.2,33,0.5v32
	c0,0.3-0.2,0.5-0.5,0.5H28.5z M32,32L32,32z M26,32h2v-3h-2V32z M22,32h3v-4h-3V32z M19,32h2v-9h-2V32z M15,32h3V20h-3V32z M12,32h2
	V16h-2V32z M11,32v-3H8v3H11z M5,32h2v-6H5V32z M1,32h3V21H1V32z M29,31h3V15h-3V31z M28,28V12h-2v16H28z M11,28V12H8v16H11z M25,27
	V11h-3v16H25z M7,25V8H5v17H7z M21,22V6h-2v16H21z M1,20h3V4H1V20z M18,19V3h-3v16H18z M14,15V1h-2v14H14z M32,14V1h-3v13H32z
	 M28,11V1h-2v10H28z M8,11h3V1H8V11z M25,10V1h-3v9H25z M7,7V1H5v6H7z M21,5V1h-2v4H21z M1,3h3V1H1V3z M18,2V1h-3v1H18z"/>
</svg>
