<svg xmlns="http://www.w3.org/2000/svg" width="32" height="32.021" viewBox="0 0 32 32.021">
  <g id="Group_683" data-name="Group 683" transform="translate(-463 -1053.979)">
    <g id="Group_769" data-name="Group 769" transform="translate(388 -1170.021)">
      <path id="Rectangle_631" data-name="Rectangle 631" d="M1.5,1.5v29h29V1.5H1.5M0,0H32V32H0Z" transform="translate(75 2224)" fill="#3f3f3f"/>
      <path id="Path_250" data-name="Path 250" d="M3972.042,1592l-1.108-1.011c.031-.034,3.083-3.38,4.845-5.363a12.19,12.19,0,0,1,10.025-4.015l.324.023c4.2.3,7.235.512,10.487-1.771a15.749,15.749,0,0,0,4.531-4.438l1.314.723a16.767,16.767,0,0,1-4.984,4.943c-3.687,2.589-7.115,2.346-11.454,2.04l-.323-.023c-.282-.02-.559-.029-.829-.029a10.657,10.657,0,0,0-7.97,3.544C3975.131,1588.612,3972.072,1591.965,3972.042,1592Z" transform="translate(-3895.692 649.171)" fill="#3f3f3f"/>
      <path id="Path_251" data-name="Path 251" d="M3979.033,1583.91a29.164,29.164,0,0,0-3.179-4.884,7.873,7.873,0,0,0-4.423-2.641l.222-1.484a9.265,9.265,0,0,1,5.364,3.177,30.128,30.128,0,0,1,3.363,5.171Z" transform="translate(-3895.788 649.213)" fill="#3f3f3f"/>
      <path id="Path_252" data-name="Path 252" d="M4056.129,1591.6a18.657,18.657,0,0,1-3.126-.985,3.24,3.24,0,0,1-1.889-2.748,10.06,10.06,0,0,0-.4-1.441c-.316-.832-2.48-2.425-4.06-3.588a18.183,18.183,0,0,1-3.375-2.84,16.859,16.859,0,0,1-2-4.676l1.452-.378a15.643,15.643,0,0,0,1.763,4.172,19.068,19.068,0,0,0,3.052,2.514c2.476,1.823,4.132,3.1,4.572,4.263a11.426,11.426,0,0,1,.465,1.646c.234,1.042.348,1.417,1.007,1.694a17.3,17.3,0,0,0,2.845.9Z" transform="translate(-3950.059 649.131)" fill="#3f3f3f"/>
      <path id="Path_253" data-name="Path 253" d="M3975.725,1622.618a8.7,8.7,0,0,1-4.252-1.107l.732-1.309a7.206,7.206,0,0,0,3.519.915q.112,0,.223,0a7.065,7.065,0,0,0,3.867-1.3,8.883,8.883,0,0,0,3.448-6.936c.057-2.188-1.73-4.788-1.749-4.814l1.231-.857c.085.122,2.087,3.026,2.017,5.71a11.251,11.251,0,0,1-.975,4.274,9.259,9.259,0,0,1-3.107,3.849,8.561,8.561,0,0,1-4.687,1.573Q3975.86,1622.618,3975.725,1622.618Z" transform="translate(-3895.837 624.277)" fill="#3f3f3f"/>
      <path id="Path_254" data-name="Path 254" d="M3997.8,1677.446l-1.361-.63,0,.005a3.485,3.485,0,0,0-.017-2.507,20.2,20.2,0,0,0-2.177-3.379,15.511,15.511,0,0,1-1.789-2.772l1.408-.517a17.058,17.058,0,0,0,1.594,2.406,20.265,20.265,0,0,1,2.365,3.724A5.009,5.009,0,0,1,3997.8,1677.446Z" transform="translate(-3912.708 578.19)" fill="#3f3f3f"/>
      <path id="Path_255" data-name="Path 255" d="M4029.349,1640.741a13.224,13.224,0,0,1-6.527-2.224l.851-1.235a11.893,11.893,0,0,0,5.675,1.96l.172,0c2.4-.07,6.866-2.7,8.387-3.713l.829,1.25c-.238.158-5.862,3.865-9.172,3.962Q4029.457,1640.741,4029.349,1640.741Z" transform="translate(-3935.719 602.473)" fill="#3f3f3f"/>
      <path id="Path_256" data-name="Path 256" d="M4047.725,1666.029a7.964,7.964,0,0,1,.4-1.959,13.493,13.493,0,0,0,.559-2.715,6.783,6.783,0,0,0-1.07-2.753,6.411,6.411,0,0,1-.6-1.265,30.983,30.983,0,0,1-.024-4.9l1.5.075a33.228,33.228,0,0,0-.024,4.443,7,7,0,0,0,.466.922,7.7,7.7,0,0,1,1.258,3.519,14.182,14.182,0,0,1-.612,3.073,9.6,9.6,0,0,0-.348,1.52Z" transform="translate(-3954.378 589.992)" fill="#3f3f3f"/>
      <path id="Path_257" data-name="Path 257" d="M4055.629,1679.8l-.7-1.328a9.359,9.359,0,0,1,3.672-1.027c.264,0,.529,0,.81.009a7.631,7.631,0,0,0,3.669-.5c1.356-.764,2.92-1.737,2.936-1.746l.792,1.273c-.016.01-1.608,1-2.992,1.78a8.673,8.673,0,0,1-4.433.7c-.272,0-.528-.009-.778-.009A7.762,7.762,0,0,0,4055.629,1679.8Z" transform="translate(-3960.214 572.161)" fill="#3f3f3f"/>
    </g>
  </g>
</svg>
