<?xml version="1.0" encoding="utf-8"?>
<!-- Generator: Adobe Illustrator 27.1.1, SVG Export Plug-In . SVG Version: 6.00 Build 0)  -->
<svg version="1.1" id="Layer_1" xmlns="http://www.w3.org/2000/svg" xmlns:xlink="http://www.w3.org/1999/xlink" x="0px" y="0px"
	 viewBox="0 0 32.3 32" style="enable-background:new 0 0 32.3 32;" xml:space="preserve">
<style type="text/css">
	.st0{fill:#000;}
</style>
<path id="Union_82" class="st0" d="M21.6,32H0.1V15.1C0,14.8,0,14.5,0,14.3V0.3h0.1V0h32v16.6c0.1,0.4,0.2,0.8,0.2,1.2v13.9h-0.2V32
	H21.6z M31,30.9V16.7c-0.4-1.2-0.9-2.4-1.4-3.6c-0.6-1.1-1-2.4-1.2-3.6V1.1h-1.6v8.4c0.3,1.1,0.6,2.2,1.1,3.2c0.8,1.6,1.3,3.3,1.6,5
	v13.2H31z M28.4,30.9V17.7c-0.3-1.6-0.8-3.1-1.5-4.6c-0.6-1.2-1-2.4-1.2-3.6V1.1h-1.4v8.4c0.2,1.1,0.6,2.2,1,3.2
	c0.7,1.6,1.2,3.3,1.4,5v13.2H28.4z M25.7,30.9V17.7c-0.3-1.6-0.7-3.2-1.4-4.6c-0.5-1.2-0.9-2.4-1.1-3.6V1.1h-1.6v8.4
	c0.3,1.1,0.6,2.2,1.1,3.2c0.8,1.6,1.3,3.3,1.6,5v13.2H25.7z M23.2,30.9V17.7c-0.3-1.6-0.8-3.1-1.5-4.6l-0.1-0.2v18H23.2z M20.5,30.9
	V22c-0.2,0.5-0.3,1-0.5,1.4c-0.2,0.6-0.4,1.2-0.5,1.8v5.6H20.5z M18.5,30.9v-5.6c0.1-0.8,0.3-1.5,0.6-2.2c1-2.5,1.5-5.2,1.5-7.9
	c0-2.5-0.6-5-1.7-7.2c-0.4-0.7-0.6-1.5-0.7-2.4V1.1h-1.5v4.5c0.1,0.7,0.3,1.3,0.7,1.9c1.2,2.4,1.9,5,1.9,7.7c0,2.8-0.6,5.6-1.7,8.2
	c-0.3,0.6-0.4,1.2-0.6,1.8v5.6H18.5z M15.9,30.9v-5.6c0.1-0.8,0.3-1.5,0.6-2.2c1-2.5,1.6-5.2,1.6-7.9c0-2.5-0.6-5-1.8-7.2
	c-0.4-0.7-0.7-1.5-0.8-2.4V1.1h-1.4v4.5c-0.1,0.8-0.4,1.6-0.8,2.3c-1.2,2.2-1.8,4.6-1.8,7c0.1,2.8,0.6,5.5,1.6,8.1
	c0.3,0.7,0.5,1.5,0.6,2.3v5.6H15.9z M12.8,30.9v-5.6c-0.1-0.7-0.3-1.3-0.6-1.9c-0.2-0.5-0.4-1.1-0.6-1.8v9.3L12.8,30.9z M10.3,30.9
	v-8.4c-0.2-1.1-0.6-2.2-1-3.2c-0.7-1.6-1.1-3.3-1.4-5V1.1H6.4v13.2c0.3,1.6,0.7,3.1,1.3,4.6c0.5,1.2,0.8,2.4,1.1,3.6v8.4H10.3z
	 M7.6,30.9v-8.4c-0.2-1.1-0.6-2.2-1-3.2c-0.7-1.6-1.1-3.3-1.4-5V1.1H3.9v13.2c0.3,1.6,0.7,3.1,1.3,4.6c0.5,1.2,0.8,2.4,1.1,3.6v8.4
	H7.6z M5.2,30.9v-8.4c-0.2-1.1-0.6-2.2-1-3.2c-0.7-1.6-1.1-3.3-1.4-5V1.1H1.2v13.8c0.4,1.3,0.9,2.7,1.4,3.9c0.6,1.2,1,2.4,1.2,3.6
	v8.4H5.2z M1.2,30.9h1.5v-8.4c-0.3-1.1-0.6-2.2-1.1-3.2c-0.1-0.3-0.3-0.7-0.4-1L1.2,30.9z M9.1,14.3c0.3,1.6,0.7,3.1,1.3,4.6
	l0.2,0.5V1.1H9.1V14.3z M29.5,9.5c0.3,1.1,0.7,2.2,1.2,3.2c0.1,0.3,0.2,0.6,0.4,0.9V1.1h-1.5L29.5,9.5z M11.6,9.2
	c0.3-0.7,0.6-1.3,0.8-1.8c0.3-0.6,0.6-1.2,0.7-1.8V1.1h-1.5L11.6,9.2z M19.3,5.6c0.1,0.7,0.3,1.3,0.6,1.9c0.2,0.5,0.4,1,0.6,1.6v-8
	h-1.3V5.6z M12.1,15c0-3.3,1.1-6,2.5-6s2.5,2.7,2.5,6s-1.1,6-2.5,6S12.1,18.3,12.1,15z M13.8,11.3c-0.4,1.2-0.6,2.4-0.6,3.7
	c0,1.3,0.2,2.5,0.6,3.7c0.4,0.9,0.7,1.2,0.8,1.2c0.1,0,0.5-0.3,0.8-1.2c0.4-1.2,0.6-2.4,0.6-3.7c0-1.3-0.2-2.5-0.6-3.7
	c-0.4-0.9-0.7-1.2-0.8-1.2C14.5,10.1,14.1,10.4,13.8,11.3L13.8,11.3z"/>
</svg>
