<?xml version="1.0" encoding="utf-8"?>
<!-- Generator: Adobe Illustrator 27.1.1, SVG Export Plug-In . SVG Version: 6.00 Build 0)  -->
<svg version="1.1" id="Layer_1" xmlns="http://www.w3.org/2000/svg" xmlns:xlink="http://www.w3.org/1999/xlink" x="0px" y="0px"
	 viewBox="0 0 32 32" style="enable-background:new 0 0 32 32;" xml:space="preserve">
<style type="text/css">
	.st0{fill:#000;}
</style>
<g id="Group_680" transform="translate(-503.969 -1392.25)">
	<path id="Path_213" class="st0" d="M535.2,1403.5c0.2,0,0.4,0.1,0.5,0.2c0.2,0.1,0.3,0.3,0.3,0.6v19.3c0,0.4-0.3,0.7-0.7,0.8
		c0,0,0,0,0,0h-30.5c-0.4,0-0.7-0.3-0.7-0.7c0,0,0,0,0,0v-14.7c0-0.4,0.3-0.7,0.6-0.7l30.5-4.5
		C535.1,1403.5,535.2,1403.5,535.2,1403.5z M534.5,1422.8v-17.6l-29,4.3v13.3H534.5z"/>
	<path id="Line_30" class="st0" d="M534.9,1395.8H505c-0.4,0-0.7-0.3-0.8-0.7c0,0,0,0,0,0c0-0.4,0.3-0.7,0.7-0.8c0,0,0,0,0,0h29.9
		c0.4,0,0.7,0.3,0.7,0.7c0,0,0,0,0,0C535.7,1395.4,535.4,1395.7,534.9,1395.8C534.9,1395.8,534.9,1395.8,534.9,1395.8z"/>
	<path id="Line_32" class="st0" d="M531.9,1401.8c-0.4,0-0.8-0.3-0.8-0.8v-8c0-0.4,0.3-0.8,0.8-0.8s0.8,0.3,0.8,0.8v8
		C532.7,1401.4,532.4,1401.8,531.9,1401.8z"/>
	<path id="Line_34" class="st0" d="M522,1403.8c-0.4,0-0.8-0.3-0.8-0.8v-10c0-0.4,0.3-0.8,0.8-0.8s0.8,0.3,0.8,0.8v10
		C522.7,1403.4,522.4,1403.8,522,1403.8z"/>
	<path id="Line_46" class="st0" d="M527,1402.8c-0.4,0-0.8-0.3-0.8-0.8v-9c0-0.4,0.3-0.8,0.8-0.8s0.8,0.3,0.8,0.8v9
		C527.7,1402.4,527.4,1402.8,527,1402.8z"/>
	<path id="Line_35" class="st0" d="M517,1404.8c-0.4,0-0.8-0.3-0.8-0.8v-11c0-0.4,0.3-0.8,0.8-0.8s0.8,0.3,0.8,0.8v11
		C517.7,1404.4,517.4,1404.8,517,1404.8z"/>
	<path id="Line_36" class="st0" d="M512,1405.8c-0.4,0-0.8-0.3-0.8-0.8v-12c0-0.4,0.3-0.8,0.8-0.8c0.4,0,0.8,0.3,0.8,0.8v12
		C512.7,1405.4,512.4,1405.8,512,1405.8z"/>
	<path id="Line_37" class="st0" d="M507,1406.8c-0.4,0-0.8-0.3-0.8-0.8v-13c0-0.4,0.3-0.8,0.8-0.8s0.8,0.3,0.8,0.8v13
		C507.8,1406.4,507.4,1406.8,507,1406.8z"/>
	<path id="Line_31" class="st0" d="M534.9,1400.8H505c-0.4,0-0.7-0.3-0.8-0.7c0,0,0,0,0,0c0-0.4,0.3-0.7,0.7-0.8c0,0,0,0,0,0h29.9
		c0.4,0,0.7,0.3,0.7,0.7c0,0,0,0,0,0C535.7,1400.5,535.4,1400.8,534.9,1400.8C534.9,1400.8,534.9,1400.8,534.9,1400.8z"/>
</g>
</svg>
