<svg width="53" height="53" viewBox="0 0 53 53" fill="none" xmlns="http://www.w3.org/2000/svg">
<g clip-path="url(#clip0_257_4596)">
<path d="M47.0127 53H0V10.2605H41.8866V0H47.0127C48.6006 0 50.1235 0.630808 51.2463 1.75365C52.3692 2.8765 53 4.3994 53 5.98734V47.0127C53 48.6006 52.3692 50.1235 51.2463 51.2463C50.1235 52.3692 48.6006 53 47.0127 53ZM1.70594 51.2941H47.0127C48.146 51.2941 49.2328 50.8439 50.0342 50.0425C50.8356 49.2411 51.2858 48.1542 51.2858 47.0209C51.2858 45.8876 50.8356 44.8007 50.0342 43.9994C49.2328 43.198 48.146 42.7478 47.0127 42.7478H41.8866V11.9664H1.70594V51.2941ZM43.6008 41.0336H47.0209C47.8171 41.0327 48.6054 41.1912 49.3393 41.4998C50.0732 41.8085 50.7379 42.261 51.2941 42.8306V5.98734C51.2919 4.85471 50.841 3.7691 50.0401 2.96821C49.2392 2.16731 48.1536 1.71641 47.0209 1.71422H43.6008V41.0336Z" fill="#999999"/>
<path d="M46.1597 49.5799H3.42017V13.6807H42.7395V15.3866H5.1261V47.8739H46.1597C46.6115 47.8718 47.0441 47.6913 47.3636 47.3719C47.683 47.0524 47.8635 46.6198 47.8656 46.168V41.8866H49.5716V46.1597C49.5716 47.0654 49.2124 47.9341 48.5728 48.5752C47.9331 49.2164 47.0653 49.5777 46.1597 49.5799Z" fill="#999999"/>
<path d="M8.54627 17.1008H6.84033V18.8068H8.54627V17.1008Z" fill="#999999"/>
<path d="M11.9664 17.1008H10.2605V18.8068H11.9664V17.1008Z" fill="#999999"/>
<path d="M15.3866 17.1008H13.6807V18.8068H15.3866V17.1008Z" fill="#999999"/>
<path d="M42.7396 20.5127H4.27319V22.2186H42.7396V20.5127Z" fill="#999999"/>
<path d="M20.5127 35.8993H6.84033V23.9329H20.5127V35.8993ZM8.54627 34.1933H18.8067V25.6719H8.54627V34.1933Z" fill="#999999"/>
<path d="M35.8991 35.8993H22.2268V23.9329H35.8991V35.8993ZM23.9327 34.1933H34.1932V25.6719H23.9327V34.1933Z" fill="#999999"/>
<path d="M42.7396 35.8993H37.6135V23.9329H42.7396V25.6471H39.3195V34.1933H42.7396V35.8993Z" fill="#999999"/>
<path d="M46.1597 46.1597H6.84033V37.6134H42.7395V39.3193H8.54627V44.4537H44.4538V41.8865H46.1597V46.1597Z" fill="#999999"/>
<path d="M29.912 29.0671H28.2061V30.7731H29.912V29.0671Z" fill="#999999"/>
<path d="M14.5253 29.0671H12.8193V30.7731H14.5253V29.0671Z" fill="#999999"/>
</g>
<defs>
<clipPath id="clip0_257_4596">
<rect width="53" height="53" fill="white"/>
</clipPath>
</defs>
</svg>
