<svg width="52" height="52" viewBox="0 0 52 52" fill="none" xmlns="http://www.w3.org/2000/svg">
<g clip-path="url(#clip0_257_4466)">
<path d="M8.14256 23.5381H0.0244141V25.2118H8.14256V23.5381Z" fill="#999999"/>
<path d="M4.92452 22.75H3.25051V17.095H1.67401V22.75H0V15.4213H4.92452V22.75Z" fill="#999999"/>
<path d="M8.16693 22.7499H6.49292V8.92932H11.4174V12.2037H9.74343V10.6031H8.16693V22.7499Z" fill="#999999"/>
<path d="M17.9104 11.3912H16.2363V6.5487H14.668V11.3912H12.9858V4.86682H17.9104V11.3912Z" fill="#999999"/>
<path d="M24.4032 11.3913H22.7292V1.67375H21.1608V11.3913H19.4868V0H24.4032V11.3913Z" fill="#999999"/>
<path d="M51.9838 50.3262H23.5012V51.9999H51.9838V50.3262Z" fill="#999999"/>
<path d="M50.3423 49.66L48.5627 37.7893L46.5392 46.54L43.9307 40.4543L40.6314 49.5218L38.1285 42.8593L35.9101 48.0431L34.1629 45.4268L31.8551 49.27L30.1973 47.6043L29.1328 49.1887L27.7432 48.2625L29.9373 44.98L31.5219 46.5643L34.0817 42.2906L35.585 44.5412L38.2342 38.3662L40.607 44.6875L43.8007 35.8962L46.0598 41.1693L48.9121 28.8193L52.0001 49.4162L50.3423 49.66Z" fill="#999999"/>
<path d="M42.6224 25.2525L42.0536 23.6763C43.959 22.9955 45.6484 21.8191 46.9476 20.2681C48.2467 18.7171 49.1087 16.8477 49.4446 14.8527C49.7804 12.8577 49.5781 10.8092 48.8584 8.91842C48.1387 7.02764 46.9276 5.36299 45.3501 4.09608C43.7726 2.82917 41.8856 2.00584 39.8838 1.71096C37.882 1.41609 35.8378 1.66035 33.9619 2.41855C32.086 3.17676 30.4462 4.42148 29.2117 6.02439C27.9772 7.6273 27.1926 9.5304 26.9387 11.5375L25.3135 11.3181C25.6167 9.03138 26.523 6.86648 27.9394 5.04561C29.3558 3.22473 31.2312 1.81347 33.3733 0.956656C35.5154 0.099843 37.8469 -0.171662 40.1285 0.170006C42.4102 0.511674 44.5599 1.45421 46.3569 2.90088C48.1539 4.34755 49.5336 6.24625 50.3543 8.40212C51.175 10.558 51.4072 12.8934 51.0271 15.1686C50.6469 17.4438 49.6681 19.577 48.1911 21.3491C46.7142 23.1211 44.7922 24.4684 42.6224 25.2525Z" fill="#999999"/>
<path d="M43.4351 15.2587L41.8911 14.625C42.1515 14.1032 42.2965 13.5314 42.3161 12.9486C42.3358 12.3658 42.2298 11.7855 42.0052 11.2473C41.7807 10.7091 41.4428 10.2256 41.0147 9.82955C40.5866 9.43351 40.0782 9.13426 39.5242 8.95215C38.9701 8.77004 38.3833 8.70934 37.8037 8.77416C37.224 8.83898 36.6652 9.02781 36.165 9.32782C35.6649 9.62783 35.2352 10.032 34.9052 10.5128C34.5752 10.9936 34.3525 11.5399 34.2525 12.1144L32.6272 11.7325C32.8558 11.0173 33.2237 10.3544 33.7098 9.78215C34.1958 9.20985 34.7904 8.73945 35.4592 8.39806C36.128 8.05667 36.8578 7.85107 37.6065 7.7931C38.3552 7.73513 39.1079 7.82595 39.8213 8.06032C40.5347 8.29468 41.1947 8.66796 41.7631 9.15861C42.3314 9.64927 42.7971 10.2476 43.133 10.9191C43.469 11.5905 43.6686 12.3219 43.7205 13.0709C43.7723 13.8199 43.6754 14.5718 43.4351 15.2831V15.2587Z" fill="#999999"/>
<path d="M35.5741 1.15769L33.967 1.62634L36.0126 8.63854L37.6196 8.16989L35.5741 1.15769Z" fill="#999999"/>
<path d="M27.3953 8.7581L27.0005 10.3846L33.2234 11.8945L33.6182 10.2679L27.3953 8.7581Z" fill="#999999"/>
<path d="M43.35 18.6295L42.0017 19.6216L44.7279 23.3255L46.0762 22.3334L43.35 18.6295Z" fill="#999999"/>
<path d="M48.7174 6.85252L42.1726 10.098L42.9164 11.5975L49.4612 8.35198L48.7174 6.85252Z" fill="#999999"/>
<path d="M38.3995 0.23183L34.9534 3.26526L36.0595 4.52153L39.5057 1.4881L38.3995 0.23183Z" fill="#999999"/>
<path d="M41.586 1.25436L35.5537 6.56421L36.6599 7.82048L42.6921 2.51064L41.586 1.25436Z" fill="#999999"/>
<path d="M44.7762 2.26291L38.7439 7.57275L39.8501 8.82902L45.8823 3.51918L44.7762 2.26291Z" fill="#999999"/>
<path d="M47.0979 4.0394L41.0657 9.34924L42.1718 10.6055L48.2041 5.29567L47.0979 4.0394Z" fill="#999999"/>
<path d="M8.93895 52C7.36663 51.9999 5.82215 51.5851 4.46138 50.7975L3.75439 50.375L8.63016 41.9006L17.1059 46.7756L16.6833 47.4988C15.9026 48.8639 14.7755 49.999 13.4157 50.7893C12.056 51.5796 10.5118 51.9973 8.93895 52ZM6.07038 49.725C7.57605 50.3668 9.25352 50.485 10.8343 50.0608C12.4152 49.6365 13.808 48.6943 14.7899 47.385L9.26401 44.1919L6.07038 49.725Z" fill="#999999"/>
<path d="M15.9844 47.9375C15.8386 47.9374 15.6954 47.8981 15.57 47.8237L8.54078 43.7612C8.36542 43.6831 8.22339 43.5455 8.13984 43.3727C8.05629 43.1999 8.03663 43.0031 8.08433 42.8171C8.13203 42.6312 8.24402 42.4682 8.40046 42.3569C8.55689 42.2457 8.74766 42.1934 8.93896 42.2094H17.0652C17.2808 42.2094 17.4875 42.295 17.6398 42.4473C17.7922 42.5997 17.8779 42.8064 17.8779 43.0219C17.8777 44.5939 17.4629 46.1382 16.6752 47.4987C16.6091 47.6264 16.5104 47.7343 16.3891 47.8114C16.2677 47.8885 16.1281 47.932 15.9844 47.9375ZM12.0838 43.875L15.635 45.9225C15.9177 45.2704 16.1039 44.5807 16.1876 43.875H12.0838Z" fill="#999999"/>
<path d="M17.8779 43.875H8.47576L3.75439 35.75L4.47763 35.3275C5.57206 34.6742 6.7943 34.2641 8.06132 34.125L8.23197 35.7906C7.48615 35.8661 6.75677 36.0581 6.07038 36.3594L9.44278 42.2012H16.1876C16.069 41.2158 15.7511 40.2649 15.2531 39.4062L16.7077 38.5938C17.4826 39.9551 17.8862 41.4961 17.8779 43.0625V43.875Z" fill="#999999"/>
<path d="M5.20888 51.1875L4.48564 50.765C3.12151 49.982 1.98815 48.8531 1.2 47.4921C0.411855 46.1312 -0.00317383 44.5864 -0.00317383 43.0137C-0.00317383 41.4411 0.411855 39.8963 1.2 38.5353C1.98815 37.1743 3.12151 36.0454 4.48564 35.2625L5.20888 34.84L9.92212 43.0625L5.20888 51.1875ZM4.61566 37.2125C3.70462 37.889 2.96457 38.7693 2.45468 39.783C1.9448 40.7967 1.67924 41.9156 1.67924 43.0503C1.67924 44.1849 1.9448 45.3039 2.45468 46.3175C2.96457 47.3312 3.70462 48.2115 4.61566 48.8881L7.98806 43.0625L4.61566 37.2125Z" fill="#999999"/>
<path d="M6.51741 38.1469H2.4624V39.8206H6.51741V38.1469Z" fill="#999999"/>
<path d="M8.14267 40.5844H0.837158V42.2581H8.14267V40.5844Z" fill="#999999"/>
<path d="M8.9553 43.0219H0.837158V44.6956H8.9553V43.0219Z" fill="#999999"/>
<path d="M7.33017 45.4512H1.6499V47.1249H7.33017V45.4512Z" fill="#999999"/>
<path d="M41.4521 13.0162H39.7781V37.3669H41.4521V13.0162Z" fill="#999999"/>
<path d="M10.6049 13.0162H8.93091V37.3669H10.6049V13.0162Z" fill="#999999"/>
<path d="M13.0183 13.7963H11.3931V15.47H13.0183V13.7963Z" fill="#999999"/>
<path d="M15.4563 13.7963H13.8311V15.47H15.4563V13.7963Z" fill="#999999"/>
<path d="M17.886 13.7963H16.2607V15.47H17.886V13.7963Z" fill="#999999"/>
<path d="M38.998 13.7963H19.5112V15.47H38.998V13.7963Z" fill="#999999"/>
<path d="M38.998 16.2338H11.3931V17.9075H38.998V16.2338Z" fill="#999999"/>
<path d="M19.5032 24.375H11.377V19.5H19.5032V24.375ZM13.0022 22.75H17.878V21.125H13.0022V22.75Z" fill="#999999"/>
<path d="M29.2547 24.375H21.1284V19.5H29.2547V24.375ZM22.7537 22.75H27.6294V21.125H22.7537V22.75Z" fill="#999999"/>
<path d="M39.0062 24.375H30.8799V19.5H39.0062V24.375ZM32.5051 22.75H37.3809V21.125H32.5051V22.75Z" fill="#999999"/>
<path d="M19.5115 25.1631H11.3933V26.8368H19.5115V25.1631Z" fill="#999999"/>
<path d="M19.5115 27.6006H11.3933V29.2743H19.5115V27.6006Z" fill="#999999"/>
<path d="M19.5115 30.0299H11.3933V31.7037H19.5115V30.0299Z" fill="#999999"/>
<path d="M19.5115 32.4674H11.3933V34.1412H19.5115V32.4674Z" fill="#999999"/>
<path d="M29.2549 25.1631H21.1367V26.8368H29.2549V25.1631Z" fill="#999999"/>
<path d="M29.2549 27.6006H21.1367V29.2743H29.2549V27.6006Z" fill="#999999"/>
<path d="M29.2549 30.0299H21.1367V31.7037H29.2549V30.0299Z" fill="#999999"/>
<path d="M29.2549 32.4674H21.1367V34.1412H29.2549V32.4674Z" fill="#999999"/>
<path d="M38.99 25.1631H30.8718V26.8368H38.99V25.1631Z" fill="#999999"/>
<path d="M38.99 27.6006H30.8718V29.2743H38.99V27.6006Z" fill="#999999"/>
<path d="M38.99 30.0299H30.8718V31.7037H38.99V30.0299Z" fill="#999999"/>
<path d="M38.99 32.4674H30.8718V34.1412H38.99V32.4674Z" fill="#999999"/>
<path d="M19.5112 34.905H11.3931V36.5788H19.5112V34.905Z" fill="#999999"/>
<path d="M29.2546 34.905H21.1365V36.5788H29.2546V34.905Z" fill="#999999"/>
<path d="M38.99 34.905H30.8718V36.5788H38.99V34.905Z" fill="#999999"/>
</g>
<defs>
<clipPath id="clip0_257_4466">
<rect width="52" height="52" fill="white"/>
</clipPath>
</defs>
</svg>
