<svg  viewBox="0 0 73 68" fill="currentColor" xmlns="http://www.w3.org/2000/svg">
<path d="M25 51.4773C22.4318 51.4773 20.2443 50.7784 18.4375 49.3807C16.6307 47.9716 15.25 45.9318 14.2955 43.2614C13.3409 40.5795 12.8636 37.3409 12.8636 33.5455C12.8636 29.7727 13.3409 26.5511 14.2955 23.8807C15.2614 21.1989 16.6477 19.1534 18.4545 17.7443C20.2727 16.3239 22.4545 15.6136 25 15.6136C27.5455 15.6136 29.7216 16.3239 31.5284 17.7443C33.3466 19.1534 34.733 21.1989 35.6875 23.8807C36.6534 26.5511 37.1364 29.7727 37.1364 33.5455C37.1364 37.3409 36.6591 40.5795 35.7045 43.2614C34.75 45.9318 33.3693 47.9716 31.5625 49.3807C29.7557 50.7784 27.5682 51.4773 25 51.4773ZM25 47.7273C27.5455 47.7273 29.5227 46.5 30.9318 44.0455C32.3409 41.5909 33.0455 38.0909 33.0455 33.5455C33.0455 30.5227 32.7216 27.9489 32.0739 25.8239C31.4375 23.6989 30.517 22.0795 29.3125 20.9659C28.1193 19.8523 26.6818 19.2955 25 19.2955C22.4773 19.2955 20.5057 20.5398 19.0852 23.0284C17.6648 25.5057 16.9545 29.0114 16.9545 33.5455C16.9545 36.5682 17.2727 39.1364 17.9091 41.25C18.5455 43.3636 19.4602 44.9716 20.6534 46.0739C21.858 47.1761 23.3068 47.7273 25 47.7273ZM56.3664 16.0909V51H52.1391V20.5227H51.9345L43.4118 26.1818V21.8864L52.1391 16.0909H56.3664Z" fill="inherit"/>
<path d="M73 67H0V69H73V67Z" fill="inherit" mask="url(#path-1-inside-1_257_4730)"/>
</svg>
