<?xml version="1.0" encoding="utf-8"?>
<!-- Generator: Adobe Illustrator 27.4.1, SVG Export Plug-In . SVG Version: 6.00 Build 0)  -->
<svg version="1.1" id="Layer_1" xmlns="http://www.w3.org/2000/svg" xmlns:xlink="http://www.w3.org/1999/xlink" x="0px" y="0px"
	 viewBox="0 0 210 128" enable-background="new 0 0 210 128" xml:space="preserve">
<rect x="26.8" y="18.34" fill="none" stroke="#232020" stroke-miterlimit="10" width="165.58" height="84.19"/>
<polyline fill="none" stroke="#232020" stroke-miterlimit="10" points="192.5,34 109,34 109,79.5 192.5,79.5 "/>
<path fill="none" stroke="#232020" stroke-miterlimit="10" d="M190,83v5H81V64h3.09c6.05-1.62,8.29-5.73,7.41-7.5
	c-1-2-3.41-0.99-3.41-0.99l-0.66,0.25C85.98,57.73,83.64,59,81,59c-4.42,0-8-3.58-8-8c0-4.42,3.58-8,8-8c3.88,0,7.11,2.76,7.84,6.42
	h0.01c3.34,1.92,5.65,1.08,5.65,0.08s0-3-2.18-6.5c-2.17-3.5-6.82-5.5-6.82-5.5v-1l15.51-1.5v5.5H97.5c4,6,2.52,11.5,2.52,11.5H107
	v6h-7.69C95.24,68.55,87,70.12,87,70.12V83H190z"/>
<path fill="none" stroke="#232020" stroke-miterlimit="10" d="M90.5,46.5c-1,0-3-2-3-2c-4-5-16-4-16,6c0,12,12.52,9.5,14,9
	c2-1,2,0,2,0.81c0,0.82-2,2.19-8,2.19s-9-4-9-4h-2v-7l-12,3l3,6h-2l-4-5l-26.7,7.63v-6.16c14.18-5.03,28.14-10.01,34.7-12.47
	c16-6,21.17-7.3,25-5C91.5,42.5,91.91,46.5,90.5,46.5z"/>
<line fill="none" stroke="#232020" stroke-miterlimit="10" x1="26.8" y1="90.94" x2="192.5" y2="90.94"/>
<path fill="none" stroke="#232020" stroke-miterlimit="10" d="M76.5,67.52c0,0,1,1,1,3s0,20.44,0,20.44"/>
<path fill="none" stroke="#232020" stroke-miterlimit="10" d="M73.5,67.52c0,0,1,1,1,3s0,20.44,0,20.44"/>
<path fill="none" stroke="#232020" stroke-miterlimit="10" d="M70.5,67.52c0,0,1,1,1,3s0,20.44,0,20.44"/>
<path fill="none" stroke="#232020" stroke-miterlimit="10" d="M67.5,67.52c0,0,1,1,1,3s0,20.44,0,20.44"/>
<path fill="none" stroke="#232020" stroke-miterlimit="10" d="M64.5,67.52c0,0,1,1,1,3s0,20.44,0,20.44"/>
<path fill="none" stroke="#232020" stroke-miterlimit="10" d="M61.5,67.52c0,0,1,1,1,3s0,20.44,0,20.44"/>
<path fill="none" stroke="#232020" stroke-miterlimit="10" d="M58.5,67.52c0,0,1,1,1,3s0,20.44,0,20.44"/>
<path fill="none" stroke="#232020" stroke-miterlimit="10" d="M55.5,67.52c0,0,1,1,1,3s0,20.44,0,20.44"/>
<path fill="none" stroke="#232020" stroke-miterlimit="10" d="M52.5,67.52c0,0,1,1,1,3s0,20.44,0,20.44"/>
<path fill="none" stroke="#232020" stroke-miterlimit="10" d="M49.5,67.52c0,0,1,1,1,3s0,20.44,0,20.44"/>
<path fill="none" stroke="#232020" stroke-miterlimit="10" d="M46.5,67.52c0,0,1,1,1,3s0,20.44,0,20.44"/>
<path fill="none" stroke="#232020" stroke-miterlimit="10" d="M43.5,67.52c0,0,1,1,1,3s0,20.44,0,20.44"/>
<path fill="none" stroke="#232020" stroke-miterlimit="10" d="M40.5,67.52c0,0,1,1,1,3s0,20.44,0,20.44"/>
<path fill="none" stroke="#232020" stroke-miterlimit="10" d="M37.5,67.52c0,0,1,1,1,3s0,20.44,0,20.44"/>
<path fill="none" stroke="#232020" stroke-miterlimit="10" d="M34.5,67.52c0,0,1,1,1,3s0,20.44,0,20.44"/>
<path fill="none" stroke="#232020" stroke-miterlimit="10" d="M31.5,67.52c0,0,1,1,1,3s0,20.44,0,20.44"/>
<path fill="none" stroke="#232020" stroke-miterlimit="10" d="M28.5,67.52c0,0,1,1,1,3s0,20.44,0,20.44"/>
</svg>
