
<svg version="1.1" id="Layer_1" xmlns="http://www.w3.org/2000/svg" xmlns:xlink="http://www.w3.org/1999/xlink" 
	 viewBox="0 0 210 128">
<g>
	<g>
		<path fill="#232020" d="M184.88,105.28H18.3V20.09h166.58V105.28z M19.3,104.28h164.58V21.09H19.3V104.28z"/>
	</g>
	<g>
		<rect x="24.68" y="30.72" fill="#232020" width="6.43" height="1"/>
	</g>
	<g>
		
			<rect x="29.91" y="26.91" transform="matrix(0.9487 -0.3162 0.3162 0.9487 -7.6472 11.1111)" fill="#232020" width="1" height="4.42"/>
	</g>
	<g>
		<rect x="33.86" y="21.9" transform="matrix(0.4189 -0.908 0.908 0.4189 0.4979 45.5875)" fill="#232020" width="4" height="1"/>
	</g>
	<g>
		<rect x="52.37" y="30.72" fill="#232020" width="4.2" height="1"/>
	</g>
	<g>
		
			<rect x="59.56" y="24.44" transform="matrix(0.8648 -0.5021 0.5021 0.8648 -5.4122 33.7988)" fill="#232020" width="1" height="5.01"/>
	</g>
	<g>
		
			<rect x="63.72" y="21.9" transform="matrix(0.5693 -0.8222 0.8222 0.5693 9.9796 63.8578)" fill="#232020" width="4.42" height="1"/>
	</g>
	<g>
		
			<rect x="78.3" y="30.93" transform="matrix(0.8436 -0.5369 0.5369 0.8436 -5.2649 47.4284)" fill="#232020" width="1" height="3.65"/>
	</g>
	<g>
		
			<rect x="67.97" y="41.34" transform="matrix(0.5664 -0.8242 0.8242 0.5664 -3.833 76.4027)" fill="#232020" width="5.43" height="1"/>
	</g>
	<g>
		
			<rect x="65.93" y="43.72" transform="matrix(0.9962 -0.0869 0.0869 0.9962 -3.5883 6.0384)" fill="#232020" width="3.23" height="1"/>
	</g>
	<g>
		
			<rect x="53.97" y="43.07" transform="matrix(0.5351 -0.8448 0.8448 0.5351 -13.1585 67.1894)" fill="#232020" width="1" height="4.97"/>
	</g>
	<g>
		
			<rect x="53.97" y="54.71" transform="matrix(0.0665 -0.9978 0.9978 0.0665 -5.8404 107.3719)" fill="#232020" width="1" height="4.2"/>
	</g>
	<g>
		
			<rect x="43.48" y="57.64" transform="matrix(0.757 -0.6534 0.6534 0.757 -26.9275 43.8698)" fill="#232020" width="4.07" height="1"/>
	</g>
	<g>
		
			<rect x="50.61" y="60.83" transform="matrix(0.8837 -0.468 0.468 0.8837 -23.7838 31.3018)" fill="#232020" width="1" height="5.38"/>
	</g>
	<g>
		
			<rect x="48.21" y="74.77" transform="matrix(0.5067 -0.8621 0.8621 0.5067 -39.747 81.0688)" fill="#232020" width="5.52" height="1"/>
	</g>
	<g>
		<rect x="35.87" y="70.99" fill="#232020" width="7.83" height="1"/>
	</g>
	<g>
		
			<rect x="19.07" y="72.88" transform="matrix(0.6644 -0.7474 0.7474 0.6644 -47.5946 40.7735)" fill="#232020" width="5.05" height="1"/>
	</g>
	<g>
		
			<rect x="33.83" y="85.22" transform="matrix(0.7863 -0.6178 0.6178 0.7863 -46.858 39.953)" fill="#232020" width="1" height="4.98"/>
	</g>
	<g>
		
			<rect x="52.29" y="90.28" transform="matrix(0.8321 -0.5547 0.5547 0.8321 -42.8923 44.952)" fill="#232020" width="1" height="6.05"/>
	</g>
	<g>
		
			<rect x="52.53" y="92.53" transform="matrix(0.3514 -0.9362 0.9362 0.3514 -51.0899 112.3069)" fill="#232020" width="5.97" height="1"/>
	</g>
	<g>
		
			<rect x="51.09" y="96.58" transform="matrix(0.9937 -0.1123 0.1123 0.9937 -10.5564 6.7703)" fill="#232020" width="7.46" height="1"/>
	</g>
	<g>
		
			<rect x="67.81" y="81.68" transform="matrix(0.1169 -0.9931 0.9931 0.1169 -23.1757 142.0932)" fill="#232020" width="1" height="4.79"/>
	</g>
	<g>
		
			<rect x="71.1" y="87.63" transform="matrix(0.5547 -0.8321 0.8321 0.5547 -40.5466 100.5051)" fill="#232020" width="5.04" height="1"/>
	</g>
	<g>
		
			<rect x="68.61" y="65.49" transform="matrix(0.8716 -0.4902 0.4902 0.8716 -24.8014 42.7026)" fill="#232020" width="1" height="6.42"/>
	</g>
	<g>
		<rect x="77.26" y="96.58" fill="#232020" width="5.03" height="1"/>
	</g>
	<g>
		
			<rect x="87.67" y="99.9" transform="matrix(0.848 -0.5301 0.5301 0.848 -40.9459 62.3241)" fill="#232020" width="1" height="5.28"/>
	</g>
	<g>
		
			<rect x="90.24" y="83.58" transform="matrix(0.5733 -0.8194 0.8194 0.5733 -29.655 111.2158)" fill="#232020" width="3.41" height="1"/>
	</g>
	<g>
		
			<rect x="93.54" y="82.38" transform="matrix(0.8683 -0.4961 0.4961 0.8683 -29.6005 57.8064)" fill="#232020" width="1" height="4.51"/>
	</g>
	<g>
		
			<rect x="84.23" y="65.61" transform="matrix(0.3965 -0.918 0.918 0.3965 -8.1548 119.8097)" fill="#232020" width="5.64" height="1"/>
	</g>
	<g>
		<rect x="90.41" y="56.31" fill="#232020" width="6.71" height="1"/>
	</g>
	<g>
		
			<rect x="97.74" y="63.23" transform="matrix(0.8756 -0.483 0.483 0.8756 -19.4411 55.6053)" fill="#232020" width="1" height="4.63"/>
	</g>
	<g>
		<rect x="103.55" y="83.58" fill="#232020" width="5.59" height="1"/>
	</g>
	<g>
		
			<rect x="116.76" y="68.16" transform="matrix(0.8129 -0.5824 0.5824 0.8129 -19.4331 81.5855)" fill="#232020" width="1" height="5.76"/>
	</g>
	<g>
		
			<rect x="114.17" y="65.61" transform="matrix(0.5441 -0.839 0.839 0.5441 -2.005 128.5252)" fill="#232020" width="6.17" height="1"/>
	</g>
	<g>
		
			<rect x="116.13" y="70.76" transform="matrix(0.9977 -0.0674 0.0674 0.9977 -4.529 8.2112)" fill="#232020" width="6.73" height="1"/>
	</g>
	<g>
		<rect x="129.56" y="83.58" fill="#232020" width="5.31" height="1"/>
	</g>
	<g>
		
			<rect x="133.05" y="72.98" transform="matrix(0.8321 -0.5546 0.5546 0.8321 -19.3804 86.7258)" fill="#232020" width="1" height="4.79"/>
	</g>
	<g>
		
			<rect x="118.49" y="85.61" transform="matrix(0.6044 -0.7967 0.7967 0.6044 -20.7164 130.4944)" fill="#232020" width="5.09" height="1"/>
	</g>
	<g>
		
			<rect x="141.04" y="99.31" transform="matrix(0.4562 -0.8899 0.8899 0.4562 -10.4515 182.5197)" fill="#232020" width="6.13" height="1"/>
	</g>
	<g>
		
			<rect x="159.88" y="94.56" transform="matrix(0.6044 -0.7967 0.7967 0.6044 -11.4696 167.0155)" fill="#232020" width="5.09" height="1"/>
	</g>
	<g>
		
			<rect x="170.32" y="83.72" transform="matrix(0.8497 -0.5273 0.5273 0.8497 -19.7254 103.0231)" fill="#232020" width="1" height="4.77"/>
	</g>
	<g>
		
			<rect x="153.23" y="75.99" transform="matrix(0.5048 -0.8632 0.8632 0.5048 11.6296 173.2564)" fill="#232020" width="7.21" height="1"/>
	</g>
	<g>
		<rect x="154.74" y="70.76" fill="#232020" width="7.69" height="1"/>
	</g>
	<g>
		
			<rect x="175.07" y="65.8" transform="matrix(0.8906 -0.4547 0.4547 0.8906 -11.9788 87.3425)" fill="#232020" width="1" height="5.54"/>
	</g>
	<g>
		<rect x="169.56" y="56.31" fill="#232020" width="6.01" height="1"/>
	</g>
	<g>
		
			<rect x="180.25" y="47.23" transform="matrix(0.8455 -0.534 0.534 0.8455 1.0276 104.3006)" fill="#232020" width="1" height="6.29"/>
	</g>
	<g>
		
			<rect x="174.19" y="41.27" transform="matrix(0.5146 -0.8574 0.8574 0.5146 50.1122 172.0728)" fill="#232020" width="5.71" height="1"/>
	</g>
	<g>
		<rect x="156.83" y="30.72" fill="#232020" width="6.85" height="1"/>
	</g>
	<g>
		
			<rect x="85.95" y="35.4" transform="matrix(0.3349 -0.9422 0.9422 0.3349 25.5571 108.0079)" fill="#232020" width="6.68" height="1"/>
	</g>
	<g>
		<rect x="96.34" y="34.17" transform="matrix(0.848 -0.53 0.53 0.848 -4.7894 56.9188)" fill="#232020" width="1" height="5.28"/>
	</g>
	<g>
		
			<rect x="104.27" y="30.44" transform="matrix(0.7556 -0.655 0.655 0.7556 5.8993 77.682)" fill="#232020" width="5.55" height="1"/>
	</g>
	<g>
		<rect x="117.26" y="30.44" fill="#232020" width="5.31" height="1"/>
	</g>
	<g>
		
			<rect x="137.45" y="26.34" transform="matrix(0.765 -0.6441 0.6441 0.765 13.7834 95.6559)" fill="#232020" width="1" height="5.21"/>
	</g>
	<g>
		
			<rect x="133.82" y="32.92" transform="matrix(0.6913 -0.7226 0.7226 0.6913 18.2228 109.4906)" fill="#232020" width="6.87" height="1"/>
	</g>
	<g>
		
			<rect x="131.76" y="43.84" transform="matrix(0.843 -0.5378 0.5378 0.843 -4.1166 78.3916)" fill="#232020" width="1" height="4.81"/>
	</g>
	<g>
		
			<rect x="138.86" y="50.15" transform="matrix(0.4228 -0.9062 0.9062 0.4228 35.5763 157.1667)" fill="#232020" width="4.63" height="1"/>
	</g>
	<g>
		<rect x="144.11" y="43.72" fill="#232020" width="4.75" height="1"/>
	</g>
	<g>
		
			<rect x="149.62" y="49.91" transform="matrix(0.7592 -0.6508 0.6508 0.7592 2.4034 110.1827)" fill="#232020" width="1" height="3.87"/>
	</g>
	<g>
		
			<rect x="156.1" y="44.56" transform="matrix(0.2519 -0.9677 0.9677 0.2519 75.6494 187.9865)" fill="#232020" width="6.65" height="1"/>
	</g>
	<g>
		<rect x="103.55" y="43.72" fill="#232020" width="5.59" height="1"/>
	</g>
	<g>
		
			<rect x="124.84" y="102.46" transform="matrix(0.4743 -0.8803 0.8803 0.4743 -23.9275 165.8432)" fill="#232020" width="4.13" height="1"/>
	</g>
	<g>
		
			<rect x="169.73" y="22.32" transform="matrix(0.6154 -0.7882 0.7882 0.6154 48.3851 144.8048)" fill="#232020" width="5.68" height="1"/>
	</g>
</g>
</svg>
