<?xml version="1.0" encoding="utf-8"?>
<!-- Generator: Adobe Illustrator 27.4.1, SVG Export Plug-In . SVG Version: 6.00 Build 0)  -->
<svg version="1.1" id="Layer_1" xmlns="http://www.w3.org/2000/svg" xmlns:xlink="http://www.w3.org/1999/xlink" x="0px" y="0px"
	 viewBox="0 0 210 128" enable-background="new 0 0 210 128" xml:space="preserve">
<g>
	<g>
		<path fill="#232020" d="M192.88,103.03H26.3V17.84h166.58V103.03z M27.3,102.03h164.58V18.84H27.3V102.03z"/>
	</g>
	<g>
		
			<rect x="56.11" y="30.53" transform="matrix(0.7075 -0.7068 0.7068 0.7075 -34.8204 61.2746)" fill="#232020" width="1" height="84.33"/>
	</g>
	<g>
		
			<rect x="98.49" y="0.7" transform="matrix(0.7047 -0.7095 0.7095 0.7047 -13.6469 88.0818)" fill="#232020" width="1" height="119.47"/>
	</g>
	<g>
		
			<rect x="152.07" y="1.89" transform="matrix(0.7082 -0.706 0.706 0.7082 3.3797 124.7253)" fill="#232020" width="1" height="112.78"/>
	</g>
	<g>
		
			<rect x="171.52" y="93.66" transform="matrix(0.7226 -0.6913 0.6913 0.7226 -14.1446 153.0696)" fill="#232020" width="24.23" height="1"/>
	</g>
	<g>
		
			<rect x="105.95" y="66.36" transform="matrix(0.7091 -0.7052 0.7052 0.7091 -1.6084 129.8272)" fill="#232020" width="101.15" height="1"/>
	</g>
	<g>
		
			<rect x="48.9" y="59.93" transform="matrix(0.7029 -0.7112 0.7112 0.7029 -10.8808 94.8175)" fill="#232020" width="118.34" height="1"/>
	</g>
	<g>
		
			<rect x="13.11" y="51.19" transform="matrix(0.711 -0.7032 0.7032 0.711 -18.8438 57.5213)" fill="#232020" width="94.9" height="1"/>
	</g>
	<g>
		
			<rect x="24.23" y="24.08" transform="matrix(0.7091 -0.7052 0.7052 0.7091 -7.7094 30.4751)" fill="#232020" width="17.69" height="1"/>
	</g>
	<g>
		
			<rect x="178.99" y="12.92" transform="matrix(0.7 -0.7141 0.7141 0.7 31.7197 137.4715)" fill="#232020" width="1" height="36.11"/>
	</g>
</g>
</svg>
