<svg viewBox="0 0 166 166" fill="none" xmlns="http://www.w3.org/2000/svg">
<path d="M165.481 20.75H0V0H165.481V20.75ZM5.1875 15.5625H160.294V5.1875H5.1875V15.5625Z" fill="currentColor"/>
<path d="M12.969 113.866H2.59399V119.053H12.969V113.866Z" fill="currentColor"/>
<path d="M162.887 113.866H147.325V119.053H162.887V113.866Z" fill="currentColor"/>
<path d="M15.5627 7.78125H10.3752V12.9688H15.5627V7.78125Z" fill="currentColor"/>
<path d="M25.9373 7.78125H20.7498V12.9688H25.9373V7.78125Z" fill="currentColor"/>
<path d="M36.3125 7.78125H31.125V12.9688H36.3125V7.78125Z" fill="currentColor"/>
<path d="M155.106 7.78125H46.4275V12.9688H155.106V7.78125Z" fill="currentColor"/>
<path d="M157.7 23.603H152.513V110.753H157.7V23.603Z" fill="currentColor"/>
<path d="M12.9688 23.603H7.78125V110.753H12.9688V23.603Z" fill="currentColor"/>
<path d="M165.481 129.169H144.731V123.981H160.294V20.7502H5.1875V123.981H12.9688V129.169H0V15.5627H165.481V129.169Z" fill="currentColor"/>
<path d="M116.46 125.538C108.678 125.538 102.194 119.053 102.194 111.272C102.194 103.491 108.678 97.0063 116.46 97.0063C123.463 97.0063 129.169 101.934 130.466 108.678C131.763 116.459 126.575 123.722 119.053 125.278C118.016 125.278 117.238 125.538 116.46 125.538ZM116.46 102.194C115.941 102.194 115.422 102.194 114.903 102.453C109.975 103.491 106.863 108.159 107.641 113.088C108.419 118.016 113.347 121.128 118.275 120.35C123.203 119.313 126.316 114.644 125.538 109.716C124.5 105.047 120.61 102.194 116.46 102.194Z" fill="currentColor"/>
<path d="M118.016 139.803H115.163C111.791 139.544 108.419 139.025 105.307 137.469L102.713 136.431L104.01 133.838C104.269 132.022 102.972 130.466 101.416 130.206C100.638 130.206 99.8597 130.206 99.341 130.466L97.5253 132.541L95.7097 130.466C93.3753 127.872 91.5597 125.019 90.2628 121.906L89.2253 119.313L91.8191 118.534C93.3753 117.497 93.6347 115.422 92.5972 114.125C92.0785 113.606 91.5597 113.088 90.7816 112.828H87.9285V109.975C87.9285 106.603 88.7066 103.231 90.0035 100.119L91.041 97.5251L93.6347 98.822C95.4503 99.0813 97.0066 97.7845 97.266 96.2282C97.266 95.4501 97.266 94.672 97.0066 94.1532L94.9316 92.3376L97.0066 90.522C99.6003 88.1876 102.453 86.372 105.566 85.0751L108.16 84.0376L108.938 86.6314C109.457 87.6689 111.013 88.1876 112.05 87.9282C113.607 87.6689 114.644 86.6313 114.644 85.5938V82.7407H117.497C120.869 82.7407 124.241 83.5189 127.353 84.8157L129.947 85.8532L128.65 88.447C128.391 90.2626 129.688 91.8188 131.244 92.0782C132.022 92.0782 132.8 92.0782 133.319 91.8189L135.135 89.7438L136.95 91.8189C139.285 94.4126 141.1 97.2657 142.397 100.638L143.435 103.231L140.841 104.009C139.285 105.047 139.025 107.122 140.063 108.419C140.582 108.938 141.1 109.456 141.878 109.716H144.991V112.569C144.732 115.941 144.213 119.313 142.657 122.425L141.619 125.019L139.025 123.722C137.21 123.463 135.653 124.759 135.394 126.316C135.394 127.094 135.394 127.872 135.653 128.391L137.728 130.206L135.653 132.022C133.06 134.356 130.207 136.172 127.094 137.469L124.5 138.506L123.722 135.913C123.203 134.875 121.647 134.356 120.61 134.616C119.053 134.875 118.016 135.913 118.016 136.95V139.803ZM109.457 133.319C110.753 133.838 112.05 134.097 113.347 134.097C115.422 129.688 120.61 127.872 124.76 129.947C125.538 130.206 126.316 130.725 127.094 131.503C128.391 130.984 129.428 130.206 130.466 129.428C129.428 126.834 129.947 123.981 131.503 121.647C133.06 119.313 135.653 118.016 138.507 118.016C139.025 116.719 139.285 115.422 139.285 113.866C136.691 112.569 135.135 110.494 134.616 107.641C134.097 105.047 134.875 102.194 136.95 100.119C136.432 98.822 135.653 97.7845 134.875 96.747C130.207 98.3032 125.278 95.9689 123.722 91.3001C123.463 90.522 123.203 89.7439 123.203 88.7064C121.907 88.447 120.61 88.1876 119.053 87.9282C116.978 92.3376 111.791 94.1532 107.382 92.0782C106.603 91.8188 105.825 91.3001 105.307 90.522C104.01 91.0407 102.972 91.8189 101.935 92.597C103.491 97.2657 101.157 102.194 96.4878 103.75C95.7097 104.009 94.9316 104.269 93.8941 104.269C93.6347 105.566 93.3753 106.863 93.116 108.159C95.7097 109.197 97.5253 111.791 97.7847 114.384C98.3035 116.978 97.266 119.831 95.4503 121.906C95.9691 123.203 96.7472 124.241 97.7847 125.278C102.453 123.722 107.382 126.056 108.938 130.725C109.197 131.503 109.457 132.541 109.457 133.319Z" fill="currentColor"/>
<path d="M119.054 108.678H113.866V113.865H119.054V108.678Z" fill="currentColor"/>
<path d="M51.6157 147.325C41.5001 147.325 33.4595 139.284 33.4595 129.169C33.4595 119.053 41.5001 111.012 51.6157 111.012C61.7313 111.012 69.772 119.053 69.772 129.169C69.772 139.284 61.7313 147.325 51.6157 147.325ZM51.6157 116.2C44.3532 116.2 38.647 121.906 38.647 129.169C38.647 136.431 44.3532 142.137 51.6157 142.137C58.8782 142.137 64.5845 136.431 64.5845 129.169C64.5845 122.166 58.8782 116.459 51.6157 116.2Z" fill="currentColor"/>
<path d="M56.8036 166L56.2848 163.406C55.7661 161.331 53.6911 160.034 51.6161 160.294C49.5411 160.034 47.4661 161.331 46.9473 163.406L46.6879 166L44.0942 165.481C39.6848 164.444 35.5348 162.628 31.9036 160.294L29.5692 158.737L31.1254 156.662C32.1629 154.847 31.6442 152.512 30.0879 150.956C28.7911 149.4 26.4567 148.881 24.6411 149.919L22.3067 151.475L20.7504 149.141C18.4161 145.509 16.6004 141.359 15.5629 136.95L15.0442 134.356L17.6379 133.837C20.2317 132.541 21.2692 129.687 20.2317 127.094C19.7129 126.056 18.6754 125.019 17.6379 124.5L15.0442 123.981L15.5629 121.387C16.6004 116.978 18.4161 112.828 20.7504 109.197L22.3067 106.862L24.6411 108.419C26.4567 109.456 28.7911 108.937 30.0879 107.381C31.9036 106.084 32.1629 103.491 31.1254 101.675L29.5692 99.5999L31.9036 98.0437C35.5348 95.7093 39.6848 93.8937 44.0942 92.8562L46.6879 92.3374L47.2067 94.9312C47.7254 97.0062 49.8004 98.5624 51.8754 98.303C53.9504 98.5624 56.0254 97.2655 56.5442 95.1905L57.0629 92.5968L59.6567 93.1155C64.0661 94.153 68.2161 95.9687 71.8473 98.303L74.1817 99.8593L72.3661 102.194C71.3286 104.787 72.6254 107.9 75.4786 108.937C76.5161 109.456 77.8129 109.456 79.1098 108.937L81.4442 107.381L83.0004 109.716C85.3348 113.347 87.1504 117.497 88.1879 121.906L88.7067 124.5H85.8536C83.2598 125.797 82.2223 128.65 83.2598 131.244C83.7786 132.281 84.8161 133.319 85.8536 133.837L88.4473 134.356L87.9286 136.95C86.8911 141.359 85.0754 145.509 82.7411 149.141L81.1848 151.475L78.8504 149.919C76.2567 148.881 73.1442 150.178 72.1067 153.031C71.5879 154.069 71.5879 155.366 72.1067 156.662L73.6629 158.737L71.3286 160.294C67.6973 162.628 63.5473 164.444 59.1379 165.481L56.8036 166ZM51.6161 154.847C55.2473 154.847 58.6192 156.662 60.4348 159.775C62.7692 159.256 64.8442 158.219 66.9192 157.181C65.6223 151.475 69.2536 145.769 74.9598 144.472C76.5161 144.212 78.0723 144.212 79.3692 144.472C80.4067 142.397 81.4442 140.322 81.9629 137.987C77.0348 134.875 75.7379 128.391 78.8504 123.462C79.6286 122.166 80.6661 121.128 81.9629 120.35C81.4442 118.016 80.4067 115.941 79.3692 113.866C73.6629 115.162 67.9567 111.531 66.6598 105.825C66.4004 104.269 66.4004 102.712 66.6598 101.416C64.5848 100.378 62.5098 99.3405 60.1754 98.8218C57.0629 103.75 50.5786 105.047 45.6504 101.934C44.3536 101.156 43.3161 100.119 42.5379 98.8218C40.2036 99.3405 38.1286 100.378 36.0536 101.416C36.8317 105.047 35.7942 108.678 33.2004 111.272C30.6067 113.866 26.9754 115.162 23.6036 114.125C22.5661 116.2 21.5286 118.275 21.0098 120.609C25.9379 123.722 27.2348 130.206 24.1223 135.134C23.3442 136.431 22.3067 137.469 21.0098 138.247C21.5286 140.581 22.5661 142.656 23.6036 144.731C27.2348 143.953 30.8661 144.991 33.4598 147.584C36.0536 150.178 37.0911 153.809 36.3129 157.181C38.3879 158.219 40.4629 159.256 42.7973 159.775C44.6129 156.662 47.9848 154.847 51.6161 154.847Z" fill="currentColor"/>
<path d="M54.2097 119.053H49.0222V124.241H54.2097V119.053Z" fill="currentColor"/>
<path d="M54.2097 134.356H49.0222V139.544H54.2097V134.356Z" fill="currentColor"/>
<path d="M61.991 126.575H56.8035V131.762H61.991V126.575Z" fill="currentColor"/>
<path d="M46.4282 126.575H41.2407V131.762H46.4282V126.575Z" fill="currentColor"/>
<path d="M67.1784 28.5312H18.1565V33.7188H67.1784V28.5312Z" fill="currentColor"/>
<path d="M98.303 28.5312H72.3655V33.7188H98.303V28.5312Z" fill="currentColor"/>
<path d="M41.5002 38.6467H18.1565V43.8342H41.5002V38.6467Z" fill="currentColor"/>
<path d="M87.6681 38.6467H46.4275V43.8342H87.6681V38.6467Z" fill="currentColor"/>
<path d="M28.5315 49.0217H18.1565V54.2092H28.5315V49.0217Z" fill="currentColor"/>
<path d="M64.8435 49.0217H33.7185V54.2092H64.8435V49.0217Z" fill="currentColor"/>
<path d="M80.1467 49.0217H69.7717V54.2092H80.1467V49.0217Z" fill="currentColor"/>
<path d="M54.469 59.3967H18.1565V64.5842H54.469V59.3967Z" fill="currentColor"/>
<path d="M95.709 59.3967H59.3965V64.5842H95.709V59.3967Z" fill="currentColor"/>
<path d="M38.9065 69.772H18.1565V74.9595H38.9065V69.772Z" fill="currentColor"/>
<path d="M70.0313 69.772H44.0938V74.9595H70.0313V69.772Z" fill="currentColor"/>
<path d="M87.9277 69.772H74.959V74.9595H87.9277V69.772Z" fill="currentColor"/>
<path d="M54.469 80.147H18.1565V85.3345H54.469V80.147Z" fill="currentColor"/>
</svg>
