<?xml version="1.0" encoding="utf-8"?>
<!-- Generator: Adobe Illustrator 27.1.1, SVG Export Plug-In . SVG Version: 6.00 Build 0)  -->
<svg version="1.1" id="Layer_1" xmlns="http://www.w3.org/2000/svg" xmlns:xlink="http://www.w3.org/1999/xlink" x="0px" y="0px"
	 viewBox="0 0 32 32" style="enable-background:new 0 0 32 32;" xml:space="preserve">
<style type="text/css">
	.st0{fill:#000;}
</style>
<g id="Group_695" transform="translate(-581 -1224)">
	<g id="Group_813" transform="translate(581 1224)">
		<path id="Rectangle_689" class="st0" d="M0.9,0.9v30.3h30.3V0.9H0.9 M0,0h32v32H0V0z"/>
		<path id="Path_250" class="st0" d="M3.1,2C3,2,3,2,3,2C2.9,2.2,2.8,2.3,2.8,2.5C2.8,2.9,2.7,3.3,2.7,3.8c0,0.9,0.6,1.6,1.4,1.8
			c0-0.2,0-0.6,0-0.9c0-0.4-0.1-0.8-0.1-1.2C4.1,3.1,4,2,3.1,2 M3.1,1.2c1,0,1.9,0.8,1.9,2.4s0.4,2.9-0.6,2.9C3,6.3,1.9,5.2,1.9,3.8
			C1.9,2.2,2,1.2,3.1,1.2L3.1,1.2z"/>
		<path id="Path_256" class="st0" d="M3.1,9C2.9,9,2.7,9,2.5,9c0,0,0,0.1,0,0.1c0,0,0,0.1,0,0.1c0.2,0.1,0.4,0.1,0.6,0.1
			c0.2,0,0.4-0.1,0.5-0.3C3.4,9,3.2,9,3.1,9 M3.1,8.1c1,0,1.4,0.3,1.4,0.7c0,0.8-0.6,1.4-1.4,1.4c-1,0-1.4-0.3-1.4-1S2,8.1,3.1,8.1
			L3.1,8.1z"/>
		<path id="Path_263" class="st0" d="M4.1,12.5c-0.1,0-0.2,0.1-0.2,0.1C3.5,13,3.4,13.5,3.3,14v0c0,0.2,0,0.4,0,0.6c0,0,0.1,0,0.1,0
			c0.2,0,0.5-0.1,0.6-0.3c0.3-0.4,0.5-0.8,0.6-1.3c0-0.1,0.1-0.2,0.1-0.4C4.6,12.5,4.3,12.5,4.1,12.5 M4.1,11.7c1,0,1.8,0.3,1.4,1.6
			c-0.4,1.3-1,2.3-2,2.3s-1-0.8-1.1-1.5S3.1,11.7,4.1,11.7L4.1,11.7z"/>
		<path id="Path_268" class="st0" d="M3.1,17.6c-0.1,0-0.3,0-0.4,0.1c-0.1,0.1-0.1,0.3-0.1,0.4v0c0,0.1,0,0.2,0,0.3
			c0.1,0,0.1,0,0.2,0c0.1,0,0.2,0,0.2,0c0,0,0-0.1,0-0.1c0-0.1,0-0.2,0.1-0.2C3.1,17.9,3.2,17.7,3.1,17.6
			C3.1,17.6,3.1,17.6,3.1,17.6 M3.1,16.7c1,0,1,1,0.9,1.6c-0.2,0.6-0.1,1-1.2,1s-1-0.5-1.1-1.2c-0.1-0.7,0.4-1.3,1.1-1.4
			C2.9,16.7,3,16.7,3.1,16.7L3.1,16.7z"/>
		<path id="Path_279" class="st0" d="M3.6,22.4c-0.2,0-0.3,0-0.4,0.2c-0.1,0.2-0.2,0.4-0.2,0.6c0,0.1,0,0.1,0,0.2
			c0,0.2,0,0.5,0.1,0.7c0,0,0,0,0.1,0c0.1,0,0.3-0.1,0.7-0.7c0.2-0.3,0.4-0.6,0.5-0.9C4.1,22.4,3.8,22.4,3.6,22.4 M3.6,21.5
			c1,0,1.8,0.2,1.7,0.8c-0.2,0.6-1.1,2.5-2.2,2.5s-1-1-1-1.7C2,22.3,2.7,21.6,3.6,21.5C3.5,21.5,3.6,21.5,3.6,21.5L3.6,21.5z"/>
		<path id="Path_280" class="st0" d="M3.4,27.7L3.4,27.7c-0.2,0-0.3,0-0.4,0.1c0,0.1,0,0.2,0,0.2c0,0.5,0.4,1.3,0.8,1.3
			c0.4,0,0.7,0,1.1-0.1c-0.1-0.3-0.4-0.6-0.6-0.9C4,28,3.7,27.8,3.4,27.7 M3.4,26.8c1,0,2.5,1.9,2.3,2.6s-0.9,0.8-2,0.8
			S2.1,28.7,2,28C2,27.3,2.3,26.8,3.4,26.8L3.4,26.8z"/>
		<path id="Path_254" class="st0" d="M24.5,2.6c-0.3,0-0.6,0-0.9,0.2c-0.1,0-0.2,0.2-0.2,0.7c0,0.5,0.1,0.6,0.1,0.6
			c0.3,0.1,0.6,0.1,0.9,0.1c0.2,0,0.5-0.1,0.7-0.2c0.1-0.1,0.2-0.3,0.2-0.5c0-0.2-0.1-0.5-0.2-0.7C24.8,2.7,24.6,2.6,24.5,2.6
			 M24.5,1.8c1,0,1.5,0.9,1.5,1.8c0,0.9-0.7,1.6-1.6,1.6c0,0,0,0-0.1,0c-1,0-1.8,0-1.8-1.6S23.4,1.8,24.5,1.8L24.5,1.8z"/>
		<path id="Path_260" class="st0" d="M23.1,7.8c-0.2,0-0.4,0-0.6,0.1c-0.1,0.2-0.1,0.4-0.1,0.5c0,0.2,0,0.4,0.1,0.4
			C22.8,8.9,23.1,9,23.4,9c0.3,0,0.6,0.1,0.9,0.1h0c0-0.2,0-0.4,0-0.5V8.5c0-0.4-0.3-0.7-0.6-0.7c0,0-0.1,0-0.1,0L23.1,7.8
			 M23.1,6.9h0.4c0.8-0.1,1.6,0.6,1.6,1.4c0,0,0,0.1,0,0.1c0,0.8,0.1,1.7-1.1,1.5c-1.2-0.3-2.5,0-2.5-1.6C21.6,7,22.3,6.9,23.1,6.9
			L23.1,6.9z"/>
		<path id="Path_265" class="st0" d="M24.5,12.9c-0.2,0-0.4,0.1-0.5,0.2c-0.1,0.1-0.2,0.3-0.2,0.5c0,0.2,0,0.4,0.1,0.6
			c0.1,0.1,0.2,0.1,0.3,0.1c0.1,0,0.3,0,0.4-0.1c0.2-0.3,0.3-0.6,0.3-0.9c0-0.1,0-0.2,0-0.3C24.8,12.9,24.7,12.9,24.5,12.9 M24.5,12
			c1,0,1.3,0.3,1.3,1.1s-0.4,2-1.5,2c-0.7,0-1.3-0.6-1.3-1.3c0-0.1,0-0.2,0-0.3C23,12.7,23.7,12,24.5,12z"/>
		<path id="Path_272" class="st0" d="M22.5,17.8c-0.1,0-0.3,0.1-0.3,0.2c-0.1,0.2-0.2,0.4-0.2,0.6c0,0,0,0,0,0
			c0.2,0,0.4,0.1,0.5,0.1h0c0.1,0,0.2,0,0.3,0c0-0.2,0-0.3,0-0.5c0-0.1,0-0.3,0-0.4C22.8,17.8,22.7,17.8,22.5,17.8 M22.5,16.9
			c1,0,1.2,0.4,1.2,1.2c0,0.8-0.1,1.4-1.2,1.4c-1.1,0-1.4-0.4-1.4-1C21.2,18,21.5,16.9,22.5,16.9L22.5,16.9z"/>
		<path id="Path_275" class="st0" d="M23.8,22.8c-0.4,0-0.7,0.2-0.7,0.4c0,0.2,0.1,0.5,0.2,0.6c0.1,0.1,0.3,0.2,0.5,0.2h0.1
			c0.1,0,0.3,0,0.4-0.1c0-0.1,0-0.3,0-0.4c0-0.2,0-0.5-0.2-0.7C24.1,22.9,24,22.8,23.8,22.8 M23.8,22c1,0,1.4,0.8,1.4,1.6
			s-0.2,1.3-1.4,1.3c-0.9-0.1-1.6-0.8-1.5-1.7C22.3,22.4,23,21.9,23.8,22C23.7,22,23.8,22,23.8,22L23.8,22z"/>
		<path id="Path_284" class="st0" d="M23.3,27.7c-0.1,0-0.2,0-0.3,0c0,0.1,0,0.2,0,0.4c0,0.3,0.1,0.5,0.3,0.8
			c0.1,0.1,0.3,0.2,0.5,0.2h0.1c0.2,0,0.4,0,0.5-0.1c0-0.1,0-0.1,0-0.2c0-0.3-0.2-0.5-0.4-0.7C23.9,27.8,23.6,27.7,23.3,27.7
			 M23.3,26.8c1,0.1,1.9,0.9,2,1.9c0,0.8-0.4,1.2-1.5,1.1c-0.9-0.1-1.7-0.9-1.6-1.9C22.2,27.4,22.3,26.8,23.3,26.8L23.3,26.8z"/>
		<path id="Path_255" class="st0" d="M29.3,2.9c-0.3,0-0.5,0-0.8,0.1c0,0-0.1,0.1-0.1,0.4c0,0.1,0,0.2,0,0.3c0.2,0,0.5,0.1,0.7,0
			c0.2,0,0.4-0.1,0.5-0.2c0,0,0.1-0.1,0.1-0.2c0-0.1,0-0.3-0.1-0.4C29.5,3,29.4,2.9,29.3,2.9 M29.3,2.1c0.7,0,1.3,0.6,1.3,1.3
			c0,0,0,0.1,0,0.1c-0.1,0.7-0.7,1.3-1.4,1.2c0,0,0,0-0.1,0c-0.9,0-1.6,0-1.6-1.2S28.4,2.1,29.3,2.1L29.3,2.1z"/>
		<path id="Path_261" class="st0" d="M28.8,7.8c-0.3,0-0.5,0-0.8,0.1c-0.2,0.2-0.2,0.5-0.2,0.8c0,0.2,0,0.5,0.1,0.7
			c0.2,0,0.4,0,0.6,0c0.2,0,0.4-0.1,0.6-0.2c0.1-0.1,0.2-0.3,0.2-0.5c0-0.3-0.1-0.5-0.2-0.8C29.1,7.9,28.9,7.8,28.8,7.8 M28.8,6.9
			c1,0,1.4,1,1.5,1.8c0,0.9-0.7,1.6-1.6,1.6c0,0-0.1,0-0.1,0c-1,0-1.6,0-1.6-1.6S27.8,6.9,28.8,6.9L28.8,6.9z"/>
		<path id="Path_264" class="st0" d="M28.3,13.1L28.3,13.1c-0.1,0.1-0.1,0.2-0.1,0.2c0,0.6,0.1,0.7,0.1,0.7c0.2,0.1,0.4,0.1,0.5,0.1
			H29c0.1,0,0.2-0.1,0.3-0.2c0.2-0.2,0.3-0.5,0.4-0.7l-0.2,0c0,0-0.1,0-0.1,0c-0.2,0-0.4,0-0.6-0.1C28.6,13.1,28.4,13.1,28.3,13.1
			 M28.3,12.2c0.4,0,0.8,0.1,1.1,0.1c0.7,0,1.1-0.1,1.1,0.8c0,0.8-0.8,1.9-1.5,1.8c-0.8,0-1.6,0-1.6-1.6
			C27.4,12.4,27.8,12.3,28.3,12.2L28.3,12.2z"/>
		<path id="Path_273" class="st0" d="M28,17.2c-0.4,0-0.8,0.1-1.2,0.2c-0.3,0.1-0.5,0.4-0.5,0.7c0,0.4,0.2,0.8,0.6,1
			c0.3,0.2,0.7,0.4,1.1,0.4h0c0.5-0.1,1-0.3,1.3-0.7c0.1-0.1,0.2-0.2,0.2-0.3c-0.1-0.3-0.3-0.6-0.6-0.8C28.6,17.5,28.3,17.4,28,17.2
			 M28,16.4c0.7,0,2.4,1.2,2.4,2.2c0,1.1-1.7,1.9-2.4,1.9s-2.5-0.7-2.5-2.3C25.4,16.6,27.3,16.4,28,16.4L28,16.4z"/>
		<path id="Path_274" class="st0" d="M29.1,22.5c-0.4,0-0.8,0.1-1.1,0.3c-0.3,0.2-0.5,0.5-0.4,0.8c0,0.2,0,0.5,0.1,0.7
			c0.1,0,0.3,0,0.4,0l0.2,0h0c0.4,0,0.8-0.2,1.1-0.5c0.1-0.1,0.1-0.2,0.1-0.2v-0.1c0-0.3,0-0.7-0.1-1c0,0-0.1,0-0.1,0
			C29.2,22.5,29.2,22.5,29.1,22.5 M29.1,21.7c0.1,0,0.2,0,0.3,0c0.9,0.1,0.9,0.9,1,1.9c0,1.1-1.4,1.6-2.2,1.6s-1.4,0-1.4-1.6
			C26.7,22.2,28.1,21.7,29.1,21.7L29.1,21.7z"/>
		<path id="Path_285" class="st0" d="M28.2,28.3L28.2,28.3c-0.1,0.1-0.1,0.1-0.1,0.2c0,0.3,0.1,0.4,0.2,0.4C28.5,29,28.7,29,29,29
			c0.1,0,0.1,0,0.2,0c0.1,0,0.3,0,0.4-0.1c0-0.1,0-0.1,0-0.2c0-0.1,0-0.2,0-0.3c-0.2-0.1-0.5-0.1-0.7-0.1l0,0
			C28.6,28.3,28.4,28.3,28.2,28.3 M28.2,27.4c0.3,0,0.5,0,0.8,0.1c0.9,0.1,1.5,0.2,1.5,1.3c0,1.1-0.7,1.2-1.5,1.1s-1.7-0.2-1.7-1.4
			C27.2,27.6,27.6,27.4,28.2,27.4L28.2,27.4z"/>
		<path id="Path_251" class="st0" d="M8.5,2.9H8.1c-0.1,0-0.2,0-0.2,0c0,0.1-0.1,0.3-0.1,1.3c0,0.2,0,0.5,0,0.7C7.8,5,8,5,8.1,5
			c0.2,0,0.5-0.1,0.6-0.3C8.9,4.4,9.1,3.9,9,3.5C9,3.3,9,3.2,9,3C8.8,2.9,8.6,2.9,8.5,2.9 M8.5,2.1c0.8,0,1.4,0.1,1.4,1.4
			c0,1.6-0.8,2.3-1.8,2.3s-1.2,0-1.2-1.6S7,2.1,8.1,2.1L8.5,2.1z"/>
		<path id="Path_257" class="st0" d="M7.6,8.5c-0.1,0-0.2,0-0.2,0c0,0.1,0,0.1,0,0.2c0,0.2,0.2,0.4,0.4,0.4c0,0,0,0,0,0
			C8,9.1,8.1,9,8.2,9c0.1,0,0.3-0.1,0.4-0.1c0,0,0-0.1,0-0.1c0,0,0,0,0-0.1C8.6,8.7,8.4,8.5,7.6,8.5 M7.6,7.7c1,0,2,0.3,1.9,1.2
			C9.4,9.8,8.8,9.7,8,9.9C7.4,10,6.7,9.6,6.6,8.9C6.5,8.3,6.6,7.7,7.6,7.7L7.6,7.7z"/>
		<path id="Path_266" class="st0" d="M8.4,12.9c-0.2,0-0.3,0.1-0.3,0.1c-0.1,0.1-0.1,0.3-0.1,0.4C8.2,14,8.6,14,8.8,14
			c0.1,0,0.1,0,0.2,0c0.5-0.1,0.6-0.2,0.6-0.2c0.1-0.2,0.1-0.4,0.1-0.6C9.3,12.9,8.9,12.8,8.4,12.9 M8.4,12c1,0,2.3,0.3,2.2,1.2
			c-0.1,0.9-0.1,1.4-1.5,1.6c-0.8,0.2-1.7-0.3-1.8-1.2c0-0.1,0-0.1,0-0.2c-0.2-0.6,0.2-1.3,0.9-1.5C8.2,12,8.3,12,8.4,12z"/>
		<path id="Path_269" class="st0" d="M7.1,17.2c-0.3,0-0.5,0.1-0.7,0.3c-0.1,0.1-0.2,0.3-0.2,0.5c0,0.3,0.1,0.4,0.2,0.5
			c0.3,0.2,0.7,0.2,1,0.2c0.4,0,0.7,0,1.1-0.1c0,0,0.1,0,0.1-0.3c0-0.2-0.1-0.3-0.3-0.4C8,17.4,7.6,17.2,7.1,17.2 M7.1,16.3
			c1,0,2.4,1,2.3,1.9c-0.1,0.9-0.6,1.2-2,1.2s-2-0.6-2.1-1.5c0-0.9,0.7-1.6,1.6-1.7C7,16.3,7.1,16.3,7.1,16.3L7.1,16.3z"/>
		<path id="Path_278" class="st0" d="M8.2,22.3c-0.1,0-0.2,0-0.2,0c0,0-0.1,0.2-0.1,0.8c0,0.4,0.1,0.8,0.2,1.1
			c0.1,0.2,0.3,0.3,0.6,0.3c0.4,0,0.5-0.1,0.5-0.2c0.1-0.3,0.2-0.6,0.2-1v-0.1c0-0.2-0.1-0.4-0.3-0.5C8.9,22.5,8.6,22.4,8.2,22.3
			 M8.2,21.5c1.1,0,2,0.9,2,1.9c-0.1,0.9-0.1,2-1.6,2s-1.6-1.3-1.6-2.2S7.2,21.5,8.2,21.5L8.2,21.5z"/>
		<path id="Path_281" class="st0" d="M9,27.9c-0.2,0-0.4,0.1-0.6,0.2c-0.1,0.1-0.1,0.3-0.1,0.4c0,0.1,0,0.2,0,0.3c0,0,0,0.1,0,0.1
			c0.1,0,0.2,0,0.4,0l0,0c0.4,0,0.6-0.1,0.6-0.1c0.1-0.2,0.1-0.5,0.1-0.8c0-0.1,0-0.1,0-0.2C9.3,27.9,9.1,27.9,9,27.9 M9,27.1
			c1,0,1.4,0.3,1.3,1.2c-0.1,0.9-0.1,1.7-1.6,1.7s-1.2-0.3-1.3-1.3c-0.1-0.8,0.5-1.5,1.3-1.6C8.8,27.1,8.9,27.1,9,27.1z"/>
		<path id="Path_252" class="st0" d="M13,2.5c-0.1,0-0.1,0-0.2,0c0,0.2,0,0.7,0,1c0,0.4,0.2,0.7,0.5,1c0.3,0.3,0.6,0.4,1,0.4
			c0.1,0,0.1,0,0.2,0c0.4-0.2,0.5-0.3,0.5-0.3c0-0.3,0-0.6-0.1-0.9c0-0.2-0.1-0.3-0.2-0.5l0,0C14.2,2.8,13.6,2.5,13,2.5 M13,1.7
			c0.9,0,1.7,0.4,2.2,1c0.2,0.3,0.3,0.5,0.4,0.9c0.3,1.3,0.2,1.7-0.8,2.2s-2.9-0.6-2.9-2.2S12,1.7,13,1.7L13,1.7z"/>
		<path id="Path_258" class="st0" d="M13.5,8.4c-0.4,0-0.7,0.2-1,0.4c-0.1,0.1-0.1,0.2-0.2,0.2c0.1,0.3,0.3,0.5,0.6,0.6
			c0.1,0,0.1,0,0.2-0.1c0.3-0.1,0.6-0.3,0.9-0.3l0.1,0c0-0.1,0-0.2,0-0.3c0-0.2-0.1-0.3-0.2-0.5C13.8,8.4,13.6,8.4,13.5,8.4
			 M13.5,7.5c0.7,0,1.3,0.4,1.5,1.4c-0.2,1.4-0.5,0.9-1.5,1.4c-0.7,0.3-1.6,0-1.9-0.8c-0.1-0.1-0.1-0.3-0.1-0.4
			C11.4,8.4,12.5,7.5,13.5,7.5L13.5,7.5z"/>
		<path id="Path_262" class="st0" d="M15,13.1c-0.1,0-0.2,0-0.3,0h-0.1c-0.4,0-0.7,0-1.1,0.1c-0.1,0-0.1,0.1-0.2,0.4
			c0,0.2,0,0.5,0.2,0.7c0.1,0.1,0.2,0.1,0.3,0.1h0c0.1,0,0.1,0,0.2,0h0.1c0.1,0,0.3,0,0.4-0.1c0.3-0.2,0.4-0.5,0.6-0.8l0-0.2
			c0-0.1,0.1-0.2,0.1-0.3C15.2,13.1,15.1,13.1,15,13.1L15,13.1 M15,12.3c1.5,0,1.2,0.6,1,1.7c-0.7,1.5-1.4,1.4-2,1.4h-0.1
			c-0.6,0-1.4-0.3-1.4-1.7c0-1.4,1.1-1.4,2.1-1.4C14.7,12.3,14.9,12.3,15,12.3L15,12.3z"/>
		<path id="Path_270" class="st0" d="M12.5,17.6c-0.2,0-0.3,0-0.5,0.1c-0.1,0.1-0.1,0.4-0.1,0.6c0,0.1,0,0.3,0,0.4l0.1,0
			c0,0,0.1,0,0.2,0c0,0,0.1,0,0.1,0c0,0,0.2-0.1,0.4-0.5c0.1-0.2,0.1-0.4,0.1-0.6C12.6,17.6,12.5,17.6,12.5,17.6 M12.5,16.7
			c1.3,0.2,1.2,1.2,0.9,1.9c-0.6,1.1-1.1,1-1.4,1c-0.3,0-1.1,0.1-1-1.3C11,16.8,11.8,16.8,12.5,16.7L12.5,16.7z"/>
		<path id="Path_277" class="st0" d="M13.1,22.2C13.1,22.2,13,22.2,13.1,22.2C13,22.2,13,22.2,13.1,22.2c-0.1,0.6,0,1.2,0.4,1.7
			c0.3,0.3,0.6,0.5,0.9,0.6l0.1-0.1c0.1-0.2,0.1-0.4,0.2-0.5c-0.1-0.3-0.3-0.6-0.5-0.9l0,0l0,0C13.8,22.5,13.5,22.2,13.1,22.2
			 M13.1,21.3c0.7,0.1,1.3,0.5,1.6,1c1.1,1.3,0.7,1.8,0.4,2.6c-0.6,1.1-2-0.1-2.3-0.4c-0.5-0.7-0.8-1.6-0.6-2.5
			C12.3,21.6,12.6,21.3,13.1,21.3L13.1,21.3z"/>
		<path id="Path_282" class="st0" d="M13.4,27.6c-0.3,0-0.6,0.3-0.7,0.6c-0.1,0.4,0,0.8,0.3,1.1c0.2,0.1,0.4,0.1,0.6,0.1
			c0.2,0,0.4-0.1,0.6-0.3l0,0l0,0l0.1-0.2c0.1-0.1,0.2-0.3,0.2-0.4c0,0,0-0.2-0.4-0.7C13.9,27.7,13.7,27.6,13.4,27.6 M13.4,26.8
			c0.4,0,0.9,0.1,1.3,0.4c1.1,1.3,0.7,1.7,0.3,2.4c-0.6,0.8-1.7,0.9-2.5,0.3C12,29.4,11.8,28.7,12,28C12.1,27.3,12.7,26.8,13.4,26.8
			L13.4,26.8z"/>
		<path id="Path_253" class="st0" d="M19.1,2.1c-0.3,0-0.4,0.1-0.5,0.2c-0.2,0.4-0.3,0.8-0.2,1.2c0,0.7,0.1,0.9,0.2,0.9
			c0,0,0.2,0.1,0.7,0.1h0.2c0.1,0,0.3,0,0.4-0.1c0-0.2,0.1-0.3,0.1-0.5c0-0.2,0-0.3,0.1-0.5C19.9,2.5,19.5,2.1,19.1,2.1 M19.1,1.2
			c0.7,0,1.7,0.6,1.8,2.3c-0.2,1,0,1.8-1.4,1.9c-1.4,0-1.9-0.3-1.9-1.9S18,1.2,19.1,1.2L19.1,1.2z"/>
		<path id="Path_259" class="st0" d="M18.5,8.2c-0.7,0-0.9,0.2-0.9,0.2c0,0,0,0.1,0,0.1l0,0c0.2,0.2,0.5,0.3,0.9,0.3l0.1,0
			c0.1,0,0.2,0,0.4,0c0.1,0,0.1,0,0.2,0c0,0,0,0,0,0C19.1,8.4,18.8,8.2,18.5,8.2 M18.5,7.3C19.3,7.4,19.9,8,20,8.8
			c-0.2,1-1.1,0.9-1.6,0.8c-0.5-0.1-1.6-0.3-1.6-1.2S17.5,7.3,18.5,7.3L18.5,7.3z"/>
		<path id="Path_267" class="st0" d="M19.6,12.7c-0.3,0-0.6,0-0.9,0.1c-0.1,0-0.2,0.1-0.2,0.6c0,0.2,0,0.3,0.1,0.5
			c0.1,0.1,0.3,0.2,0.9,0.2h0c0.2,0,0.5,0,0.6-0.2c0.2-0.2,0.3-0.4,0.3-0.6C20.3,12.9,20.1,12.8,19.6,12.7 M19.6,11.9
			c0.8-0.1,1.6,0.5,1.7,1.3c0,0.1,0,0.1,0,0.2c-0.1,0.9-0.9,1.7-1.8,1.6c-1,0-1.9-0.3-1.8-1.6C17.7,12.1,18.6,11.9,19.6,11.9
			L19.6,11.9z"/>
		<path id="Path_271" class="st0" d="M17.5,17.8c-0.4,0-0.8,0.1-1.1,0.3c-0.3,0.1-0.5,0.4-0.5,0.7c0,0.2,0,0.4,0.1,0.6
			c0,0,0,0,0.1,0c0.1,0,0.2,0,0.3-0.1c0.1-0.1,0.3-0.1,0.4-0.2c0.5-0.2,1-0.5,1.5-0.8c0.2-0.1,0.4-0.3,0.5-0.5
			C18.3,17.9,17.9,17.8,17.5,17.8 M17.5,17c1.2,0,2.1,0.2,2.2,1c-0.2,1-2,1.8-3,2.2c-0.9,0.5-1.8-0.1-1.7-1.4
			C15.1,17.5,16.4,17,17.5,17L17.5,17z"/>
		<path id="Path_276" class="st0" d="M18.8,22.3c-0.3,0-0.6,0-0.8,0.1c-0.1,0.1-0.2,0.3-0.2,0.6c0,0.5,0.1,0.7,0.1,0.7
			c0.1,0.1,0.3,0.1,0.4,0.1c0.1,0,0.2,0,0.3,0c0.3,0,0.6-0.1,0.9-0.2c0,0,0.1-0.1,0.2-0.4c0-0.2-0.1-0.4-0.2-0.6
			C19.3,22.4,19.1,22.3,18.8,22.3 M18.8,21.4c1,0,1.7,0.8,1.7,1.8c-0.2,1-0.7,1.3-1.9,1.5c-1.2,0.1-1.8-0.4-1.7-1.7
			C17.1,21.7,17.8,21.4,18.8,21.4L18.8,21.4z"/>
		<path id="Path_283" class="st0" d="M18.2,27L18.2,27c-0.2,0-0.3,0.1-0.4,0.1c-0.1,0.2-0.1,0.4-0.1,0.6c-0.1,0.4,0,0.8,0.2,1.1
			c0.2,0.2,0.5,0.3,0.8,0.3h0.1c0.1,0,0.2,0,0.3,0c0-0.1,0-0.2,0-0.3c0-0.1,0-0.3,0.1-0.4C19.1,27.8,18.7,27.1,18.2,27 M18.1,26.1
			c1.2,0,1.8,1.5,1.9,2.2c-0.2,1,0,1.6-1.4,1.5c-1.4,0-1.9-1-1.8-2.3C16.9,26.3,17.3,26.3,18.1,26.1L18.1,26.1z"/>
	</g>
</g>
</svg>
