<?xml version="1.0" encoding="utf-8"?>
<!-- Generator: Adobe Illustrator 27.1.1, SVG Export Plug-In . SVG Version: 6.00 Build 0)  -->
<svg version="1.1" id="Layer_1" xmlns="http://www.w3.org/2000/svg" xmlns:xlink="http://www.w3.org/1999/xlink" x="0px" y="0px"
	 viewBox="0 0 32 32" style="enable-background:new 0 0 32 32;" xml:space="preserve">
<style type="text/css">
	.st0{fill:#000;}
</style>
<g id="Group_686" transform="translate(-464 -1432)">
	<g id="Group_774" transform="translate(464 1432)">
		<g id="Group_773" transform="translate(0 0)">
			<path id="Rectangle_634" class="st0" d="M0,0h16.5v16.5H0V0z M15.4,1.1H1.1v14.3h14.3V1.1z"/>
			<path id="Polygon_22" class="st0" d="M3.1,13.1l0.4,0.7H2.8L3.1,13.1z"/>
			<path id="Polygon_18" class="st0" d="M2.8,7.2l0.7,1.5H2L2.8,7.2z"/>
			<path id="Polygon_21" class="st0" d="M7.5,4.2L7.9,5H7.2L7.5,4.2z"/>
			<path id="Polygon_19" class="st0" d="M4.2,2L5,2.8H3.5L4.2,2z"/>
			<path id="Polygon_27" class="st0" d="M13.6,7.6l1,0L14,8.5L13.6,7.6z"/>
			<path id="Polygon_20" class="st0" d="M5.5,11.2l1,0L6,12L5.5,11.2z"/>
			<path id="Polygon_25" class="st0" d="M12.2,5.5l-1.4,0l0.7-1.3L12.2,5.5z"/>
			<path id="Polygon_28" class="st0" d="M13.4,2.3l1,0l-0.5,0.9L13.4,2.3z"/>
			<path id="Polygon_26" class="st0" d="M12.2,9.8l1,0l-0.5,0.9L12.2,9.8z"/>
			<path id="Polygon_23" class="st0" d="M9.4,11.8l0.7,1.1H8.7L9.4,11.8z"/>
			<path id="Polygon_24" class="st0" d="M10.2,13.7l1.2,0l-0.6,1.1L10.2,13.7z"/>
			<rect id="Rectangle_670" x="7.9" y="2" class="st0" width="1.5" height="0.7"/>
			<rect id="Rectangle_667" x="7.2" y="7.9" class="st0" width="0.7" height="1.5"/>
			<rect id="Rectangle_677" x="10.1" y="7.2" class="st0" width="1.5" height="1.5"/>
			<rect id="Rectangle_682" x="13.1" y="12.3" class="st0" width="1.5" height="0.7"/>
			<path id="Rectangle_676" class="st0" d="M9.7,10.1L9.7,10.1c0.2,0,0.4,0.2,0.4,0.4l0,0c0,0.2-0.2,0.4-0.4,0.4l0,0
				c-0.2,0-0.4-0.2-0.4-0.4l0,0C9.4,10.3,9.5,10.1,9.7,10.1z"/>
			<rect id="Rectangle_679" x="11.6" y="11.6" class="st0" width="0" height="0.7"/>
			<path id="Rectangle_684" class="st0" d="M14.2,10.9L14.2,10.9c0.2,0,0.4,0.2,0.4,0.4l0,0c0,0.2-0.2,0.4-0.4,0.4l0,0
				c-0.2,0-0.4-0.2-0.4-0.4l0,0C13.8,11,14,10.9,14.2,10.9z"/>
			<path id="Rectangle_683" class="st0" d="M14.2,13.8L14.2,13.8c0.2,0,0.4,0.2,0.4,0.4l0,0c0,0.2-0.2,0.4-0.4,0.4l0,0
				c-0.2,0-0.4-0.2-0.4-0.4l0,0C13.8,14,14,13.8,14.2,13.8z"/>
			<path id="Rectangle_671" class="st0" d="M8.3,13.8L8.3,13.8c0.2,0,0.4,0.2,0.4,0.4l0,0c0,0.2-0.2,0.4-0.4,0.4l0,0
				c-0.2,0-0.4-0.2-0.4-0.4l0,0C7.9,14,8.1,13.8,8.3,13.8z"/>
			<path id="Rectangle_672" class="st0" d="M8.3,10.1L8.3,10.1c0.2,0,0.4,0.2,0.4,0.4l0,0c0,0.2-0.2,0.4-0.4,0.4l0,0
				c-0.2,0-0.4-0.2-0.4-0.4l0,0C7.9,10.3,8.1,10.1,8.3,10.1z"/>
			<path id="Rectangle_663" class="st0" d="M4.6,9.4L4.6,9.4C4.8,9.4,5,9.5,5,9.7l0,0c0,0.2-0.2,0.4-0.4,0.4l0,0
				c-0.2,0-0.4-0.2-0.4-0.4l0,0C4.2,9.5,4.4,9.4,4.6,9.4z"/>
			<path id="Rectangle_668" class="st0" d="M2.4,12.3L2.4,12.3c0.2,0,0.4,0.2,0.4,0.4l0,0c0,0.2-0.2,0.4-0.4,0.4l0,0
				c-0.2,0-0.4-0.2-0.4-0.4l0,0C2,12.5,2.2,12.3,2.4,12.3z"/>
			<path id="Rectangle_662" class="st0" d="M3.9,5.7L3.9,5.7c0.2,0,0.4,0.2,0.4,0.4l0,0c0,0.2-0.2,0.4-0.4,0.4l0,0
				c-0.2,0-0.4-0.2-0.4-0.4l0,0C3.5,5.9,3.7,5.7,3.9,5.7z"/>
			<path id="Rectangle_660" class="st0" d="M2.4,2L2.4,2c0.2,0,0.4,0.2,0.4,0.4l0,0c0,0.2-0.2,0.4-0.4,0.4l0,0C2.2,2.8,2,2.6,2,2.4
				l0,0C2,2.2,2.2,2,2.4,2z"/>
			<path id="Rectangle_664" class="st0" d="M5.3,3.5L5.3,3.5c0.2,0,0.4,0.2,0.4,0.4l0,0c0,0.2-0.2,0.4-0.4,0.4l0,0
				C5.1,4.2,5,4.1,5,3.9l0,0C5,3.7,5.1,3.5,5.3,3.5z"/>
			<path id="Rectangle_669" class="st0" d="M6.8,2L6.8,2C7,2,7.2,2.2,7.2,2.4l0,0c0,0.2-0.2,0.4-0.4,0.4l0,0c-0.2,0-0.4-0.2-0.4-0.4
				l0,0C6.4,2.2,6.6,2,6.8,2z"/>
			<path id="Rectangle_673" class="st0" d="M9,6.4L9,6.4c0.2,0,0.4,0.2,0.4,0.4l0,0C9.4,7,9.2,7.2,9,7.2l0,0C8.8,7.2,8.6,7,8.6,6.8
				l0,0C8.6,6.6,8.8,6.4,9,6.4z"/>
			<path id="Rectangle_675" class="st0" d="M9,4.2L9,4.2c0.2,0,0.4,0.2,0.4,0.4l0,0C9.4,4.8,9.2,5,9,5l0,0C8.8,5,8.6,4.8,8.6,4.6
				l0,0C8.6,4.4,8.8,4.2,9,4.2z"/>
			<polygon id="Rectangle_678" class="st0" points="10.9,2.8 11.6,2.8 11.6,2.8 			"/>
			<path id="Rectangle_680" class="st0" d="M12,1.3L12,1.3c0.2,0,0.4,0.2,0.4,0.4l0,0C12.3,1.9,12.2,2,12,2l0,0
				c-0.2,0-0.4-0.2-0.4-0.4l0,0C11.6,1.5,11.8,1.3,12,1.3z"/>
			<rect id="Rectangle_674" x="5.7" y="13.1" class="st0" width="0.7" height="1.5"/>
			<rect id="Rectangle_665" x="2.8" y="10.1" class="st0" width="0.7" height="1.5"/>
			
				<rect id="Rectangle_666" x="5.3" y="6" transform="matrix(0.7071 -0.7071 0.7071 0.7071 -2.9425 6.0759)" class="st0" width="1.2" height="1.2"/>
			
				<rect id="Rectangle_661" x="2.2" y="3.6" transform="matrix(0.7071 -0.7071 0.7071 0.7071 -2.1442 3.1771)" class="st0" width="1.2" height="1.2"/>
			
				<rect id="Rectangle_681" x="13.1" y="4.3" transform="matrix(0.7071 -0.7071 0.7071 0.7071 0.5498 11.135)" class="st0" width="1.2" height="1.2"/>
		</g>
	</g>
	<g id="Group_776" transform="translate(464 1447.448)">
		<g id="Group_773-2" transform="translate(0 0)">
			<path id="Rectangle_634-2" class="st0" d="M0,0h16.5v16.6H0V0z M15.4,1.1H1.1v14.3h14.3V1.1z"/>
			<path id="Polygon_22-2" class="st0" d="M3.1,13.8l0.4,0.7H2.8L3.1,13.8z"/>
			<path id="Polygon_18-2" class="st0" d="M2.8,7.9l0.7,0.7H2L2.8,7.9z"/>
			<path id="Polygon_21-2" class="st0" d="M7.5,5l0.4,0.7H7.2L7.5,5z"/>
			<path id="Polygon_19-2" class="st0" d="M4.2,2L5,2.8H3.5L4.2,2z"/>
			<path id="Polygon_27-2" class="st0" d="M13.6,7.9l1,0L14,8.8L13.6,7.9z"/>
			<path id="Polygon_20-2" class="st0" d="M5.5,11.5l1,0L6,12.3L5.5,11.5z"/>
			<path id="Polygon_25-2" class="st0" d="M12.2,5.8l-1.4,0l0.7-1.3L12.2,5.8z"/>
			<path id="Polygon_28-2" class="st0" d="M13.4,2.6l1,0l-0.5,0.9L13.4,2.6z"/>
			<path id="Polygon_26-2" class="st0" d="M12.2,10.1l1,0l-0.5,0.9L12.2,10.1z"/>
			<path id="Polygon_23-2" class="st0" d="M9.4,12.1l0.7,1.1H8.7L9.4,12.1z"/>
			<path id="Polygon_24-2" class="st0" d="M10.2,14l1.2,0l-0.6,1.1L10.2,14z"/>
			<rect id="Rectangle_670-2" x="7.9" y="2" class="st0" width="1.5" height="1.5"/>
			<rect id="Rectangle_667-2" x="7.2" y="8.6" class="st0" width="0.7" height="0.7"/>
			<rect id="Rectangle_677-2" x="10.1" y="7.2" class="st0" width="1.5" height="1.5"/>
			<rect id="Rectangle_682-2" x="13.1" y="12.3" class="st0" width="1.5" height="1.5"/>
			<path id="Rectangle_676-2" class="st0" d="M9.7,10.1L9.7,10.1c0.2,0,0.4,0.2,0.4,0.4l0,0c0,0.2-0.2,0.4-0.4,0.4l0,0
				c-0.2,0-0.4-0.2-0.4-0.4l0,0C9.4,10.3,9.5,10.1,9.7,10.1z"/>
			<rect id="Rectangle_679-2" x="11.6" y="12.3" class="st0" width="0" height="0.7"/>
			<path id="Rectangle_684-2" class="st0" d="M14.2,10.9L14.2,10.9c0.2,0,0.4,0.2,0.4,0.4l0,0c0,0.2-0.2,0.4-0.4,0.4l0,0
				c-0.2,0-0.4-0.2-0.4-0.4l0,0C13.8,11,14,10.9,14.2,10.9z"/>
			<path id="Rectangle_683-2" class="st0" d="M14.2,14.5L14.2,14.5c0.2,0,0.4,0.2,0.4,0.4l0,0c0,0.2-0.2,0.4-0.4,0.4l0,0
				c-0.2,0-0.4-0.2-0.4-0.4l0,0C13.8,14.7,14,14.5,14.2,14.5z"/>
			<path id="Rectangle_671-2" class="st0" d="M8.3,13.8L8.3,13.8c0.2,0,0.4,0.2,0.4,0.4l0,0c0,0.2-0.2,0.4-0.4,0.4l0,0
				c-0.2,0-0.4-0.2-0.4-0.4l0,0C7.9,14,8.1,13.8,8.3,13.8z"/>
			<path id="Rectangle_672-2" class="st0" d="M8.3,10.9L8.3,10.9c0.2,0,0.4,0.2,0.4,0.4l0,0c0,0.2-0.2,0.4-0.4,0.4l0,0
				c-0.2,0-0.4-0.2-0.4-0.4l0,0C7.9,11,8.1,10.9,8.3,10.9z"/>
			<path id="Rectangle_663-2" class="st0" d="M4.6,9.4L4.6,9.4C4.8,9.4,5,9.5,5,9.7l0,0c0,0.2-0.2,0.4-0.4,0.4l0,0
				c-0.2,0-0.4-0.2-0.4-0.4l0,0C4.2,9.5,4.4,9.4,4.6,9.4z"/>
			<path id="Rectangle_668-2" class="st0" d="M2.4,13.1L2.4,13.1c0.2,0,0.4,0.2,0.4,0.4l0,0c0,0.2-0.2,0.4-0.4,0.4l0,0
				c-0.2,0-0.4-0.2-0.4-0.4l0,0C2,13.2,2.2,13.1,2.4,13.1z"/>
			<path id="Rectangle_662-2" class="st0" d="M3.9,5.7L3.9,5.7c0.2,0,0.4,0.2,0.4,0.4l0,0c0,0.2-0.2,0.4-0.4,0.4l0,0
				c-0.2,0-0.4-0.2-0.4-0.4l0,0C3.5,5.9,3.7,5.7,3.9,5.7z"/>
			<path id="Rectangle_660-2" class="st0" d="M2.4,2L2.4,2c0.2,0,0.4,0.2,0.4,0.4l0,0c0,0.2-0.2,0.4-0.4,0.4l0,0
				C2.2,2.8,2,2.6,2,2.4l0,0C2,2.2,2.2,2,2.4,2z"/>
			<path id="Rectangle_664-2" class="st0" d="M5.3,4.2L5.3,4.2c0.2,0,0.4,0.2,0.4,0.4l0,0C5.7,4.8,5.5,5,5.3,5l0,0
				C5.1,5,5,4.8,5,4.6l0,0C5,4.4,5.1,4.2,5.3,4.2z"/>
			<path id="Rectangle_669-2" class="st0" d="M6.8,2L6.8,2C7,2,7.2,2.2,7.2,2.4l0,0c0,0.2-0.2,0.4-0.4,0.4l0,0
				c-0.2,0-0.4-0.2-0.4-0.4l0,0C6.4,2.2,6.6,2,6.8,2z"/>
			<path id="Rectangle_673-2" class="st0" d="M9,6.4L9,6.4c0.2,0,0.4,0.2,0.4,0.4l0,0C9.4,7,9.2,7.2,9,7.2l0,0
				C8.8,7.2,8.6,7,8.6,6.8l0,0C8.6,6.6,8.8,6.4,9,6.4z"/>
			<path id="Rectangle_675-2" class="st0" d="M9,4.2L9,4.2c0.2,0,0.4,0.2,0.4,0.4l0,0C9.4,4.8,9.2,5,9,5l0,0C8.8,5,8.6,4.8,8.6,4.6
				l0,0C8.6,4.4,8.8,4.2,9,4.2z"/>
			<path id="Rectangle_678-2" class="st0" d="M11.2,2.8L11.2,2.8c0.2,0,0.4,0.2,0.4,0.4l0,0c0,0.2-0.2,0.4-0.4,0.4l0,0
				c-0.2,0-0.4-0.2-0.4-0.4l0,0C10.9,2.9,11,2.8,11.2,2.8z"/>
			<path id="Rectangle_680-2" class="st0" d="M12,2L12,2c0.2,0,0.4,0.2,0.4,0.4l0,0c0,0.2-0.2,0.4-0.4,0.4l0,0
				c-0.2,0-0.4-0.2-0.4-0.4l0,0C11.6,2.2,11.8,2,12,2z"/>
			<rect id="Rectangle_674-2" x="5.7" y="13.8" class="st0" width="0.7" height="0.7"/>
			<rect id="Rectangle_665-2" x="2.8" y="10.9" class="st0" width="0.7" height="0.7"/>
			
				<rect id="Rectangle_666-2" x="5.3" y="6.3" transform="matrix(0.7071 -0.7071 0.7071 0.7071 -3.1624 6.167)" class="st0" width="1.2" height="1.2"/>
			
				<rect id="Rectangle_661-2" x="2.2" y="3.9" transform="matrix(0.7071 -0.7071 0.7071 0.7071 -2.3641 3.2682)" class="st0" width="1.2" height="1.2"/>
			
				<rect id="Rectangle_681-2" x="13.1" y="4.6" transform="matrix(0.7071 -0.7071 0.7071 0.7071 0.3299 11.2261)" class="st0" width="1.2" height="1.2"/>
		</g>
	</g>
	<g id="Group_775" transform="translate(479.448 1432)">
		<g id="Group_773-3" transform="translate(0 0)">
			<path id="Rectangle_634-3" class="st0" d="M0,0h16.6v16.5H0V0z M15.4,1.1H1.1v14.3h14.3V1.1z"/>
			<path id="Polygon_22-3" class="st0" d="M3.5,13.1l0.7,0.7H2.8L3.5,13.1z"/>
			<path id="Polygon_18-3" class="st0" d="M3.1,7.2l0.4,1.5H2.8L3.1,7.2z"/>
			<path id="Polygon_21-3" class="st0" d="M7.9,4.2L8.6,5H7.2L7.9,4.2z"/>
			<path id="Polygon_19-3" class="st0" d="M4.6,2L5,2.8H4.2L4.6,2z"/>
			<path id="Polygon_27-3" class="st0" d="M13.9,7.6l1,0l-0.5,0.9L13.9,7.6z"/>
			<path id="Polygon_20-3" class="st0" d="M5.8,11.2l1,0L6.3,12L5.8,11.2z"/>
			<path id="Polygon_25-3" class="st0" d="M12.5,5.5l-1.4,0l0.7-1.3L12.5,5.5z"/>
			<path id="Polygon_28-3" class="st0" d="M13.7,2.3l1,0l-0.5,0.9L13.7,2.3z"/>
			<path id="Polygon_26-3" class="st0" d="M12.5,9.8l1,0l-0.5,0.9L12.5,9.8z"/>
			<path id="Polygon_23-3" class="st0" d="M9.7,11.8l0.7,1.1H9L9.7,11.8z"/>
			<path id="Polygon_24-3" class="st0" d="M10.5,13.7l1.2,0l-0.6,1.1L10.5,13.7z"/>
			<rect id="Rectangle_670-3" x="8.6" y="2" class="st0" width="0.7" height="0.7"/>
			<rect id="Rectangle_667-3" x="7.2" y="7.9" class="st0" width="1.5" height="1.5"/>
			<rect id="Rectangle_677-3" x="10.1" y="7.2" class="st0" width="1.5" height="1.5"/>
			<rect id="Rectangle_682-3" x="13.8" y="12.3" class="st0" width="0.7" height="0.7"/>
			<path id="Rectangle_676-3" class="st0" d="M10.5,10.1L10.5,10.1c0.2,0,0.4,0.2,0.4,0.4l0,0c0,0.2-0.2,0.4-0.4,0.4l0,0
				c-0.2,0-0.4-0.2-0.4-0.4l0,0C10.1,10.3,10.3,10.1,10.5,10.1z"/>
			<path id="Rectangle_679-3" class="st0" d="M12,11.6L12,11.6c0.2,0,0.4,0.2,0.4,0.4l0,0c0,0.2-0.2,0.4-0.4,0.4l0,0
				c-0.2,0-0.4-0.2-0.4-0.4l0,0C11.6,11.8,11.8,11.6,12,11.6z"/>
			<path id="Rectangle_684-3" class="st0" d="M14.2,10.9L14.2,10.9c0.2,0,0.4,0.2,0.4,0.4l0,0c0,0.2-0.2,0.4-0.4,0.4l0,0
				c-0.2,0-0.4-0.2-0.4-0.4l0,0C13.8,11,14,10.9,14.2,10.9z"/>
			<path id="Rectangle_683-3" class="st0" d="M14.2,13.8L14.2,13.8c0.2,0,0.4,0.2,0.4,0.4l0,0c0,0.2-0.2,0.4-0.4,0.4l0,0
				c-0.2,0-0.4-0.2-0.4-0.4l0,0C13.8,14,14,13.8,14.2,13.8z"/>
			<path id="Rectangle_671-3" class="st0" d="M9,13.8L9,13.8c0.2,0,0.4,0.2,0.4,0.4l0,0c0,0.2-0.2,0.4-0.4,0.4l0,0
				c-0.2,0-0.4-0.2-0.4-0.4l0,0C8.6,14,8.8,13.8,9,13.8z"/>
			<path id="Rectangle_672-3" class="st0" d="M8.3,10.1L8.3,10.1c0.2,0,0.4,0.2,0.4,0.4l0,0c0,0.2-0.2,0.4-0.4,0.4l0,0
				c-0.2,0-0.4-0.2-0.4-0.4l0,0C7.9,10.3,8.1,10.1,8.3,10.1z"/>
			<path id="Rectangle_663-3" class="st0" d="M5.3,9.4L5.3,9.4c0.2,0,0.4,0.2,0.4,0.4l0,0c0,0.2-0.2,0.4-0.4,0.4l0,0
				C5.1,10.1,5,10,5,9.7l0,0C5,9.5,5.1,9.4,5.3,9.4z"/>
			<path id="Rectangle_668-3" class="st0" d="M2.4,12.3L2.4,12.3c0.2,0,0.4,0.2,0.4,0.4l0,0c0,0.2-0.2,0.4-0.4,0.4l0,0
				c-0.2,0-0.4-0.2-0.4-0.4l0,0C2,12.5,2.2,12.3,2.4,12.3z"/>
			<path id="Rectangle_662-3" class="st0" d="M3.9,5.7L3.9,5.7c0.2,0,0.4,0.2,0.4,0.4l0,0c0,0.2-0.2,0.4-0.4,0.4l0,0
				c-0.2,0-0.4-0.2-0.4-0.4l0,0C3.5,5.9,3.7,5.7,3.9,5.7z"/>
			<path id="Rectangle_660-3" class="st0" d="M2.4,2L2.4,2c0.2,0,0.4,0.2,0.4,0.4l0,0c0,0.2-0.2,0.4-0.4,0.4l0,0
				C2.2,2.8,2,2.6,2,2.4l0,0C2,2.2,2.2,2,2.4,2z"/>
			<path id="Rectangle_664-3" class="st0" d="M5.3,3.5L5.3,3.5c0.2,0,0.4,0.2,0.4,0.4l0,0c0,0.2-0.2,0.4-0.4,0.4l0,0
				C5.1,4.2,5,4.1,5,3.9l0,0C5,3.7,5.1,3.5,5.3,3.5z"/>
			<path id="Rectangle_669-3" class="st0" d="M6.8,2L6.8,2C7,2,7.2,2.2,7.2,2.4l0,0c0,0.2-0.2,0.4-0.4,0.4l0,0
				c-0.2,0-0.4-0.2-0.4-0.4l0,0C6.4,2.2,6.6,2,6.8,2z"/>
			<path id="Rectangle_673-3" class="st0" d="M9,6.4L9,6.4c0.2,0,0.4,0.2,0.4,0.4l0,0C9.4,7,9.2,7.2,9,7.2l0,0
				C8.8,7.2,8.6,7,8.6,6.8l0,0C8.6,6.6,8.8,6.4,9,6.4z"/>
			<path id="Rectangle_675-3" class="st0" d="M9.7,4.2L9.7,4.2c0.2,0,0.4,0.2,0.4,0.4l0,0C10.1,4.8,10,5,9.7,5l0,0
				C9.5,5,9.4,4.8,9.4,4.6l0,0C9.4,4.4,9.5,4.2,9.7,4.2z"/>
			<polygon id="Rectangle_678-3" class="st0" points="10.9,2.8 11.6,2.8 11.6,2.8 			"/>
			<path id="Rectangle_680-3" class="st0" d="M12.7,1.3L12.7,1.3c0.2,0,0.4,0.2,0.4,0.4l0,0c0,0.2-0.2,0.4-0.4,0.4l0,0
				c-0.2,0-0.4-0.2-0.4-0.4l0,0C12.3,1.5,12.5,1.3,12.7,1.3z"/>
			<rect id="Rectangle_674-3" x="5.7" y="13.1" class="st0" width="1.5" height="1.5"/>
			<rect id="Rectangle_665-3" x="2.8" y="10.1" class="st0" width="1.5" height="1.5"/>
			
				<rect id="Rectangle_666-3" x="5.6" y="6" transform="matrix(0.7071 -0.7071 0.7071 0.7071 -2.8514 6.2958)" class="st0" width="1.2" height="1.2"/>
			
				<rect id="Rectangle_661-3" x="2.5" y="3.6" transform="matrix(0.7071 -0.7071 0.7071 0.7071 -2.0531 3.397)" class="st0" width="1.2" height="1.2"/>
			
				<rect id="Rectangle_681-3" x="13.4" y="4.3" transform="matrix(0.7071 -0.7071 0.7071 0.7071 0.6409 11.3549)" class="st0" width="1.2" height="1.2"/>
		</g>
	</g>
	<g id="Group_777" transform="translate(479.448 1447.448)">
		<g id="Group_773-4" transform="translate(0 0)">
			<path id="Rectangle_634-4" class="st0" d="M0,0h16.6v16.6H0V0z M15.4,1.1H1.1v14.3h14.3V1.1z"/>
			<path id="Polygon_22-4" class="st0" d="M3.5,13.8l0.7,0.7H2.8L3.5,13.8z"/>
			<path id="Polygon_18-4" class="st0" d="M3.1,7.9l0.4,0.7H2.8L3.1,7.9z"/>
			<path id="Polygon_21-4" class="st0" d="M7.9,5l0.7,0.7H7.2L7.9,5z"/>
			<path id="Polygon_19-4" class="st0" d="M4.6,2L5,2.8H4.2L4.6,2z"/>
			<path id="Polygon_27-4" class="st0" d="M13.9,7.9l1,0l-0.5,0.9L13.9,7.9z"/>
			<path id="Polygon_20-4" class="st0" d="M5.8,11.5l1,0l-0.5,0.9L5.8,11.5z"/>
			<path id="Polygon_25-4" class="st0" d="M12.5,5.8l-1.4,0l0.7-1.3L12.5,5.8z"/>
			<path id="Polygon_28-4" class="st0" d="M13.7,2.6l1,0l-0.5,0.9L13.7,2.6z"/>
			<path id="Polygon_26-4" class="st0" d="M12.5,10.1l1,0l-0.5,0.9L12.5,10.1z"/>
			<path id="Polygon_23-4" class="st0" d="M9.7,12.1l0.7,1.1H9L9.7,12.1z"/>
			<path id="Polygon_24-4" class="st0" d="M10.5,14l1.2,0l-0.6,1.1L10.5,14z"/>
			<rect id="Rectangle_670-4" x="8.6" y="2" class="st0" width="0.7" height="1.5"/>
			<rect id="Rectangle_667-4" x="7.2" y="8.6" class="st0" width="1.5" height="0.7"/>
			<rect id="Rectangle_677-4" x="10.1" y="7.2" class="st0" width="1.5" height="1.5"/>
			<rect id="Rectangle_682-4" x="13.8" y="12.3" class="st0" width="0.7" height="1.5"/>
			<path id="Rectangle_676-4" class="st0" d="M10.5,10.1L10.5,10.1c0.2,0,0.4,0.2,0.4,0.4l0,0c0,0.2-0.2,0.4-0.4,0.4l0,0
				c-0.2,0-0.4-0.2-0.4-0.4l0,0C10.1,10.3,10.3,10.1,10.5,10.1z"/>
			<path id="Rectangle_679-4" class="st0" d="M12,12.3L12,12.3c0.2,0,0.4,0.2,0.4,0.4l0,0c0,0.2-0.2,0.4-0.4,0.4l0,0
				c-0.2,0-0.4-0.2-0.4-0.4l0,0C11.6,12.5,11.8,12.3,12,12.3z"/>
			<path id="Rectangle_684-4" class="st0" d="M14.2,10.9L14.2,10.9c0.2,0,0.4,0.2,0.4,0.4l0,0c0,0.2-0.2,0.4-0.4,0.4l0,0
				c-0.2,0-0.4-0.2-0.4-0.4l0,0C13.8,11,14,10.9,14.2,10.9z"/>
			<path id="Rectangle_683-4" class="st0" d="M14.2,14.5L14.2,14.5c0.2,0,0.4,0.2,0.4,0.4l0,0c0,0.2-0.2,0.4-0.4,0.4l0,0
				c-0.2,0-0.4-0.2-0.4-0.4l0,0C13.8,14.7,14,14.5,14.2,14.5z"/>
			<path id="Rectangle_671-4" class="st0" d="M9,13.8L9,13.8c0.2,0,0.4,0.2,0.4,0.4l0,0c0,0.2-0.2,0.4-0.4,0.4l0,0
				c-0.2,0-0.4-0.2-0.4-0.4l0,0C8.6,14,8.8,13.8,9,13.8z"/>
			<path id="Rectangle_672-4" class="st0" d="M8.3,10.9L8.3,10.9c0.2,0,0.4,0.2,0.4,0.4l0,0c0,0.2-0.2,0.4-0.4,0.4l0,0
				c-0.2,0-0.4-0.2-0.4-0.4l0,0C7.9,11,8.1,10.9,8.3,10.9z"/>
			<path id="Rectangle_663-4" class="st0" d="M5.3,9.4L5.3,9.4c0.2,0,0.4,0.2,0.4,0.4l0,0c0,0.2-0.2,0.4-0.4,0.4l0,0
				C5.1,10.1,5,10,5,9.7l0,0C5,9.5,5.1,9.4,5.3,9.4z"/>
			<path id="Rectangle_668-4" class="st0" d="M2.4,13.1L2.4,13.1c0.2,0,0.4,0.2,0.4,0.4l0,0c0,0.2-0.2,0.4-0.4,0.4l0,0
				c-0.2,0-0.4-0.2-0.4-0.4l0,0C2,13.2,2.2,13.1,2.4,13.1z"/>
			<path id="Rectangle_662-4" class="st0" d="M3.9,5.7L3.9,5.7c0.2,0,0.4,0.2,0.4,0.4l0,0c0,0.2-0.2,0.4-0.4,0.4l0,0
				c-0.2,0-0.4-0.2-0.4-0.4l0,0C3.5,5.9,3.7,5.7,3.9,5.7z"/>
			<path id="Rectangle_660-4" class="st0" d="M2.4,2L2.4,2c0.2,0,0.4,0.2,0.4,0.4l0,0c0,0.2-0.2,0.4-0.4,0.4l0,0
				C2.2,2.8,2,2.6,2,2.4l0,0C2,2.2,2.2,2,2.4,2z"/>
			<path id="Rectangle_664-4" class="st0" d="M5.3,4.2L5.3,4.2c0.2,0,0.4,0.2,0.4,0.4l0,0C5.7,4.8,5.5,5,5.3,5l0,0
				C5.1,5,5,4.8,5,4.6l0,0C5,4.4,5.1,4.2,5.3,4.2z"/>
			<path id="Rectangle_669-4" class="st0" d="M6.8,2L6.8,2C7,2,7.2,2.2,7.2,2.4l0,0c0,0.2-0.2,0.4-0.4,0.4l0,0
				c-0.2,0-0.4-0.2-0.4-0.4l0,0C6.4,2.2,6.6,2,6.8,2z"/>
			<path id="Rectangle_673-4" class="st0" d="M9,6.4L9,6.4c0.2,0,0.4,0.2,0.4,0.4l0,0C9.4,7,9.2,7.2,9,7.2l0,0
				C8.8,7.2,8.6,7,8.6,6.8l0,0C8.6,6.6,8.8,6.4,9,6.4z"/>
			<path id="Rectangle_675-4" class="st0" d="M9.7,4.2L9.7,4.2c0.2,0,0.4,0.2,0.4,0.4l0,0C10.1,4.8,10,5,9.7,5l0,0
				C9.5,5,9.4,4.8,9.4,4.6l0,0C9.4,4.4,9.5,4.2,9.7,4.2z"/>
			<path id="Rectangle_678-4" class="st0" d="M11.2,2.8L11.2,2.8c0.2,0,0.4,0.2,0.4,0.4l0,0c0,0.2-0.2,0.4-0.4,0.4l0,0
				c-0.2,0-0.4-0.2-0.4-0.4l0,0C10.9,2.9,11,2.8,11.2,2.8z"/>
			<path id="Rectangle_680-4" class="st0" d="M12.7,2L12.7,2c0.2,0,0.4,0.2,0.4,0.4l0,0c0,0.2-0.2,0.4-0.4,0.4l0,0
				c-0.2,0-0.4-0.2-0.4-0.4l0,0C12.3,2.2,12.5,2,12.7,2z"/>
			<rect id="Rectangle_674-4" x="5.7" y="13.8" class="st0" width="1.5" height="0.7"/>
			<rect id="Rectangle_665-4" x="2.8" y="10.9" class="st0" width="1.5" height="0.7"/>
			
				<rect id="Rectangle_666-4" x="5.6" y="6.3" transform="matrix(0.7071 -0.7071 0.7071 0.7071 -3.0713 6.3869)" class="st0" width="1.2" height="1.2"/>
			
				<rect id="Rectangle_661-4" x="2.5" y="3.9" transform="matrix(0.7071 -0.7071 0.7071 0.7071 -2.2731 3.4881)" class="st0" width="1.2" height="1.2"/>
			
				<rect id="Rectangle_681-4" x="13.4" y="4.6" transform="matrix(0.7071 -0.7071 0.7071 0.7071 0.4209 11.446)" class="st0" width="1.2" height="1.2"/>
		</g>
	</g>
</g>
</svg>
