<?xml version="1.0" encoding="utf-8"?>
<!-- Generator: Adobe Illustrator 27.4.1, SVG Export Plug-In . SVG Version: 6.00 Build 0)  -->
<svg version="1.1" id="Layer_1" xmlns="http://www.w3.org/2000/svg" xmlns:xlink="http://www.w3.org/1999/xlink" x="0px" y="0px"
	 viewBox="0 0 210 128" enable-background="new 0 0 210 128" xml:space="preserve">
<g>
	
		<rect x="50.14" y="48.88" transform="matrix(0.7039 -0.7103 0.7103 0.7039 -35.5365 57.0322)" fill="#232020" width="1" height="44.52"/>
</g>
<g>
	
		<rect x="57.51" y="48.88" transform="matrix(0.7039 -0.7103 0.7103 0.7039 -33.3555 62.2643)" fill="#232020" width="1" height="44.52"/>
</g>
<g>
	
		<rect x="64.87" y="48.88" transform="matrix(0.7039 -0.7103 0.7103 0.7039 -31.1744 67.4952)" fill="#232020" width="1" height="44.52"/>
</g>
<g>
	
		<rect x="172.59" y="49.47" transform="matrix(0.7036 -0.7106 0.7106 0.7036 1.7723 143.6577)" fill="#232020" width="1" height="40.46"/>
</g>
<g>
	
		<rect x="176.22" y="51.02" transform="matrix(0.7024 -0.7118 0.7118 0.7024 5.6424 145.4314)" fill="#232020" width="1" height="29.89"/>
</g>
<g>
	
		<rect x="179.89" y="52.55" transform="matrix(0.6998 -0.7143 0.7143 0.6998 9.6684 147.5546)" fill="#232020" width="1" height="19.44"/>
</g>
<g>
	<g>
		<path fill="#232020" d="M187.88,111.03H21.3V25.84h166.58V111.03z M22.3,110.03h164.58V26.84H22.3V110.03z"/>
	</g>
	<g>
		<rect x="27.68" y="36.47" fill="#232020" width="6.43" height="1"/>
	</g>
	<g>
		
			<rect x="32.91" y="32.66" transform="matrix(0.9487 -0.3162 0.3162 0.9487 -9.3127 12.355)" fill="#232020" width="1" height="4.42"/>
	</g>
	<g>
		<rect x="36.86" y="27.66" transform="matrix(0.4189 -0.908 0.908 0.4189 -2.9835 51.655)" fill="#232020" width="4" height="1"/>
	</g>
	<g>
		<rect x="55.37" y="36.47" fill="#232020" width="4.2" height="1"/>
	</g>
	<g>
		
			<rect x="62.56" y="30.2" transform="matrix(0.8649 -0.502 0.502 0.8649 -7.8957 36.0768)" fill="#232020" width="1" height="5.01"/>
	</g>
	<g>
		
			<rect x="66.72" y="27.66" transform="matrix(0.5693 -0.8222 0.8222 0.5693 6.5413 68.8024)" fill="#232020" width="4.42" height="1"/>
	</g>
	<g>
		
			<rect x="81.3" y="36.68" transform="matrix(0.8436 -0.5369 0.5369 0.8436 -7.8848 49.9389)" fill="#232020" width="1" height="3.65"/>
	</g>
	<g>
		
			<rect x="70.97" y="47.1" transform="matrix(0.5664 -0.8242 0.8242 0.5664 -7.2741 81.37)" fill="#232020" width="5.43" height="1"/>
	</g>
	<g>
		
			<rect x="68.93" y="49.47" transform="matrix(0.9963 -0.086 0.086 0.9963 -4.0345 6.2483)" fill="#232020" width="3.23" height="1"/>
	</g>
	<g>
		
			<rect x="56.96" y="48.82" transform="matrix(0.5351 -0.8448 0.8448 0.5351 -16.6245 72.3983)" fill="#232020" width="1" height="4.97"/>
	</g>
	<g>
		
			<rect x="56.96" y="60.46" transform="matrix(0.0665 -0.9978 0.9978 0.0665 -8.7816 115.7358)" fill="#232020" width="1" height="4.2"/>
	</g>
	<g>
		
			<rect x="46.48" y="63.39" transform="matrix(0.7565 -0.654 0.654 0.7565 -29.9702 47.2865)" fill="#232020" width="4.07" height="1"/>
	</g>
	<g>
		
			<rect x="53.61" y="66.58" transform="matrix(0.8838 -0.4678 0.4678 0.8838 -26.1202 33.3583)" fill="#232020" width="1" height="5.38"/>
	</g>
	<g>
		
			<rect x="51.21" y="80.52" transform="matrix(0.5071 -0.8619 0.8619 0.5071 -43.2301 86.4448)" fill="#232020" width="5.52" height="1"/>
	</g>
	<g>
		<rect x="38.87" y="76.75" fill="#232020" width="7.83" height="1"/>
	</g>
	<g>
		
			<rect x="22.08" y="78.63" transform="matrix(0.6639 -0.7478 0.7478 0.6639 -50.9099 44.996)" fill="#232020" width="5.05" height="1"/>
	</g>
	<g>
		
			<rect x="36.83" y="90.98" transform="matrix(0.7864 -0.6177 0.6177 0.7864 -49.7647 43.0243)" fill="#232020" width="1" height="4.98"/>
	</g>
	<g>
		
			<rect x="55.29" y="96.04" transform="matrix(0.8321 -0.5546 0.5546 0.8321 -45.5732 47.5689)" fill="#232020" width="1" height="6.05"/>
	</g>
	<g>
		
			<rect x="55.53" y="98.28" transform="matrix(0.3518 -0.9361 0.9361 0.3518 -54.5381 118.8078)" fill="#232020" width="5.97" height="1"/>
	</g>
	<g>
		
			<rect x="54.09" y="102.34" transform="matrix(0.9936 -0.1133 0.1133 0.9936 -11.2764 7.2106)" fill="#232020" width="7.46" height="1"/>
	</g>
	<g>
		
			<rect x="70.81" y="87.44" transform="matrix(0.1169 -0.9931 0.9931 0.1169 -26.2403 150.1537)" fill="#232020" width="1" height="4.79"/>
	</g>
	<g>
		
			<rect x="74.1" y="93.39" transform="matrix(0.5547 -0.8321 0.8321 0.5547 -43.998 105.5634)" fill="#232020" width="5.04" height="1"/>
	</g>
	<g>
		
			<rect x="71.61" y="71.24" transform="matrix(0.8716 -0.4903 0.4903 0.8716 -27.2379 44.9158)" fill="#232020" width="1" height="6.42"/>
	</g>
	<g>
		<rect x="80.26" y="102.34" fill="#232020" width="5.03" height="1"/>
	</g>
	<g>
		
			<rect x="90.67" y="105.65" transform="matrix(0.848 -0.53 0.53 0.848 -43.5363 64.7787)" fill="#232020" width="1" height="5.28"/>
	</g>
	<g>
		
			<rect x="93.24" y="89.33" transform="matrix(0.5737 -0.819 0.819 0.5737 -33.1037 116.0574)" fill="#232020" width="3.41" height="1"/>
	</g>
	<g>
		
			<rect x="96.54" y="88.14" transform="matrix(0.8683 -0.4961 0.4961 0.8683 -32.0581 60.0458)" fill="#232020" width="1" height="4.51"/>
	</g>
	<g>
		
			<rect x="87.23" y="71.36" transform="matrix(0.3965 -0.918 0.918 0.3965 -11.6263 126.0363)" fill="#232020" width="5.64" height="1"/>
	</g>
	<g>
		<rect x="93.41" y="62.06" fill="#232020" width="6.71" height="1"/>
	</g>
	<g>
		
			<rect x="100.74" y="68.99" transform="matrix(0.8756 -0.483 0.483 0.8756 -21.8472 57.7702)" fill="#232020" width="1" height="4.63"/>
	</g>
	<g>
		<rect x="106.55" y="89.33" fill="#232020" width="5.59" height="1"/>
	</g>
	<g>
		
			<rect x="119.76" y="73.91" transform="matrix(0.8129 -0.5824 0.5824 0.8129 -22.2232 84.4024)" fill="#232020" width="1" height="5.76"/>
	</g>
	<g>
		
			<rect x="117.17" y="71.36" transform="matrix(0.5436 -0.8393 0.8393 0.5436 -5.4319 133.7324)" fill="#232020" width="6.17" height="1"/>
	</g>
	<g>
		
			<rect x="119.13" y="76.52" transform="matrix(0.9977 -0.0683 0.0683 0.9977 -4.9765 8.5505)" fill="#232020" width="6.73" height="1"/>
	</g>
	<g>
		<rect x="132.56" y="89.33" fill="#232020" width="5.31" height="1"/>
	</g>
	<g>
		
			<rect x="136.05" y="78.73" transform="matrix(0.832 -0.5547 0.5547 0.832 -22.0667 89.378)" fill="#232020" width="1" height="4.79"/>
	</g>
	<g>
		
			<rect x="121.49" y="91.36" transform="matrix(0.6044 -0.7967 0.7967 0.6044 -24.1132 135.1609)" fill="#232020" width="5.09" height="1"/>
	</g>
	<g>
		
			<rect x="144.04" y="105.06" transform="matrix(0.4558 -0.8901 0.8901 0.4558 -13.9029 188.3901)" fill="#232020" width="6.13" height="1"/>
	</g>
	<g>
		
			<rect x="162.88" y="100.31" transform="matrix(0.6044 -0.7967 0.7967 0.6044 -14.8666 171.6817)" fill="#232020" width="5.09" height="1"/>
	</g>
	<g>
		
			<rect x="173.32" y="89.47" transform="matrix(0.8496 -0.5274 0.5274 0.8496 -22.3071 105.4872)" fill="#232020" width="1" height="4.77"/>
	</g>
	<g>
		
			<rect x="156.23" y="81.74" transform="matrix(0.5048 -0.8632 0.8632 0.5048 8.1486 178.6952)" fill="#232020" width="7.21" height="1"/>
	</g>
	<g>
		<rect x="157.74" y="76.52" fill="#232020" width="7.69" height="1"/>
	</g>
	<g>
		
			<rect x="178.07" y="71.56" transform="matrix(0.8906 -0.4548 0.4548 0.8906 -14.2658 89.3513)" fill="#232020" width="1" height="5.54"/>
	</g>
	<g>
		<rect x="172.56" y="62.06" fill="#232020" width="6.01" height="1"/>
	</g>
	<g>
		
			<rect x="183.25" y="52.99" transform="matrix(0.8455 -0.534 0.534 0.8455 -1.5791 106.7993)" fill="#232020" width="1" height="6.29"/>
	</g>
	<g>
		
			<rect x="177.19" y="47.03" transform="matrix(0.5146 -0.8574 0.8574 0.5146 46.6353 177.4375)" fill="#232020" width="5.71" height="1"/>
	</g>
	<g>
		<rect x="159.83" y="36.47" fill="#232020" width="6.85" height="1"/>
	</g>
	<g>
		
			<rect x="88.95" y="41.15" transform="matrix(0.3352 -0.9421 0.9421 0.3352 22.1071 114.6383)" fill="#232020" width="6.68" height="1"/>
	</g>
	<g>
		
			<rect x="99.34" y="39.92" transform="matrix(0.8479 -0.5301 0.5301 0.8479 -7.38 59.4001)" fill="#232020" width="1" height="5.28"/>
	</g>
	<g>
		
			<rect x="107.27" y="36.19" transform="matrix(0.7561 -0.6545 0.6545 0.7561 2.831 80.9743)" fill="#232020" width="5.55" height="1"/>
	</g>
	<g>
		<rect x="120.26" y="36.19" fill="#232020" width="5.31" height="1"/>
	</g>
	<g>
		
			<rect x="140.45" y="32.09" transform="matrix(0.7649 -0.6442 0.6442 0.7649 10.7911 98.9575)" fill="#232020" width="1" height="5.21"/>
	</g>
	<g>
		
			<rect x="136.82" y="38.67" transform="matrix(0.6913 -0.7226 0.7226 0.6913 14.9917 113.4343)" fill="#232020" width="6.87" height="1"/>
	</g>
	<g>
		
			<rect x="134.76" y="49.6" transform="matrix(0.843 -0.5379 0.5379 0.843 -6.7377 80.9202)" fill="#232020" width="1" height="4.81"/>
	</g>
	<g>
		
			<rect x="141.86" y="55.91" transform="matrix(0.4228 -0.9062 0.9062 0.4228 32.094 163.206)" fill="#232020" width="4.63" height="1"/>
	</g>
	<g>
		<rect x="147.11" y="49.47" fill="#232020" width="4.75" height="1"/>
	</g>
	<g>
		
			<rect x="152.62" y="55.66" transform="matrix(0.7594 -0.6507 0.6507 0.7594 -0.6294 113.4909)" fill="#232020" width="1" height="3.87"/>
	</g>
	<g>
		
			<rect x="159.1" y="50.31" transform="matrix(0.2531 -0.9674 0.9674 0.2531 72.1536 195.0859)" fill="#232020" width="6.65" height="1"/>
	</g>
	<g>
		<rect x="106.55" y="49.47" fill="#232020" width="5.59" height="1"/>
	</g>
	<g>
		
			<rect x="127.84" y="108.21" transform="matrix(0.4736 -0.8808 0.8808 0.4736 -27.3616 171.644)" fill="#232020" width="4.13" height="1"/>
	</g>
	<g>
		
			<rect x="172.73" y="28.08" transform="matrix(0.6158 -0.7879 0.7879 0.6158 44.9312 149.304)" fill="#232020" width="5.68" height="1"/>
	</g>
	<g>
		<rect x="21.8" y="60.24" fill="#232020" width="165.58" height="1"/>
	</g>
	<g>
		<rect x="21.8" y="28.84" fill="#232020" width="165.58" height="1"/>
	</g>
	<g>
		<rect x="21.8" y="93.39" fill="#232020" width="165.58" height="1"/>
	</g>
</g>
</svg>
