<?xml version="1.0" encoding="utf-8"?>
<!-- Generator: Adobe Illustrator 27.4.1, SVG Export Plug-In . SVG Version: 6.00 Build 0)  -->
<svg version="1.1" id="Layer_1" xmlns="http://www.w3.org/2000/svg" xmlns:xlink="http://www.w3.org/1999/xlink" x="0px" y="0px"
	 viewBox="0 0 210 128" enable-background="new 0 0 210 128" xml:space="preserve">
<g>
	<g>
		<path fill="#232020" d="M186.88,105.84H20.3V20.65h166.58V105.84z M21.3,104.84h164.58V21.65H21.3V104.84z"/>
	</g>
	<g>
		<rect x="20.8" y="43.34" fill="#232020" width="165.58" height="1"/>
	</g>
	<g>
		<rect x="20.8" y="73.66" fill="#232020" width="165.58" height="1"/>
	</g>
	<g>
		<rect x="20.8" y="96.37" fill="#232020" width="165.58" height="1"/>
	</g>
	<g>
		
			<rect x="49" y="21.58" transform="matrix(0.7039 -0.7103 0.7103 0.7039 -16.4791 48.1406)" fill="#232020" width="1" height="44.52"/>
	</g>
	<g>
		
			<rect x="56.37" y="21.58" transform="matrix(0.7039 -0.7103 0.7103 0.7039 -14.298 53.3733)" fill="#232020" width="1" height="44.52"/>
	</g>
	<g>
		
			<rect x="63.74" y="21.58" transform="matrix(0.7039 -0.7103 0.7103 0.7039 -12.1171 58.6053)" fill="#232020" width="1" height="44.52"/>
	</g>
	<g>
		
			<rect x="103.69" y="86.9" transform="matrix(0.7039 -0.7103 0.7103 0.7039 -38.7812 103.0262)" fill="#232020" width="1" height="22.26"/>
	</g>
	<g>
		
			<rect x="110.79" y="87.01" transform="matrix(0.7039 -0.7103 0.7103 0.7039 -36.4919 107.9885)" fill="#232020" width="1" height="21.51"/>
	</g>
	<g>
		
			<rect x="118.16" y="87.01" transform="matrix(0.7039 -0.7103 0.7103 0.7039 -34.3127 113.2275)" fill="#232020" width="1" height="21.53"/>
	</g>
	<g>
		
			<rect x="171.46" y="22.17" transform="matrix(0.7036 -0.7106 0.7106 0.7036 20.838 134.7582)" fill="#232020" width="1" height="40.46"/>
	</g>
	<g>
		
			<rect x="175.09" y="23.72" transform="matrix(0.7024 -0.7118 0.7118 0.7024 24.7381 136.4929)" fill="#232020" width="1" height="29.89"/>
	</g>
	<g>
		
			<rect x="178.76" y="25.25" transform="matrix(0.6998 -0.7143 0.7143 0.6998 28.8334 138.5498)" fill="#232020" width="1" height="19.44"/>
	</g>
	<g>
		<rect x="20.8" y="96.37" fill="#232020" width="165.58" height="1"/>
	</g>
	<g>
		<rect x="26.36" y="21.15" fill="#232020" width="1" height="84.19"/>
	</g>
	<g>
		<rect x="64.76" y="21.15" fill="#232020" width="1" height="84.19"/>
	</g>
	<g>
		<rect x="103.15" y="21.15" fill="#232020" width="1" height="84.19"/>
	</g>
	<g>
		<rect x="142.88" y="21.15" fill="#232020" width="1" height="84.19"/>
	</g>
	<g>
		<rect x="181.66" y="21.15" fill="#232020" width="1" height="84.19"/>
	</g>
</g>
</svg>
