<svg width="51" height="51" viewBox="0 0 51 51" fill="none" xmlns="http://www.w3.org/2000/svg">
<g clip-path="url(#clip0_257_4448)">
<path d="M46.8881 51H4.11188C3.02198 50.9979 1.97734 50.564 1.20667 49.7933C0.435997 49.0226 0.00210607 47.978 0 46.8881L0 18.9178C0.00210607 17.8279 0.435997 16.7832 1.20667 16.0126C1.97734 15.2419 3.02198 14.808 4.11188 14.8059H9.04453V16.4475H4.11188C3.45671 16.4475 2.82837 16.7077 2.3651 17.171C1.90183 17.6343 1.64156 18.2626 1.64156 18.9178V46.8881C1.64156 47.5433 1.90183 48.1716 2.3651 48.6349C2.82837 49.0981 3.45671 49.3584 4.11188 49.3584H46.8881C47.5433 49.3584 48.1716 49.0981 48.6349 48.6349C49.0982 48.1716 49.3584 47.5433 49.3584 46.8881V18.9178C49.3584 18.2626 49.0982 17.6343 48.6349 17.171C48.1716 16.7077 47.5433 16.4475 46.8881 16.4475H40.3059V14.8059H46.8881C47.978 14.808 49.0227 15.2419 49.7933 16.0126C50.564 16.7832 50.9979 17.8279 51 18.9178V46.8881C50.9979 47.978 50.564 49.0226 49.7933 49.7933C49.0227 50.564 47.978 50.9979 46.8881 51Z" fill="#999999"/>
<path d="M47.7089 29.6118H46.0674V36.194H47.7089V29.6118Z" fill="#999999"/>
<path d="M44.4179 15.6267H42.7764V50.1712H44.4179V15.6267Z" fill="#999999"/>
<path d="M6.57418 15.6267H4.93262V50.1712H6.57418V15.6267Z" fill="#999999"/>
<path d="M41.1266 46.0674H8.22363V11.5149H20.5672V13.1644H9.87316V44.4179H39.485V13.1644H28.791V11.5149H41.1266V46.0674Z" fill="#999999"/>
<path d="M25.5 0H23.8584V7.40297H25.5V0Z" fill="#999999"/>
<path d="M24.7032 16.4555C23.7276 16.4555 22.7739 16.1662 21.9627 15.6242C21.1516 15.0822 20.5193 14.3118 20.146 13.4105C19.7726 12.5092 19.675 11.5174 19.8653 10.5606C20.0556 9.60371 20.5254 8.7248 21.2153 8.03495C21.9051 7.34511 22.784 6.87532 23.7409 6.68499C24.6977 6.49466 25.6895 6.59235 26.5908 6.96569C27.4921 7.33903 28.2625 7.97126 28.8045 8.78243C29.3465 9.5936 29.6358 10.5473 29.6358 11.5229C29.6337 12.8304 29.1133 14.0839 28.1888 15.0085C27.2642 15.9331 26.0107 16.4534 24.7032 16.4555ZM24.7032 8.23177C24.0522 8.23177 23.416 8.42479 22.8747 8.78642C22.3335 9.14805 21.9117 9.66205 21.6626 10.2634C21.4135 10.8648 21.3483 11.5265 21.4753 12.1649C21.6023 12.8033 21.9157 13.3898 22.376 13.85C22.8363 14.3103 23.4227 14.6237 24.0611 14.7507C24.6995 14.8777 25.3612 14.8125 25.9626 14.5634C26.564 14.3143 27.078 13.8925 27.4396 13.3513C27.8012 12.8101 27.9943 12.1738 27.9943 11.5229C27.9953 11.09 27.911 10.6612 27.746 10.261C27.5811 9.86076 27.3389 9.49701 27.0331 9.19056C26.7274 8.88411 26.3643 8.64098 25.9645 8.47509C25.5646 8.30919 25.136 8.2238 24.7032 8.22381V8.23177Z" fill="#999999"/>
<path d="M21.4129 14.5792L14.019 40.9012L15.5994 41.3452L22.9933 15.0231L21.4129 14.5792Z" fill="#999999"/>
<path d="M27.933 14.5824L26.3528 15.0269L33.7558 41.3463L35.336 40.9018L27.933 14.5824Z" fill="#999999"/>
<path d="M31.2613 27.1416H18.0969V28.7832H31.2613V27.1416Z" fill="#999999"/>
<path d="M25.5 24.6792H23.8584V31.2614H25.5V24.6792Z" fill="#999999"/>
<path d="M37.8357 21.3882H36.1941V23.0297H37.8357V21.3882Z" fill="#999999"/>
<path d="M34.5446 21.3882H32.9031V23.0297H34.5446V21.3882Z" fill="#999999"/>
<path d="M16.4475 21.3882H14.8059V23.0297H16.4475V21.3882Z" fill="#999999"/>
<path d="M13.1565 21.3882H11.5149V23.0297H13.1565V21.3882Z" fill="#999999"/>
</g>
<defs>
<clipPath id="clip0_257_4448">
<rect width="51" height="51" fill="white"/>
</clipPath>
</defs>
</svg>
